<svg id="图层_1" data-name="图层 1" xmlns="http://www.w3.org/2000/svg" xmlns:xlink="http://www.w3.org/1999/xlink" viewBox="0 0 240 150"><defs><style>.cls-1{fill:url(#未命名的渐变);}.cls-2{fill:url(#未命名的渐变_2);}.cls-3{fill:url(#未命名的渐变_3);}.cls-4{fill:url(#未命名的渐变_4);}.cls-5{fill:url(#未命名的渐变_5);}.cls-6{fill:url(#未命名的渐变_6);}.cls-10,.cls-11,.cls-12,.cls-13,.cls-14,.cls-7,.cls-8,.cls-9{opacity:0.55;}.cls-7{fill:url(#未命名的渐变_82);}.cls-17,.cls-8{fill:#fff;}.cls-9{fill:#d0d0d0;}.cls-10{fill:#b5b5b5;isolation:isolate;}.cls-11{fill:url(#未命名的渐变_80);}.cls-12{fill:url(#未命名的渐变_80-2);}.cls-13{fill:url(#未命名的渐变_80-3);}.cls-14{fill:url(#未命名的渐变_62);}.cls-15{opacity:0.8;}.cls-16{fill:url(#未命名的渐变_22);}</style><linearGradient id="未命名的渐变" x1="2323.53" y1="765.73" x2="2324.17" y2="764.15" gradientTransform="matrix(63.93, 0, 0, -65.41, -148519.23, 50099.61)" gradientUnits="userSpaceOnUse"><stop offset="0" stop-color="#d2d2d2"/><stop offset="1" stop-color="#d2d2d2" stop-opacity="0"/></linearGradient><linearGradient id="未命名的渐变_2" x1="2320.13" y1="765.71" x2="2319.78" y2="764.79" gradientTransform="matrix(59.26, 0, 0, -64.97, -137276.31, 49803.96)" xlink:href="#未命名的渐变"/><linearGradient id="未命名的渐变_3" x1="2354.98" y1="766.31" x2="2354.98" y2="764.53" gradientTransform="matrix(370.52, 0, 0, -51.85, -872442.13, 39771.68)" xlink:href="#未命名的渐变"/><linearGradient id="未命名的渐变_4" x1="2292.91" y1="765.29" x2="2292.57" y2="764.17" gradientTransform="matrix(35.77, 0, 0, -55.85, -81841.5, 42790.85)" xlink:href="#未命名的渐变"/><linearGradient id="未命名的渐变_5" x1="2288.89" y1="762.98" x2="2288.89" y2="761.15" gradientTransform="matrix(32.84, 0, 0, -22.82, -75093.88, 17406.69)" xlink:href="#未命名的渐变"/><linearGradient id="未命名的渐变_6" x1="2302.06" y1="763.23" x2="2302.06" y2="761.74" gradientTransform="matrix(40.65, 0, 0, -28.39, -93474.27, 21664.32)" xlink:href="#未命名的渐变"/><linearGradient id="未命名的渐变_82" x1="2337.55" y1="763.64" x2="2337.75" y2="763.55" gradientTransform="matrix(100.12, 0, 0, -23.64, -233916.74, 18136.51)" gradientUnits="userSpaceOnUse"><stop offset="0" stop-color="#e0e0e0"/><stop offset="1" stop-color="#f9f9f9" stop-opacity="0.98"/></linearGradient><linearGradient id="未命名的渐变_80" x1="2337.2" y1="762.73" x2="2337.82" y2="762.58" gradientTransform="matrix(100.12, 0, 0, -23.7, -233916.75, 18128.85)" xlink:href="#未命名的渐变_82"/><linearGradient id="未命名的渐变_80-2" x1="2337.57" y1="764.15" x2="2337.73" y2="764.09" gradientTransform="matrix(100.12, 0, 0, -23.64, -233916.74, 18163.99)" xlink:href="#未命名的渐变_82"/><linearGradient id="未命名的渐变_80-3" x1="2337.2" y1="763.24" x2="2337.75" y2="763.11" gradientTransform="matrix(100.12, 0, 0, -23.64, -233916.74, 18109.04)" xlink:href="#未命名的渐变_82"/><linearGradient id="未命名的渐变_62" x1="2334.74" y1="764.96" x2="2335.2" y2="764.61" gradientTransform="matrix(91.63, 0, 0, -68.17, -213818.32, 52227.05)" gradientUnits="userSpaceOnUse"><stop offset="0" stop-color="#fff"/><stop offset="1" stop-color="#c5c5c5"/></linearGradient><linearGradient id="未命名的渐变_22" x1="2335.12" y1="761.76" x2="2334.81" y2="761.8" gradientTransform="matrix(91.62, 0, 0, -13.12, -213789.13, 10065.34)" gradientUnits="userSpaceOnUse"><stop offset="0" stop-color="#fd9351"/><stop offset="1" stop-color="#fd763e"/></linearGradient></defs><g id="编组-2"><path id="路径" class="cls-1" d="M48.83,116.62c-4.38-2-9.13-7.29-7.78-12.3a1.63,1.63,0,0,1,1.76.69s7.6,11.87,5.47.95c-1-5.13-2.74-10.1-2.87-15.4C45.18,80.93,54,78.25,56.57,88.9c.33,1.41,1.62,12.85,4.54,11.54a2.1,2.1,0,0,0,.88-.89c1.48-2.43,1.92-6,4.64-6.83,2.39-.75,4.74,1.32,6,3.46,2.61,4.34,6.09,15.15.76,18.81s-18.78,4.24-24.53,1.68Z"/><path id="路径-2" data-name="路径" class="cls-2" d="M171.91,120.3c-1.93-4.41-1.88-11.53,2.5-14.35a1.63,1.63,0,0,1,.82,1.72s-2.33,13.9,3.42,4.37c2.73-4.49,4.78-9.32,8.2-13.35,6.28-7.34,14.65-3.35,9.4,6.25-.69,1.27-7.43,10.62-4.38,11.62a2.14,2.14,0,0,0,1.25-.08c2.73-.81,5.46-3.16,8-2,2.26,1,2.62,4.15,2.14,6.6-1,5-5.81,10.53-12.22,9.67s-16.64-4.67-19.16-10.43Z"/><path id="路径-3" data-name="路径" class="cls-3" d="M222.54,129.48c-25.76-17.68-62.18-28.7-102.54-28.7s-76.78,11-102.54,28.7Z"/><path id="形状结合" class="cls-4" d="M183.14,77.48c-1.63,2-2.68,5-1.7,7.55.67,1.79,2.71,1.8,2.57,4.29a8.07,8.07,0,0,1-1.25,3.48,26.34,26.34,0,0,1-4.21,5.53,4.86,4.86,0,0,1,1.83,4.5,8.09,8.09,0,0,1-2.31,4.49,3.24,3.24,0,0,1-1.36,1,3.47,3.47,0,0,1-1.57,0A27.45,27.45,0,0,1,167.8,106c-1.44-.69-2.92-1.64-3.41-3.14-.57-1.72.33-2.27,1.31-2.81l.25-.14a3.36,3.36,0,0,0,1.3-1.08c.72-1.18.74-2.75,1-4.06.37-1.93-.18-5.46,2.24-6.22.94-.29,2-.22,2.89-.52,2-.65,2.88-2.57,3.69-4.5l.15-.35a11.63,11.63,0,0,1,1.68-3C179.91,78.9,182.46,78.31,183.14,77.48ZM177.23,89s-7.36,8.58-7.12,16.52h2.38S173.35,95.9,177.23,89Z"/><path id="路径-4" data-name="路径" class="cls-5" d="M75.1,31.32h0a5.39,5.39,0,0,0-10.49-1.83,4.49,4.49,0,1,0,.14,9h9.9a3.59,3.59,0,0,0,.45-7.15Z"/><path id="路径-5" data-name="路径" class="cls-6" d="M116,25.89v0A6.73,6.73,0,0,0,103,23.61a5.62,5.62,0,0,0,.18,11.24h12.3a4.48,4.48,0,0,0,.56-8.93Z"/></g><rect id="矩形" class="cls-7" x="81.07" y="74.3" width="55.89" height="13.2"/><circle id="椭圆形" class="cls-8" cx="89.98" cy="80.9" r="2.49"/><circle id="椭圆形-2" data-name="椭圆形" class="cls-9" cx="104.95" cy="81.25" r="1.3"/><rect id="矩形-2" data-name="矩形" class="cls-10" x="87.89" y="102.83" width="3.06" height="1.69"/><path id="路径-6" data-name="路径" class="cls-11" d="M84.79,43.63h48.45A3.71,3.71,0,0,1,137,47.34v9.52H81.07V47.34a3.72,3.72,0,0,1,3.72-3.71Z"/><circle id="椭圆形-3" data-name="椭圆形" class="cls-8" cx="89.98" cy="50.23" r="2.49"/><circle id="椭圆形-4" data-name="椭圆形" class="cls-9" cx="104.95" cy="50.58" r="1.3"/><circle id="椭圆形-5" data-name="椭圆形" class="cls-8" cx="109.44" cy="50.58" r="1.3"/><rect id="矩形-3" data-name="矩形" class="cls-8" x="112.99" y="49.29" width="19.88" height="2.58" rx="0.97"/><path id="路径-7" data-name="路径" class="cls-12" d="M81.07,89.64H137v9.48a3.71,3.71,0,0,1-3.71,3.71H84.79a3.72,3.72,0,0,1-3.72-3.71Z"/><circle id="椭圆形-6" data-name="椭圆形" class="cls-8" cx="89.98" cy="96.23" r="2.49"/><circle id="椭圆形-7" data-name="椭圆形" class="cls-9" cx="104.95" cy="95.88" r="1.3"/><rect id="矩形-4" data-name="矩形" class="cls-13" x="81.07" y="58.96" width="55.89" height="13.2"/><circle id="椭圆形-8" data-name="椭圆形" class="cls-8" cx="89.98" cy="65.56" r="2.49"/><circle id="椭圆形-9" data-name="椭圆形" class="cls-9" cx="104.95" cy="65.92" r="1.3"/><path id="路径-8" data-name="路径" class="cls-14" d="M108.29,71.76h51.14v31.91a6.14,6.14,0,0,1-6.14,6.14H114.43a6.14,6.14,0,0,1-6.14-6.14Z"/><g class="cls-15"><path id="路径-9" data-name="路径" class="cls-16" d="M112,64.44h43.71a3.72,3.72,0,0,1,3.72,3.72v3.61H108.29V68.15A3.71,3.71,0,0,1,112,64.44Z"/><circle id="椭圆形-10" data-name="椭圆形" class="cls-17" cx="112.36" cy="68.35" r="0.86"/><circle id="椭圆形-11" data-name="椭圆形" class="cls-17" cx="115.36" cy="68.35" r="0.86"/><circle id="椭圆形-12" data-name="椭圆形" class="cls-17" cx="118.35" cy="68.35" r="0.86"/></g><path id="路径-10" data-name="路径" class="cls-8" d="M127.41,95.61l-4.82-4.82L127.41,86A1.38,1.38,0,0,0,125.49,84l-5.78,5.77a1.58,1.58,0,0,0-.45.73,1.25,1.25,0,0,0,.45,1.2l5.78,5.78a1.37,1.37,0,0,0,1.78-.14,1.38,1.38,0,0,0,.14-1.79Z"/><path id="路径-11" data-name="路径" class="cls-8" d="M148,89.82l-4.49-4.49a1.38,1.38,0,0,0-1.93,1.93l3.53,3.52-4.83,4.82a1.38,1.38,0,0,0,1.93,1.93l5.73-5.73.07-.06a1.21,1.21,0,0,0,0-1.92Z"/><path id="路径-12" data-name="路径" class="cls-8" d="M139.3,81.36a1.21,1.21,0,0,0-1.86.5l-9.53,16.5a1.2,1.2,0,0,0-.21,1,1.18,1.18,0,0,0,.72.8h0a1.16,1.16,0,0,0,1.05.22,1.21,1.21,0,0,0,.8-.71l9.54-16.5a1.19,1.19,0,0,0,.21-1.06,1.2,1.2,0,0,0-.72-.8Z"/></svg>