<svg id="图层_1" data-name="图层 1" xmlns="http://www.w3.org/2000/svg" xmlns:xlink="http://www.w3.org/1999/xlink" viewBox="0 0 240 150"><defs><style>.cls-1{fill:url(#未命名的渐变);}.cls-2{fill:url(#未命名的渐变_2);}.cls-3{fill:url(#未命名的渐变_3);}.cls-4{fill:url(#未命名的渐变_4);}.cls-5{fill:url(#未命名的渐变_5);}.cls-6{fill:url(#未命名的渐变_6);}.cls-7{fill:url(#未命名的渐变_6-2);}.cls-8{fill:url(#未命名的渐变_3-2);}.cls-9{fill:#fff;opacity:0.43;}.cls-10{fill:#ffa78f;}.cls-11{fill:#ff896e;}.cls-12{opacity:0.8;fill:url(#未命名的渐变_22);}.cls-13{fill:url(#未命名的渐变_69);}.cls-14{fill:url(#未命名的渐变_70);}</style><linearGradient id="未命名的渐变" x1="1801.75" y1="765.73" x2="1802.39" y2="764.15" gradientTransform="matrix(63.93, 0, 0, -65.41, -115162.17, 50099.61)" gradientUnits="userSpaceOnUse"><stop offset="0" stop-color="#d2d2d2"/><stop offset="1" stop-color="#d2d2d2" stop-opacity="0"/></linearGradient><linearGradient id="未命名的渐变_2" x1="1799.01" y1="765.71" x2="1798.65" y2="764.79" gradientTransform="matrix(59.26, 0, 0, -64.97, -106395.75, 49803.96)" xlink:href="#未命名的渐变"/><linearGradient id="未命名的渐变_3" x1="1826.34" y1="766.31" x2="1826.34" y2="764.53" gradientTransform="matrix(370.52, 0, 0, -51.85, -676571.3, 39771.68)" xlink:href="#未命名的渐变"/><linearGradient id="未命名的渐变_4" x1="1777.65" y1="765.29" x2="1777.31" y2="764.17" gradientTransform="matrix(35.77, 0, 0, -55.85, -63409.16, 42790.85)" xlink:href="#未命名的渐变"/><linearGradient id="未命名的渐变_5" x1="1774.96" y1="762.98" x2="1774.96" y2="761.15" gradientTransform="matrix(32.84, 0, 0, -22.82, -58217.39, 17406.69)" xlink:href="#未命名的渐变"/><linearGradient id="未命名的渐变_6" x1="1785.03" y1="763.23" x2="1785.03" y2="761.74" gradientTransform="matrix(40.65, 0, 0, -28.39, -72456.05, 21664.32)" xlink:href="#未命名的渐变"/><linearGradient id="未命名的渐变_6-2" x1="1749.87" y1="764.7" x2="1749.87" y2="764.23" gradientTransform="matrix(21.76, 0, 0, -99.32, -37932.8, 76019.24)" xlink:href="#未命名的渐变"/><linearGradient id="未命名的渐变_3-2" x1="1805.56" y1="764.76" x2="1805.56" y2="764.29" gradientTransform="matrix(67.67, 0, 0, -115.06, -122066.86, 88057.77)" xlink:href="#未命名的渐变"/><linearGradient id="未命名的渐变_22" x1="98.87" y1="66.45" x2="144.36" y2="66.45" gradientUnits="userSpaceOnUse"><stop offset="0" stop-color="#fd9351"/><stop offset="1" stop-color="#fd763e"/></linearGradient><linearGradient id="未命名的渐变_69" x1="107.58" y1="57.05" x2="136.77" y2="57.05" gradientUnits="userSpaceOnUse"><stop offset="0" stop-color="#f4f4f4"/><stop offset="0.96" stop-color="#ddddde"/></linearGradient><linearGradient id="未命名的渐变_70" x1="106.48" y1="59.74" x2="127.55" y2="59.74" gradientUnits="userSpaceOnUse"><stop offset="0" stop-color="#d7d7d7"/><stop offset="1" stop-color="#e4e4e4"/></linearGradient></defs><g id="编组-2"><path id="路径" class="cls-1" d="M48.83,116.62c-4.38-2-9.13-7.29-7.78-12.3a1.63,1.63,0,0,1,1.76.69s7.6,11.87,5.47.95c-1-5.13-2.74-10.1-2.87-15.4C45.18,80.93,54,78.25,56.57,88.9c.33,1.41,1.62,12.85,4.54,11.54a2.1,2.1,0,0,0,.88-.89c1.48-2.43,1.92-6,4.64-6.83,2.39-.75,4.74,1.32,6,3.46,2.61,4.34,6.09,15.15.76,18.81s-18.78,4.24-24.53,1.68Z"/><path id="路径-2" data-name="路径" class="cls-2" d="M171.91,120.3c-1.93-4.41-1.88-11.53,2.5-14.35a1.63,1.63,0,0,1,.82,1.72s-2.33,13.9,3.42,4.37c2.73-4.49,4.78-9.32,8.2-13.35,6.28-7.34,14.65-3.35,9.4,6.25-.69,1.27-7.43,10.62-4.38,11.62a2.14,2.14,0,0,0,1.25-.08c2.73-.81,5.46-3.16,8-2,2.26,1,2.62,4.15,2.14,6.6-1,5-5.81,10.53-12.22,9.67s-16.64-4.67-19.16-10.43Z"/><path id="路径-3" data-name="路径" class="cls-3" d="M222.54,129.48c-25.76-17.68-62.18-28.7-102.54-28.7s-76.78,11-102.54,28.7Z"/><path id="形状结合" class="cls-4" d="M183.14,77.48c-1.63,2-2.68,5-1.7,7.55.67,1.79,2.71,1.8,2.57,4.29a8.07,8.07,0,0,1-1.25,3.48,26.34,26.34,0,0,1-4.21,5.53,4.86,4.86,0,0,1,1.83,4.5,8.09,8.09,0,0,1-2.31,4.49,3.24,3.24,0,0,1-1.36,1,3.47,3.47,0,0,1-1.57,0A27.45,27.45,0,0,1,167.8,106c-1.44-.69-2.92-1.64-3.41-3.14-.57-1.72.33-2.27,1.31-2.81l.25-.14a3.36,3.36,0,0,0,1.3-1.08c.72-1.18.74-2.75,1-4.06.37-1.93-.18-5.46,2.24-6.22.94-.29,2-.22,2.89-.52,2-.65,2.88-2.57,3.69-4.5l.15-.35a11.63,11.63,0,0,1,1.68-3C179.91,78.9,182.46,78.31,183.14,77.48ZM177.23,89s-7.36,8.58-7.12,16.52h2.38S173.35,95.9,177.23,89Z"/><path id="路径-4" data-name="路径" class="cls-5" d="M75.1,31.32h0a5.39,5.39,0,0,0-10.49-1.83,4.49,4.49,0,1,0,.14,9h9.9a3.59,3.59,0,0,0,.45-7.15Z"/><path id="路径-5" data-name="路径" class="cls-6" d="M116,25.89v0A6.73,6.73,0,0,0,103,23.61a5.62,5.62,0,0,0,.18,11.24h12.3a4.48,4.48,0,0,0,.56-8.93Z"/></g><path id="路径_120" data-name="路径 120" class="cls-7" d="M142.16,73.83l-1.39-.8h0l-1.3-.75h0l-2-1.14h0l-2.57-1.48h0l-3-1.73V78.6l1,.59s-.08,33-.08,33.17a2.84,2.84,0,0,1-.93,2.29h0l2.19-1.26h0l3.89-2.27,1.49-.87h0l1.18-.68.2-.12,0,0,0,0h0a2.05,2.05,0,0,0,.55-.47,3.09,3.09,0,0,0,.57-1.93C142.12,100.57,142.17,73.86,142.16,73.83Z"/><path id="路径_121" data-name="路径 121" class="cls-8" d="M132.94,79.2l-.1,33.18c0,2.35-1.68,3.31-3.73,2.12l-24.32-14a8.19,8.19,0,0,1-3.7-6.41l.09-33.19Z"/><path id="路径_122" data-name="路径 122" class="cls-9" d="M121.17,82.3a2.06,2.06,0,0,1,.93,1.6l0,14.94c0,.59-.42.83-.93.53a2,2,0,0,1-.92-1.6l0-14.94c0-.59.42-.83.93-.53Zm-10.12-5.82a2,2,0,0,1,.92,1.6l0,14.94c0,.59-.42.83-.93.53a2,2,0,0,1-.93-1.6l0-14.94c0-.59.43-.83.94-.53Z"/><path id="路径_123" data-name="路径 123" class="cls-10" d="M144.37,69.21v.08c.07-1.21-.69-2.44-2.29-3.36L112.17,48.66a12.16,12.16,0,0,0-11,0,3.83,3.83,0,0,0-2.25,3.18v.67c0,.55,0,5,0,6.69a3.12,3.12,0,0,0,.5,1.7,5.16,5.16,0,0,0,1.8,1.61l20.81,12,.13.08.13.07.12.07.1.06.54.31.12.07.15.08.13.08.09.05.51.29.13.08.13.08.15.09.1.06.53.3.13.08.11.06.12.07.14.08.73.42.16.09.14.08.14.08.13.08.14.08.15.08.13.07.13.08.28.17.13.07.52.3.13.08.15.08.13.08.09,0,.34.2.14.08.14.08.33.19.16.09.12.07.47.27.13.08.13.07.1.06.16.09.26.14.13.07.14.07.14.07c.21.1.42.19.64.27l.18.06.14,0,.15.05.09,0H133l.16,0a13.27,13.27,0,0,0,1.39.31l.14,0,.15,0,.13,0,.18,0h.15l.18,0h.18l.19,0h.89a12.2,12.2,0,0,0,3.65-.56,6.79,6.79,0,0,0,3.21-2,3.24,3.24,0,0,0,.74-1.55,4.41,4.41,0,0,0,0-.52l0-6.71V69.2Z"/><path id="路径_124" data-name="路径 124" class="cls-11" d="M131.93,114.66h0l-.17.11Z"/><path id="路径_125" data-name="路径 125" class="cls-12" d="M143.23,71.49a6.92,6.92,0,0,1-1.21.88h0l-.33.17-.27.12-.35.15h0l-.17.07-.11.05-.15,0h0l-.26.08h0l-.11,0h0l-.33.09-.2.06h0l-.13,0h0l-.14,0h0l-.2,0h0l-.21.05h0a13.2,13.2,0,0,1-1.66.2h-.9c-.21,0-.51,0-.75,0h0l-.34,0h-.09l-.25,0h0l-.52-.07h0l-.11,0h-.08l-.15,0-.5-.1-.22,0-.17,0h0l-.46-.13h0l-.14,0-.08,0h0l-.13,0,.22-4.56-.9-.52h0l-.27-.16-.37-.21h0l-1.83-1.06h0l-1.83-1.06h0l-1.83-1h0l-1.83-1.06h0l-1.82-1.06h0L110.4,55.49l-4.2,2.44-4.92-2.84a5.59,5.59,0,0,1-1.78-1.5,3.05,3.05,0,0,1-.61-1.77v.69c0,.55,0,5,0,6.69a3.07,3.07,0,0,0,.5,1.69,5.12,5.12,0,0,0,1.81,1.62l20.8,12h0l.2.12h0l.06,0h0l.23.13h0l.17.11h0l.37.2h0l.12.07h0l.25.15h0l.23.13h0l.37.22h0l0,0,.06,0h0l.13.08h0l.08.05.11.06h0l0,0,.06,0h0l.63.36h0l.19.11h0l0,0h0l.31.18h0l.57.33h0l.25.14h0l0,0h0l.14.09h0l.22.12h0l.17.1h0l0,0h0l.13.08h0l.32.18h0l.22.13h0l.11.06.49.29h0l0,0h0l.23.13h0l0,0h0l.21.12h0l.22.12h0l.24.14h0l.15.09h0l.23.13h0l.15.09h0l.23.14h0l.36.2h0l.13.08h0l.07,0h0l0,0h0l.18.11h0l.08,0a3.39,3.39,0,0,0,.38.2h0l.14.07h0l.32.15.47.19h0l.05,0,.22.08h0l.08,0,0,0h0l.09,0H133l.16,0h0l.07,0,.07,0h0a10.67,10.67,0,0,0,1.25.26h0l.14,0h0l.25,0h0l.29,0h0l.3,0h1.14a12.2,12.2,0,0,0,3.65-.56,6.87,6.87,0,0,0,3.21-2,3.24,3.24,0,0,0,.74-1.55,4.41,4.41,0,0,0,0-.52l0-6.71v-.57A3.34,3.34,0,0,1,143.23,71.49Z"/><path id="路径_126" data-name="路径 126" class="cls-10" d="M142.08,65.92c3,1.76,3.06,4.63,0,6.38a12.16,12.16,0,0,1-11,0L101.19,55c-3-1.76-3-4.63,0-6.38a12.16,12.16,0,0,1,11,0Z"/><path id="路径_127" data-name="路径 127" class="cls-13" d="M136.71,58.56v0h0c0-.19-.08-.39-.12-.56h0a5.36,5.36,0,0,0-.36-1.09h0a8.18,8.18,0,0,0-.55-1.11,2,2,0,0,0-.11-.2h0c-.08-.13-.15-.25-.24-.37h0a7,7,0,0,0-1-1.26h0a3.55,3.55,0,0,0-.46-.41l-.17-.13h0l-.32-.22h0l-.09-.06-.06,0h0l-1.23-.71h0l-.66-.38h0l-1-.57h0l-1.2-.69h0l-9.54-5.51a3.65,3.65,0,0,0-1.6-.56,2.12,2.12,0,0,0-1.16.25l-9.09,5.29-.12.07a2.7,2.7,0,0,1,2.64.25l13.62,7.87c.15.09.6.42.83.59s.65.63.89.89l.18.23c.16.22.57.83.74,1.11a10.91,10.91,0,0,1,.69,1.52.93.93,0,0,1,0,.13v0l.06.2a8.67,8.67,0,0,1,.22,1.13,6,6,0,0,1,0,.73c0,.49,0,1.61,0,2.52h0V69.1h0v.37l1.76-1h0l.79-.46h0l1.54-.9h0c2.46-1.43,5.12-3,5.12-3a0,0,0,0,0,0,0c0-.07,0-3.13,0-4.6v-.14h0A3.9,3.9,0,0,0,136.71,58.56Z"/><path id="路径_128" data-name="路径 128" class="cls-14" d="M123.84,58.37a8.23,8.23,0,0,1,3.71,6.41l0,4.7-21-12.16,0-4.69c0-2.35,1.68-3.3,3.72-2.12Z"/></svg>