<svg id="图层_1" data-name="图层 1" xmlns="http://www.w3.org/2000/svg" xmlns:xlink="http://www.w3.org/1999/xlink" viewBox="0 0 240 150"><defs><style>.cls-1{fill:url(#未命名的渐变);}.cls-2{fill:url(#未命名的渐变_2);}.cls-3{fill:url(#未命名的渐变_3);}.cls-4{fill:url(#未命名的渐变_4);}.cls-5{fill:url(#未命名的渐变_5);}.cls-6{fill:url(#未命名的渐变_6);}.cls-7{opacity:0.6;}.cls-11,.cls-8{opacity:0.2;}.cls-8{fill:url(#未命名的渐变_7);}.cls-10,.cls-12,.cls-9{opacity:0.5;}.cls-9{fill:url(#未命名的渐变_35);}.cls-10,.cls-15{fill:#fff;}.cls-11{fill:url(#未命名的渐变_30);}.cls-12{fill:url(#未命名的渐变_33);}.cls-13{opacity:0.8;}.cls-14{fill:url(#未命名的渐变_22);}</style><linearGradient id="未命名的渐变" x1="1801.75" y1="1162.78" x2="1802.39" y2="1161.2" gradientTransform="matrix(63.93, 0, 0, -65.41, -115162.17, 76069.2)" gradientUnits="userSpaceOnUse"><stop offset="0" stop-color="#d2d2d2"/><stop offset="1" stop-color="#d2d2d2" stop-opacity="0"/></linearGradient><linearGradient id="未命名的渐变_2" x1="1799.01" y1="1162.79" x2="1798.65" y2="1161.87" gradientTransform="matrix(59.26, 0, 0, -64.97, -106395.75, 75603.41)" xlink:href="#未命名的渐变"/><linearGradient id="未命名的渐变_3" x1="1826.34" y1="1164.92" x2="1826.34" y2="1163.14" gradientTransform="matrix(370.52, 0, 0, -51.85, -676571.3, 60440.36)" xlink:href="#未命名的渐变"/><linearGradient id="未命名的渐变_4" x1="1777.65" y1="1163.36" x2="1777.31" y2="1162.24" gradientTransform="matrix(35.77, 0, 0, -55.85, -63409.16, 65024.33)" xlink:href="#未命名的渐变"/><linearGradient id="未命名的渐变_5" x1="1774.96" y1="1171.19" x2="1774.96" y2="1169.36" gradientTransform="matrix(32.84, 0, 0, -22.82, -58217.39, 26721.24)" xlink:href="#未命名的渐变"/><linearGradient id="未命名的渐变_6" x1="1785.03" y1="1168.07" x2="1785.03" y2="1166.58" gradientTransform="matrix(40.65, 0, 0, -28.39, -72456.05, 33159.73)" xlink:href="#未命名的渐变"/><linearGradient id="未命名的渐变_7" x1="1801.48" y1="1159.47" x2="1801.49" y2="1159.24" gradientTransform="matrix(63.95, 0, 0, -113, -115066.44, 131090.09)" gradientUnits="userSpaceOnUse"><stop offset="0" stop-color="#e4e4e4"/><stop offset="1" stop-color="#e5e5e5"/></linearGradient><linearGradient id="未命名的渐变_35" x1="230.97" y1="85.21" x2="231.41" y2="85.21" gradientUnits="userSpaceOnUse"><stop offset="0.33" stop-color="#c5c5c5"/><stop offset="1" stop-color="#fff"/></linearGradient><linearGradient id="未命名的渐变_30" x1="1804.16" y1="1159.66" x2="1804.17" y2="1159.43" gradientTransform="matrix(69.19, 0, 0, -105, -124727.07, 121830.33)" gradientUnits="userSpaceOnUse"><stop offset="0" stop-color="#ececec"/><stop offset="1" stop-color="#e9e9e9"/></linearGradient><linearGradient id="未命名的渐变_33" x1="1804.19" y1="1159.74" x2="1804.19" y2="1159.25" gradientTransform="matrix(69.19, 0, 0, -105, -124730.23, 121829.33)" gradientUnits="userSpaceOnUse"><stop offset="0.84" stop-color="#c5c5c5"/><stop offset="1" stop-color="#fff"/></linearGradient><linearGradient id="未命名的渐变_22" x1="1801.64" y1="1163.08" x2="1801.64" y2="1162.55" gradientTransform="matrix(65, 0, 0, -55, -116975.04, 64053.38)" gradientUnits="userSpaceOnUse"><stop offset="0" stop-color="#fd9351"/><stop offset="1" stop-color="#fd763e"/></linearGradient></defs><g id="编组-2"><path id="路径" class="cls-1" d="M48.83,116.62c-4.38-2-9.13-7.29-7.78-12.3a1.63,1.63,0,0,1,1.76.69s7.6,11.87,5.47.95c-1-5.13-2.74-10.1-2.87-15.4C45.18,80.93,54,78.25,56.57,88.9c.33,1.41,1.62,12.85,4.54,11.54a2.1,2.1,0,0,0,.88-.89c1.48-2.43,1.92-6,4.64-6.83,2.39-.75,4.74,1.32,6,3.46,2.61,4.34,6.09,15.15.76,18.81s-18.78,4.24-24.53,1.68Z"/><path id="路径-2" data-name="路径" class="cls-2" d="M171.91,120.3c-1.93-4.41-1.88-11.53,2.5-14.35a1.63,1.63,0,0,1,.82,1.72s-2.33,13.9,3.42,4.37c2.73-4.49,4.78-9.32,8.2-13.35,6.28-7.34,14.65-3.35,9.4,6.25-.69,1.27-7.43,10.62-4.38,11.62a2.14,2.14,0,0,0,1.25-.08c2.73-.81,5.46-3.16,8-2,2.26,1,2.62,4.15,2.14,6.6-1,5-5.81,10.53-12.22,9.67s-16.64-4.67-19.16-10.43Z"/><path id="路径-3" data-name="路径" class="cls-3" d="M222.54,129.48c-25.76-17.68-62.18-28.7-102.54-28.7s-76.78,11-102.54,28.7Z"/><path id="形状结合" class="cls-4" d="M183.14,77.48c-1.63,2-2.68,5-1.7,7.55.67,1.79,2.71,1.8,2.57,4.29a8.07,8.07,0,0,1-1.25,3.48,26.34,26.34,0,0,1-4.21,5.53,4.86,4.86,0,0,1,1.83,4.5,8.09,8.09,0,0,1-2.31,4.49,3.24,3.24,0,0,1-1.36,1,3.47,3.47,0,0,1-1.57,0A27.45,27.45,0,0,1,167.8,106c-1.44-.69-2.92-1.64-3.41-3.14-.57-1.72.33-2.27,1.31-2.81l.25-.14a3.36,3.36,0,0,0,1.3-1.08c.72-1.18.74-2.75,1-4.06.37-1.93-.18-5.46,2.24-6.22.94-.29,2-.22,2.89-.52,2-.65,2.88-2.57,3.69-4.5l.15-.35a11.63,11.63,0,0,1,1.68-3C179.91,78.9,182.46,78.31,183.14,77.48ZM177.23,89s-7.36,8.58-7.12,16.52h2.38S173.35,95.9,177.23,89Z"/><path id="路径-4" data-name="路径" class="cls-5" d="M75.1,31.32h0a5.39,5.39,0,0,0-10.49-1.83,4.49,4.49,0,1,0,.14,9h9.9a3.59,3.59,0,0,0,.45-7.15Z"/><path id="路径-5" data-name="路径" class="cls-6" d="M116,25.89v0A6.73,6.73,0,0,0,103,23.61a5.62,5.62,0,0,0,.18,11.24h12.3a4.48,4.48,0,0,0,.56-8.93Z"/></g><g class="cls-7"><polygon id="路径-87" class="cls-8" points="140.4 55.87 158.36 61.21 146.97 115.61 124.55 107.18 133 96.3 128.9 73.82 140.4 55.87"/><polygon id="路径-87备份" class="cls-9" points="138.74 55.34 156.7 60.68 145.31 115.08 122.89 106.65 131.33 95.77 127.23 73.29 138.74 55.34"/><ellipse id="椭圆形" class="cls-10" cx="142.29" cy="72.26" rx="5.54" ry="6.34"/><polygon id="路径-15" class="cls-11" points="91.3 52.69 127.88 52.69 120.24 71.9 127.88 93.61 122.24 108.21 91.3 108.21 91.3 52.69"/><polygon id="路径-15备份" class="cls-12" points="89.63 52.16 126.21 52.16 118.58 71.37 126.21 93.08 120.57 107.68 89.63 107.68 89.63 52.16"/><polygon id="路径-65" class="cls-10" points="89.63 99.17 111.49 72.25 127.32 93.07 121.71 107.49 89.63 107.68 89.63 99.17"/><polygon id="路径-88" class="cls-10" points="146.17 109.89 133.45 86 129.34 88.08 130.84 96.28 122.33 106.88 144.93 115.08 146.17 109.89"/></g><g id="警告" class="cls-13"><path id="形状" class="cls-14" d="M118,113c-1.2,0-2.42,0-3.1-1.26s-.16-2.29.46-3.32q6.76-11.26,13.55-22.51c1.6-2.64,4.61-2.65,6.18,0q6.6,11.1,13.12,22.26a6.24,6.24,0,0,1,.74,2.76,2,2,0,0,1-2.07,2.07M134,96.34c0-1.43,0-2.86,0-4.29a2.2,2.2,0,0,0-2.2-2.19A2.1,2.1,0,0,0,129.67,92c0,2.81,0,5.61,0,8.42a2.15,2.15,0,1,0,4.29,0C134,99.1,134,97.72,134,96.34Zm-.07,10.41a2.13,2.13,0,0,0-4.26,0,2.13,2.13,0,0,0,4.26,0Z"/></g><g id="警告-2" data-name="警告" class="cls-13"><path id="形状-2" data-name="形状" class="cls-15" d="M134,96.34c0-1.43,0-2.86,0-4.29a2.2,2.2,0,0,0-2.2-2.19A2.1,2.1,0,0,0,129.67,92c0,2.81,0,5.61,0,8.42a2.15,2.15,0,1,0,4.29,0C134,99.1,134,97.72,134,96.34Zm-.07,10.41a2.13,2.13,0,0,0-4.26,0,2.13,2.13,0,0,0,4.26,0Z"/></g></svg>