<svg id="图层_1" data-name="图层 1" xmlns="http://www.w3.org/2000/svg" xmlns:xlink="http://www.w3.org/1999/xlink" viewBox="0 0 240 150"><defs><style>.cls-1{fill:url(#未命名的渐变);}.cls-2{fill:url(#未命名的渐变_2);}.cls-3{fill:url(#未命名的渐变_3);}.cls-4{fill:url(#未命名的渐变_4);}.cls-5{fill:url(#未命名的渐变_5);}.cls-6{fill:url(#未命名的渐变_6);}.cls-7{opacity:0.55;fill:url(#未命名的渐变_50);}.cls-8{opacity:0.4;fill:url(#未命名的渐变_49);}.cls-9{opacity:0.8;}.cls-10{fill:url(#未命名的渐变_51);}.cls-11{fill:url(#未命名的渐变_22);}</style><linearGradient id="未命名的渐变" x1="1801.75" y1="966.96" x2="1802.39" y2="965.38" gradientTransform="matrix(63.93, 0, 0, -65.41, -115162.17, 63261.07)" gradientUnits="userSpaceOnUse"><stop offset="0" stop-color="#d2d2d2"/><stop offset="1" stop-color="#d2d2d2" stop-opacity="0"/></linearGradient><linearGradient id="未命名的渐变_2" x1="1799.01" y1="966.95" x2="1798.65" y2="966.03" gradientTransform="matrix(59.26, 0, 0, -64.97, -106395.75, 62879.19)" xlink:href="#未命名的渐变"/><linearGradient id="未命名的渐变_3" x1="1826.34" y1="968.32" x2="1826.34" y2="966.54" gradientTransform="matrix(370.52, 0, 0, -51.85, -676571.3, 50246.62)" xlink:href="#未命名的渐变"/><linearGradient id="未命名的渐变_4" x1="1777.65" y1="967.03" x2="1777.31" y2="965.91" gradientTransform="matrix(35.77, 0, 0, -55.85, -63409.16, 54058.84)" xlink:href="#未命名的渐变"/><linearGradient id="未命名的渐变_5" x1="1774.96" y1="969.86" x2="1774.96" y2="968.04" gradientTransform="matrix(32.84, 0, 0, -22.82, -58217.39, 22127.33)" xlink:href="#未命名的渐变"/><linearGradient id="未命名的渐变_6" x1="1785.03" y1="968.4" x2="1785.03" y2="966.91" gradientTransform="matrix(40.65, 0, 0, -28.39, -72456.05, 27490.23)" xlink:href="#未命名的渐变"/><linearGradient id="未命名的渐变_50" x1="1818.24" y1="965.32" x2="1818.24" y2="964.75" gradientTransform="matrix(144, 0, 0, -99, -261704.38, 95613.64)" gradientUnits="userSpaceOnUse"><stop offset="0" stop-color="#e9e9e9"/><stop offset="1" stop-color="#ccc"/></linearGradient><linearGradient id="未命名的渐变_49" x1="1817.86" y1="965.29" x2="1817.86" y2="964.73" gradientTransform="matrix(140, 0, 0, -100, -254378.56, 96574.48)" gradientUnits="userSpaceOnUse"><stop offset="0" stop-color="#f2f2f2"/><stop offset="1" stop-color="#d8d8d8"/></linearGradient><linearGradient id="未命名的渐变_51" x1="1769.95" y1="965.67" x2="1769.95" y2="965.11" gradientTransform="matrix(31, 0, 0, -77, -54742.61, 74398.04)" gradientUnits="userSpaceOnUse"><stop offset="0" stop-color="#fd763e"/><stop offset="1" stop-color="#fd9351"/></linearGradient><linearGradient id="未命名的渐变_22" x1="1765.73" y1="965.7" x2="1765.73" y2="965.14" gradientTransform="matrix(29, 0, 0, -76, -51080.7, 73434.2)" gradientUnits="userSpaceOnUse"><stop offset="0" stop-color="#fd9351"/><stop offset="1" stop-color="#fd763e"/></linearGradient></defs><g id="编组-2"><path id="路径" class="cls-1" d="M48.83,116.62c-4.38-2-9.13-7.29-7.78-12.3a1.63,1.63,0,0,1,1.76.69s7.6,11.87,5.47.95c-1-5.13-2.74-10.1-2.87-15.4C45.18,80.93,54,78.25,56.57,88.9c.33,1.41,1.62,12.85,4.54,11.54a2.1,2.1,0,0,0,.88-.89c1.48-2.43,1.92-6,4.64-6.83,2.39-.75,4.74,1.32,6,3.46,2.61,4.34,6.09,15.15.76,18.81s-18.78,4.24-24.53,1.68Z"/><path id="路径-2" data-name="路径" class="cls-2" d="M171.91,120.3c-1.93-4.41-1.88-11.53,2.5-14.35a1.63,1.63,0,0,1,.82,1.72s-2.33,13.9,3.42,4.37c2.73-4.49,4.78-9.32,8.2-13.35,6.28-7.34,14.65-3.35,9.4,6.25-.69,1.27-7.43,10.62-4.38,11.62a2.14,2.14,0,0,0,1.25-.08c2.73-.81,5.46-3.16,8-2,2.26,1,2.62,4.15,2.14,6.6-1,5-5.81,10.53-12.22,9.67s-16.64-4.67-19.16-10.43Z"/><path id="路径-3" data-name="路径" class="cls-3" d="M222.54,129.48c-25.76-17.68-62.18-28.7-102.54-28.7s-76.78,11-102.54,28.7Z"/><path id="形状结合" class="cls-4" d="M183.14,77.48c-1.63,2-2.68,5-1.7,7.55.67,1.79,2.71,1.8,2.57,4.29a8.07,8.07,0,0,1-1.25,3.48,26.34,26.34,0,0,1-4.21,5.53,4.86,4.86,0,0,1,1.83,4.5,8.09,8.09,0,0,1-2.31,4.49,3.24,3.24,0,0,1-1.36,1,3.47,3.47,0,0,1-1.57,0A27.45,27.45,0,0,1,167.8,106c-1.44-.69-2.92-1.64-3.41-3.14-.57-1.72.33-2.27,1.31-2.81l.25-.14a3.36,3.36,0,0,0,1.3-1.08c.72-1.18.74-2.75,1-4.06.37-1.93-.18-5.46,2.24-6.22.94-.29,2-.22,2.89-.52,2-.65,2.88-2.57,3.69-4.5l.15-.35a11.63,11.63,0,0,1,1.68-3C179.91,78.9,182.46,78.31,183.14,77.48ZM177.23,89s-7.36,8.58-7.12,16.52h2.38S173.35,95.9,177.23,89Z"/><path id="路径-4" data-name="路径" class="cls-5" d="M75.1,31.32h0a5.39,5.39,0,0,0-10.49-1.83,4.49,4.49,0,1,0,.14,9h9.9a3.59,3.59,0,0,0,.45-7.15Z"/><path id="路径-5" data-name="路径" class="cls-6" d="M116,25.89v0A6.73,6.73,0,0,0,103,23.61a5.62,5.62,0,0,0,.18,11.24h12.3a4.48,4.48,0,0,0,.56-8.93Z"/></g><path id="形状结合-2" data-name="形状结合" class="cls-7" d="M118.56,99a5.07,5.07,0,0,1,7,0h0l-3.49,3.87ZM118,84.76l0,.23-2,10.69a9.49,9.49,0,0,0-.9.78h0l-7-7.2c2.71-2.7,6.39-3.8,9.89-4.5Zm7-.59c3.6.68,7.7,1.53,10.48,4.46h0l-7.2,7.83c-2-2.14-5.25-3.67-7.92-3.39h0l3.62-6.55ZM122.05,66l-1.39,9.22a27.8,27.8,0,0,0-18,8.34h0L95.29,76c5.24-5.35,12.37-7.92,19.11-9.44h0l-.24,1h4ZM133.5,67.2C139,69,145,71.29,149.4,75.67h0L142,83a30.55,30.55,0,0,0-13-7.74h0Zm.64-18.72c10,2.25,20.26,6.53,28.05,14.29h0l-7.37,7.36a50.36,50.36,0,0,0-18.25-11.9h0l2.13-3.45-4.87.35-2.47,0ZM118,47.3l-2.28,9.57A46.38,46.38,0,0,0,88.51,70.13h0L81.33,62.9c10-10,23.54-14.78,36.65-15.6Z"/><path id="形状结合-3" data-name="形状结合" class="cls-8" d="M118.56,98.47a3.77,3.77,0,0,1,5.82,0h0l-2.91,3.31Zm0-14.83,0,.24-1.93,10.68a8.17,8.17,0,0,0-.88.78h0l-6.46-6.6a18.11,18.11,0,0,1,9.32-5.1Zm6.51-.58a18.12,18.12,0,0,1,9.79,5.39h0l-6.53,6.89a8.93,8.93,0,0,0-7.44-2.81h0l3.16-7.13Zm-11.3-18.14-.24,1h7.94l-1.4,7.65a28.14,28.14,0,0,0-18.13,8.29h0l-6.68-6.73a37.67,37.67,0,0,1,18.51-10.24Zm19.85,1.17a37.46,37.46,0,0,1,15.22,9.2h0l-6.64,6.6a28.14,28.14,0,0,0-12.58-7.26h0Zm.61-19.3a54.81,54.81,0,0,1,26.84,15h0l-6.52,6.6A45.87,45.87,0,0,0,137,57.3h0l1.58-3.48h-4.88l-1.77,0Zm-15.67-1.17-2.29,9.56A46.53,46.53,0,0,0,89.05,68.43h0l-6.6-6.57a55.84,55.84,0,0,1,36.11-16.24Z"/><g class="cls-9"><polygon id="路径-6" data-name="路径" class="cls-10" points="123.36 41.63 133.59 41.13 128.44 57.08 134.68 56.47 120.95 84.37 125.98 63 117.27 62.5 123.36 41.63"/><polygon id="路径-7" data-name="路径" class="cls-11" points="122.32 41.13 132.41 41.13 127.36 56.56 133.55 56.56 121.02 83.81 124.92 62.47 117.27 62.47 122.32 41.13"/></g></svg>