<svg id="图层_1" data-name="图层 1" xmlns="http://www.w3.org/2000/svg" xmlns:xlink="http://www.w3.org/1999/xlink" viewBox="0 0 240 150"><defs><style>.cls-1{fill:url(#未命名的渐变);}.cls-2{fill:url(#未命名的渐变_2);}.cls-3{fill:url(#未命名的渐变_3);}.cls-4{fill:url(#未命名的渐变_4);}.cls-5{fill:url(#未命名的渐变_5);}.cls-6{fill:url(#未命名的渐变_6);}.cls-7{opacity:0.55;}.cls-8{fill:url(#未命名的渐变_79);}.cls-9{fill:url(#未命名的渐变_78);}.cls-10{fill:#cccaca;}.cls-11{fill:url(#未命名的渐变_77);}.cls-12{fill:url(#未命名的渐变_76);}.cls-13{fill:url(#未命名的渐变_75);}.cls-14{fill:url(#未命名的渐变_75-2);}.cls-15{opacity:0.7;}.cls-16{fill:#fff;}.cls-17{opacity:0.8;fill:url(#未命名的渐变_22);}</style><linearGradient id="未命名的渐变" x1="1538.57" y1="765.73" x2="1539.21" y2="764.15" gradientTransform="matrix(63.93, 0, 0, -65.41, -98337.16, 50099.61)" gradientUnits="userSpaceOnUse"><stop offset="0" stop-color="#d2d2d2"/><stop offset="1" stop-color="#d2d2d2" stop-opacity="0"/></linearGradient><linearGradient id="未命名的渐变_2" x1="1536.16" y1="765.71" x2="1535.8" y2="764.79" gradientTransform="matrix(59.26, 0, 0, -64.97, -90819.86, 49803.96)" xlink:href="#未命名的渐变"/><linearGradient id="未命名的渐变_3" x1="1559.69" y1="766.31" x2="1559.69" y2="764.53" gradientTransform="matrix(370.52, 0, 0, -51.85, -577775.72, 39771.68)" xlink:href="#未命名的渐变"/><linearGradient id="未命名的渐变_4" x1="1517.76" y1="765.29" x2="1517.43" y2="764.17" gradientTransform="matrix(35.77, 0, 0, -55.85, -54112.05, 42790.85)" xlink:href="#未命名的渐变"/><linearGradient id="未命名的渐变_5" x1="1515.74" y1="762.98" x2="1515.74" y2="761.15" gradientTransform="matrix(32.84, 0, 0, -22.82, -49705.03, 17406.69)" xlink:href="#未命名的渐变"/><linearGradient id="未命名的渐变_6" x1="1524.25" y1="763.23" x2="1524.25" y2="761.74" gradientTransform="matrix(40.65, 0, 0, -28.39, -61854.64, 21664.32)" xlink:href="#未命名的渐变"/><linearGradient id="未命名的渐变_79" x1="1501.32" y1="763.8" x2="1501.36" y2="763.68" gradientTransform="matrix(26, 0, 0, -12, -38925.77, 9269.57)" gradientUnits="userSpaceOnUse"><stop offset="0" stop-color="#cbcbcb" stop-opacity="0"/><stop offset="1" stop-color="#595959" stop-opacity="0.5"/></linearGradient><linearGradient id="未命名的渐变_78" x1="1548.07" y1="764.5" x2="1548.05" y2="765.1" gradientTransform="matrix(102, 0, 0, -102, -157788.66, 78088.14)" gradientUnits="userSpaceOnUse"><stop offset="0" stop-color="#cbc9c9"/><stop offset="1" stop-color="#e9e9e9"/></linearGradient><linearGradient id="未命名的渐变_77" x1="1548.04" y1="764.54" x2="1548.04" y2="765.08" gradientTransform="matrix(102, 0, 0, -102, -157783.66, 78088.14)" gradientUnits="userSpaceOnUse"><stop offset="0" stop-color="#d3d3d3"/><stop offset="1" stop-color="#f3f3f3"/></linearGradient><linearGradient id="未命名的渐变_76" x1="1467.77" y1="762.58" x2="1467.77" y2="763.17" gradientTransform="matrix(17, 0, 0, -17, -24835.45, 13040.83)" gradientUnits="userSpaceOnUse"><stop offset="0" stop-color="#c4c2c2"/><stop offset="1" stop-color="#dbdbdb"/></linearGradient><linearGradient id="未命名的渐变_75" x1="1468.3" y1="762.58" x2="1468.3" y2="763.17" gradientTransform="matrix(17, 0, 0, -17, -24857.45, 13040.83)" gradientUnits="userSpaceOnUse"><stop offset="0" stop-color="#c4c2c2"/><stop offset="1" stop-color="#dadada"/></linearGradient><linearGradient id="未命名的渐变_75-2" x1="1467.26" y1="762.58" x2="1467.26" y2="763.17" gradientTransform="matrix(17, 0, 0, -17, -24814.45, 13040.83)" xlink:href="#未命名的渐变_75"/><linearGradient id="未命名的渐变_22" x1="131.44" y1="97.37" x2="155.28" y2="97.37" gradientUnits="userSpaceOnUse"><stop offset="0" stop-color="#fd9351"/><stop offset="1" stop-color="#fd763e"/></linearGradient></defs><g id="编组-2"><path id="路径" class="cls-1" d="M48.83,116.62c-4.38-2-9.13-7.29-7.78-12.3a1.63,1.63,0,0,1,1.76.69s7.6,11.87,5.47.95c-1-5.13-2.74-10.1-2.87-15.4C45.18,80.93,54,78.25,56.57,88.9c.33,1.41,1.62,12.85,4.54,11.54a2.1,2.1,0,0,0,.88-.89c1.48-2.43,1.92-6,4.64-6.83,2.39-.75,4.74,1.32,6,3.46,2.61,4.34,6.09,15.15.76,18.81s-18.78,4.24-24.53,1.68Z"/><path id="路径-2" data-name="路径" class="cls-2" d="M171.91,120.3c-1.93-4.41-1.88-11.53,2.5-14.35a1.63,1.63,0,0,1,.82,1.72s-2.33,13.9,3.42,4.37c2.73-4.49,4.78-9.32,8.2-13.35,6.28-7.34,14.65-3.35,9.4,6.25-.69,1.27-7.43,10.62-4.38,11.62a2.14,2.14,0,0,0,1.25-.08c2.73-.81,5.46-3.16,8-2,2.26,1,2.62,4.15,2.14,6.6-1,5-5.81,10.53-12.22,9.67s-16.64-4.67-19.16-10.43Z"/><path id="路径-3" data-name="路径" class="cls-3" d="M222.54,129.48c-25.76-17.68-62.18-28.7-102.54-28.7s-76.78,11-102.54,28.7Z"/><path id="形状结合" class="cls-4" d="M183.14,77.48c-1.63,2-2.68,5-1.7,7.55.67,1.79,2.71,1.8,2.57,4.29a8.07,8.07,0,0,1-1.25,3.48,26.34,26.34,0,0,1-4.21,5.53,4.86,4.86,0,0,1,1.83,4.5,8.09,8.09,0,0,1-2.31,4.49,3.24,3.24,0,0,1-1.36,1,3.47,3.47,0,0,1-1.57,0A27.45,27.45,0,0,1,167.8,106c-1.44-.69-2.92-1.64-3.41-3.14-.57-1.72.33-2.27,1.31-2.81l.25-.14a3.36,3.36,0,0,0,1.3-1.08c.72-1.18.74-2.75,1-4.06.37-1.93-.18-5.46,2.24-6.22.94-.29,2-.22,2.89-.52,2-.65,2.88-2.57,3.69-4.5l.15-.35a11.63,11.63,0,0,1,1.68-3C179.91,78.9,182.46,78.31,183.14,77.48ZM177.23,89s-7.36,8.58-7.12,16.52h2.38S173.35,95.9,177.23,89Z"/><path id="路径-4" data-name="路径" class="cls-5" d="M75.1,31.32h0a5.39,5.39,0,0,0-10.49-1.83,4.49,4.49,0,1,0,.14,9h9.9a3.59,3.59,0,0,0,.45-7.15Z"/><path id="路径-5" data-name="路径" class="cls-6" d="M116,25.89v0A6.73,6.73,0,0,0,103,23.61a5.62,5.62,0,0,0,.18,11.24h12.3a4.48,4.48,0,0,0,.56-8.93Z"/></g><g class="cls-7"><polygon id="矩形" class="cls-8" points="101.01 100.42 108.95 100.42 116.3 107.47 113.73 107.35 101.01 100.42"/><path id="形状结合-2" data-name="形状结合" class="cls-9" d="M113.36,47.48c16.57,0,30,11.7,30,26.13,0,12.14-9.5,22.35-22.38,25.29l-6.23,8.15a1,1,0,0,1-.2.2,1.06,1.06,0,0,1-1.5-.2h0l-6-7.88c-13.52-2.54-23.65-13-23.65-25.56C83.36,59.18,96.79,47.48,113.36,47.48Z"/><polygon id="矩形-2" data-name="矩形" class="cls-10" points="113.95 105.12 115.71 105.12 115.71 107.47 113.95 107.47 113.95 105.12"/><path id="形状结合-3" data-name="形状结合" class="cls-11" d="M116.3,47.48c16.57,0,30,11.7,30,26.13,0,12.41-9.92,22.8-23.23,25.47l-6.1,8a.64.64,0,0,1-.2.2,1.06,1.06,0,0,1-1.5-.2l-6.16-8C96,96.19,86.3,85.89,86.3,73.61,86.3,59.18,99.73,47.48,116.3,47.48Z"/><circle id="椭圆形" class="cls-12" cx="116.6" cy="71.89" r="5"/><circle id="椭圆形备份-3" class="cls-13" cx="103.65" cy="71.89" r="5"/><circle id="椭圆形备份-5" class="cls-14" cx="128.95" cy="71.89" r="5"/></g><g class="cls-15"><ellipse id="椭圆形-2" data-name="椭圆形" class="cls-16" cx="115.42" cy="72.18" rx="4.41" ry="4.12"/><ellipse id="椭圆形备份-4" class="cls-16" cx="102.48" cy="72.18" rx="4.41" ry="4.12"/><ellipse id="椭圆形备份-6" class="cls-16" cx="128.36" cy="72.18" rx="4.41" ry="4.12"/></g><path id="形状" class="cls-17" d="M155.28,87.67V90.1c0,2.14-5.33,3.88-11.92,3.88s-11.92-1.74-11.92-3.88V87.67c0-2.15,5.33-3.89,11.92-3.89S155.28,85.52,155.28,87.67Zm0,5.38v5.48c0,2.14-5.33,3.89-11.92,3.89s-11.92-1.75-11.92-3.89V93.05c2.56,1.76,7.25,2.59,11.92,2.59S152.72,94.82,155.28,93.05Zm0,8.54v5.47c0,2.15-5.33,3.89-11.92,3.89s-11.92-1.74-11.92-3.89v-5.47c2.56,1.76,7.25,2.58,11.92,2.58S152.72,103.35,155.28,101.59Z"/></svg>