<svg id="图层_1" data-name="图层 1" xmlns="http://www.w3.org/2000/svg" xmlns:xlink="http://www.w3.org/1999/xlink" viewBox="0 0 240 150"><defs><style>.cls-1{fill:url(#未命名的渐变);}.cls-2{fill:url(#未命名的渐变_2);}.cls-3{fill:url(#未命名的渐变_3);}.cls-4{fill:url(#未命名的渐变_4);}.cls-5{fill:url(#未命名的渐变_5);}.cls-6{fill:url(#未命名的渐变_6);}.cls-10,.cls-11,.cls-7,.cls-9{opacity:0.55;}.cls-7{fill:url(#未命名的渐变_54);}.cls-11,.cls-13,.cls-8{fill:#fff;}.cls-8{opacity:0.2;isolation:isolate;}.cls-9{fill:url(#未命名的渐变_53);}.cls-10{fill:#b5b5b5;}.cls-12,.cls-13{opacity:0.8;}.cls-12{fill:url(#未命名的渐变_22);}</style><linearGradient id="未命名的渐变" x1="1538.57" y1="966.96" x2="1539.21" y2="965.38" gradientTransform="matrix(63.93, 0, 0, -65.41, -98337.16, 63261.07)" gradientUnits="userSpaceOnUse"><stop offset="0" stop-color="#d2d2d2"/><stop offset="1" stop-color="#d2d2d2" stop-opacity="0"/></linearGradient><linearGradient id="未命名的渐变_2" x1="1536.16" y1="966.95" x2="1535.8" y2="966.03" gradientTransform="matrix(59.26, 0, 0, -64.97, -90819.86, 62879.19)" xlink:href="#未命名的渐变"/><linearGradient id="未命名的渐变_3" x1="1559.69" y1="968.32" x2="1559.69" y2="966.54" gradientTransform="matrix(370.52, 0, 0, -51.85, -577775.72, 50246.62)" xlink:href="#未命名的渐变"/><linearGradient id="未命名的渐变_4" x1="1517.76" y1="967.03" x2="1517.43" y2="965.91" gradientTransform="matrix(35.77, 0, 0, -55.85, -54112.05, 54058.84)" xlink:href="#未命名的渐变"/><linearGradient id="未命名的渐变_5" x1="1515.74" y1="969.86" x2="1515.74" y2="968.04" gradientTransform="matrix(32.84, 0, 0, -22.82, -49705.03, 22127.33)" xlink:href="#未命名的渐变"/><linearGradient id="未命名的渐变_6" x1="1524.25" y1="968.4" x2="1524.25" y2="966.91" gradientTransform="matrix(40.65, 0, 0, -28.39, -61854.64, 27490.23)" xlink:href="#未命名的渐变"/><linearGradient id="未命名的渐变_54" x1="120.76" y1="45.13" x2="120.76" y2="104.33" gradientUnits="userSpaceOnUse"><stop offset="0" stop-color="#f3f3f3"/><stop offset="1" stop-color="#c5c5c5"/></linearGradient><linearGradient id="未命名的渐变_53" x1="1553.38" y1="989.83" x2="1553.1" y2="989.85" gradientTransform="matrix(149.38, 0, 0, -6.86, -231905.94, 6888.5)" gradientUnits="userSpaceOnUse"><stop offset="0" stop-color="#c5c5c5"/><stop offset="1" stop-color="#e6e6e6"/></linearGradient><linearGradient id="未命名的渐变_22" x1="1540.91" y1="966.08" x2="1541.28" y2="965.46" gradientTransform="matrix(71.68, 0, 0, -71.68, -110310.26, 69318.77)" gradientUnits="userSpaceOnUse"><stop offset="0" stop-color="#fd9351"/><stop offset="1" stop-color="#fd763e"/></linearGradient></defs><g id="编组-2"><path id="路径" class="cls-1" d="M48.83,116.62c-4.38-2-9.13-7.29-7.78-12.3a1.63,1.63,0,0,1,1.76.69s7.6,11.87,5.47.95c-1-5.13-2.74-10.1-2.87-15.4C45.18,80.93,54,78.25,56.57,88.9c.33,1.41,1.62,12.85,4.54,11.54a2.1,2.1,0,0,0,.88-.89c1.48-2.43,1.92-6,4.64-6.83,2.39-.75,4.74,1.32,6,3.46,2.61,4.34,6.09,15.15.76,18.81s-18.78,4.24-24.53,1.68Z"/><path id="路径-2" data-name="路径" class="cls-2" d="M171.91,120.3c-1.93-4.41-1.88-11.53,2.5-14.35a1.63,1.63,0,0,1,.82,1.72s-2.33,13.9,3.42,4.37c2.73-4.49,4.78-9.32,8.2-13.35,6.28-7.34,14.65-3.35,9.4,6.25-.69,1.27-7.43,10.62-4.38,11.62a2.14,2.14,0,0,0,1.25-.08c2.73-.81,5.46-3.16,8-2,2.26,1,2.62,4.15,2.14,6.6-1,5-5.81,10.53-12.22,9.67s-16.64-4.67-19.16-10.43Z"/><path id="路径-3" data-name="路径" class="cls-3" d="M222.54,129.48c-25.76-17.68-62.18-28.7-102.54-28.7s-76.78,11-102.54,28.7Z"/><path id="形状结合" class="cls-4" d="M183.14,77.48c-1.63,2-2.68,5-1.7,7.55.67,1.79,2.71,1.8,2.57,4.29a8.07,8.07,0,0,1-1.25,3.48,26.34,26.34,0,0,1-4.21,5.53,4.86,4.86,0,0,1,1.83,4.5,8.09,8.09,0,0,1-2.31,4.49,3.24,3.24,0,0,1-1.36,1,3.47,3.47,0,0,1-1.57,0A27.45,27.45,0,0,1,167.8,106c-1.44-.69-2.92-1.64-3.41-3.14-.57-1.72.33-2.27,1.31-2.81l.25-.14a3.36,3.36,0,0,0,1.3-1.08c.72-1.18.74-2.75,1-4.06.37-1.93-.18-5.46,2.24-6.22.94-.29,2-.22,2.89-.52,2-.65,2.88-2.57,3.69-4.5l.15-.35a11.63,11.63,0,0,1,1.68-3C179.91,78.9,182.46,78.31,183.14,77.48ZM177.23,89s-7.36,8.58-7.12,16.52h2.38S173.35,95.9,177.23,89Z"/><path id="路径-4" data-name="路径" class="cls-5" d="M75.1,31.32h0a5.39,5.39,0,0,0-10.49-1.83,4.49,4.49,0,1,0,.14,9h9.9a3.59,3.59,0,0,0,.45-7.15Z"/><path id="路径-5" data-name="路径" class="cls-6" d="M116,25.89v0A6.73,6.73,0,0,0,103,23.61a5.62,5.62,0,0,0,.18,11.24h12.3a4.48,4.48,0,0,0,.56-8.93Z"/></g><path id="路径-6" data-name="路径" class="cls-7" d="M88.36,50.81h64.79a3.33,3.33,0,0,1,3.34,3.34v44.2a3.33,3.33,0,0,1-3.34,3.34H88.36A3.33,3.33,0,0,1,85,98.35V54.13A3.34,3.34,0,0,1,88.36,50.81Z"/><path id="路径-7" data-name="路径" class="cls-8" d="M90.62,54.51h61A1.32,1.32,0,0,1,153,55.84V99.09H89.28V55.85a1.33,1.33,0,0,1,1.34-1.34Z"/><path id="路径-8" data-name="路径" class="cls-9" d="M80.72,98.63h80.75a3.87,3.87,0,0,1-4,3.71H84.72a3.88,3.88,0,0,1-2.77-1A3.83,3.83,0,0,1,80.72,98.63Z"/><path id="路径-9" data-name="路径" class="cls-10" d="M107.63,98.63h24.25c0,1.25-.74,2.26-1.66,2.26H109.31C108.37,100.88,107.63,99.87,107.63,98.63Z"/><path id="形状" class="cls-11" d="M127.09,88a1,1,0,0,1-1-.89V72.93a1,1,0,0,1,1-.88h5a1,1,0,0,1,1,.88V87.06a1,1,0,0,1-1,.88Zm-10.9-.88V66.54a1,1,0,0,1,1-.88h5a.94.94,0,0,1,.72.22.92.92,0,0,1,.36.66V87.06a1,1,0,0,1-1,.88h-5a.94.94,0,0,1-.72-.22,1,1,0,0,1-.36-.66Zm-9.8,0V76.43a1,1,0,0,1,1-.87h5a1,1,0,0,1,1,.87V87.06a.92.92,0,0,1-.33.66,1,1,0,0,1-.71.24h-5a1,1,0,0,1-1-.9Z"/><circle id="椭圆形" class="cls-12" cx="153.55" cy="92.35" r="19.37"/><circle id="椭圆形-2" data-name="椭圆形" class="cls-13" cx="143.53" cy="92.35" r="3.08"/><circle id="椭圆形-3" data-name="椭圆形" class="cls-13" cx="153.55" cy="92.35" r="3.08"/><circle id="椭圆形-4" data-name="椭圆形" class="cls-13" cx="163.54" cy="92.35" r="3.08"/></svg>