<svg id="图层_1" data-name="图层 1" xmlns="http://www.w3.org/2000/svg" xmlns:xlink="http://www.w3.org/1999/xlink" viewBox="0 0 240 150"><defs><style>.cls-1{fill:url(#未命名的渐变);}.cls-2{fill:url(#未命名的渐变_2);}.cls-3{fill:url(#未命名的渐变_3);}.cls-4{fill:url(#未命名的渐变_4);}.cls-5{fill:url(#未命名的渐变_5);}.cls-6{fill:url(#未命名的渐变_6);}.cls-7{opacity:0.55;}.cls-8{fill:url(#未命名的渐变_70);}.cls-9{fill:url(#未命名的渐变_69);}.cls-10{fill:url(#未命名的渐变_68);}.cls-11{opacity:0.7;}.cls-12,.cls-15{fill:#fff;}.cls-13{fill:url(#未命名的渐变_22);}.cls-14{opacity:0.36;fill:url(#未命名的渐变_22-2);}.cls-15{opacity:0.4;isolation:isolate;}.cls-16{fill:url(#未命名的渐变_22-3);}.cls-17{fill:url(#未命名的渐变_22-4);}</style><linearGradient id="未命名的渐变" x1="2062.31" y1="765.73" x2="2062.95" y2="764.15" gradientTransform="matrix(63.93, 0, 0, -65.41, -131819.77, 50099.61)" gradientUnits="userSpaceOnUse"><stop offset="0" stop-color="#d2d2d2"/><stop offset="1" stop-color="#d2d2d2" stop-opacity="0"/></linearGradient><linearGradient id="未命名的渐变_2" x1="2059.24" y1="765.71" x2="2058.89" y2="764.79" gradientTransform="matrix(59.26, 0, 0, -64.97, -121816.66, 49803.96)" xlink:href="#未命名的渐变"/><linearGradient id="未命名的渐变_3" x1="2090.32" y1="766.31" x2="2090.32" y2="764.53" gradientTransform="matrix(370.52, 0, 0, -51.85, -774383.84, 39771.68)" xlink:href="#未命名的渐变"/><linearGradient id="未命名的渐变_4" x1="2034.96" y1="765.29" x2="2034.62" y2="764.17" gradientTransform="matrix(35.77, 0, 0, -55.85, -72613.77, 42790.85)" xlink:href="#未命名的渐变"/><linearGradient id="未命名的渐变_5" x1="2031.6" y1="762.98" x2="2031.6" y2="761.15" gradientTransform="matrix(32.84, 0, 0, -22.82, -66645.05, 17406.69)" xlink:href="#未命名的渐变"/><linearGradient id="未命名的渐变_6" x1="2043.22" y1="763.23" x2="2043.22" y2="761.74" gradientTransform="matrix(40.65, 0, 0, -28.39, -82951.98, 21664.32)" xlink:href="#未命名的渐变"/><linearGradient id="未命名的渐变_70" x1="2009.06" y1="764" x2="2009.06" y2="763.6" gradientTransform="matrix(25, 0, 0, -33, -50081.75, 25256.24)" gradientUnits="userSpaceOnUse"><stop offset="0" stop-color="#d7d7d7"/><stop offset="1" stop-color="#e4e4e4"/></linearGradient><linearGradient id="未命名的渐变_69" x1="2076.19" y1="765.2" x2="2076.19" y2="764.72" gradientTransform="matrix(108, 0, 0, -132, -224105.23, 101043.67)" gradientUnits="userSpaceOnUse"><stop offset="0" stop-color="#f4f4f4"/><stop offset="0.96" stop-color="#ddddde"/></linearGradient><linearGradient id="未命名的渐变_68" x1="2075.09" y1="764.87" x2="2075.09" y2="765.31" gradientTransform="matrix(102, 0, 0, -30, -211544.31, 23049.29)" gradientUnits="userSpaceOnUse"><stop offset="0" stop-color="#eaeaea"/><stop offset="1" stop-color="#efeff0"/></linearGradient><linearGradient id="未命名的渐变_22" x1="2054.05" y1="764.86" x2="2054.14" y2="764.86" gradientTransform="matrix(51.68, 0, 0, -52.62, -106012.79, 40327.23)" gradientUnits="userSpaceOnUse"><stop offset="0" stop-color="#fd9351"/><stop offset="1" stop-color="#fd763e"/></linearGradient><linearGradient id="未命名的渐变_22-2" x1="2049.42" y1="764.82" x2="2049.93" y2="764.82" gradientTransform="matrix(46.77, 0, 0, -46.77, -95713.16, 35849.68)" xlink:href="#未命名的渐变_22"/><linearGradient id="未命名的渐变_22-3" x1="1973.23" y1="829.59" x2="1973.22" y2="829.03" gradientTransform="matrix(8.32, -8.88, -18.23, -17.09, -1148.98, 31793.4)" xlink:href="#未命名的渐变_22"/><linearGradient id="未命名的渐变_22-4" x1="1803.37" y1="937.73" x2="1803.38" y2="936.74" gradientTransform="matrix(3.49, -3.73, -6.77, -6.34, 187.3, 12759.48)" xlink:href="#未命名的渐变_22"/></defs><g id="编组-2"><path id="路径" class="cls-1" d="M48.83,116.62c-4.38-2-9.13-7.29-7.78-12.3a1.63,1.63,0,0,1,1.76.69s7.6,11.87,5.47.95c-1-5.13-2.74-10.1-2.87-15.4C45.18,80.93,54,78.25,56.57,88.9c.33,1.41,1.62,12.85,4.54,11.54a2.1,2.1,0,0,0,.88-.89c1.48-2.43,1.92-6,4.64-6.83,2.39-.75,4.74,1.32,6,3.46,2.61,4.34,6.09,15.15.76,18.81s-18.78,4.24-24.53,1.68Z"/><path id="路径-2" data-name="路径" class="cls-2" d="M171.91,120.3c-1.93-4.41-1.88-11.53,2.5-14.35a1.63,1.63,0,0,1,.82,1.72s-2.33,13.9,3.42,4.37c2.73-4.49,4.78-9.32,8.2-13.35,6.28-7.34,14.65-3.35,9.4,6.25-.69,1.27-7.43,10.62-4.38,11.62a2.14,2.14,0,0,0,1.25-.08c2.73-.81,5.46-3.16,8-2,2.26,1,2.62,4.15,2.14,6.6-1,5-5.81,10.53-12.22,9.67s-16.64-4.67-19.16-10.43Z"/><path id="路径-3" data-name="路径" class="cls-3" d="M222.54,129.48c-25.76-17.68-62.18-28.7-102.54-28.7s-76.78,11-102.54,28.7Z"/><path id="形状结合" class="cls-4" d="M183.14,77.48c-1.63,2-2.68,5-1.7,7.55.67,1.79,2.71,1.8,2.57,4.29a8.07,8.07,0,0,1-1.25,3.48,26.34,26.34,0,0,1-4.21,5.53,4.86,4.86,0,0,1,1.83,4.5,8.09,8.09,0,0,1-2.31,4.49,3.24,3.24,0,0,1-1.36,1,3.47,3.47,0,0,1-1.57,0A27.45,27.45,0,0,1,167.8,106c-1.44-.69-2.92-1.64-3.41-3.14-.57-1.72.33-2.27,1.31-2.81l.25-.14a3.36,3.36,0,0,0,1.3-1.08c.72-1.18.74-2.75,1-4.06.37-1.93-.18-5.46,2.24-6.22.94-.29,2-.22,2.89-.52,2-.65,2.88-2.57,3.69-4.5l.15-.35a11.63,11.63,0,0,1,1.68-3C179.91,78.9,182.46,78.31,183.14,77.48ZM177.23,89s-7.36,8.58-7.12,16.52h2.38S173.35,95.9,177.23,89Z"/><path id="路径-4" data-name="路径" class="cls-5" d="M75.1,31.32h0a5.39,5.39,0,0,0-10.49-1.83,4.49,4.49,0,1,0,.14,9h9.9a3.59,3.59,0,0,0,.45-7.15Z"/><path id="路径-5" data-name="路径" class="cls-6" d="M116,25.89v0A6.73,6.73,0,0,0,103,23.61a5.62,5.62,0,0,0,.18,11.24h12.3a4.48,4.48,0,0,0,.56-8.93Z"/></g><g class="cls-7"><path id="路径-6" data-name="路径" class="cls-8" d="M138.46,43h11.63c.16,0,.12.11.23.22s.13.26.13.46l.78,16.19H138.45V43Z"/><path id="路径-7" data-name="路径" class="cls-9" d="M95.5,46.22V104.4h36.56c4.78,0,8.66-4.18,8.66-9.32V49.61c0-3.25,1.82-6.07,4.83-6.17a4.28,4.28,0,0,1,3.5,1.67,6.16,6.16,0,0,1,1.67,4.26V46.22c0-5.15-2.85-9.32-7.64-9.32H104.16C99.38,36.9,95.5,41.07,95.5,46.22Z"/><path id="路径-8" data-name="路径" class="cls-10" d="M135.33,99c-3-.09-5.34-2.94-5.34-6.21V89.06H88.85v6.82c0,4.7,3.52,8.52,7.87,8.52h36.43c4.34,0,7.86-3.82,7.86-8.52V93.07a6.21,6.21,0,0,1-1.67,4.29,5.27,5.27,0,0,1-4,1.68Z"/></g><g class="cls-11"><rect id="矩形" class="cls-12" x="102.66" y="48.66" width="30.17" height="3.07" rx="1.02"/><rect id="矩形-2" data-name="矩形" class="cls-12" x="102.66" y="58.38" width="30.17" height="3.07" rx="1.02"/><rect id="矩形-3" data-name="矩形" class="cls-12" x="102.66" y="68.09" width="30.17" height="3.07" rx="1.02"/><rect id="矩形-4" data-name="矩形" class="cls-12" x="102.66" y="77.81" width="18.92" height="3.07" rx="1.02"/></g><g id="椭圆形"><path class="cls-13" d="M140.93,98.62a16.06,16.06,0,1,1,15.81-16.05A16,16,0,0,1,140.93,98.62Zm0-26.9a10.85,10.85,0,1,0,10.6,10.85A10.74,10.74,0,0,0,140.93,71.72Z"/></g><circle id="椭圆形-2" data-name="椭圆形" class="cls-14" cx="140.93" cy="82.57" r="11.96"/><circle id="椭圆形-3" data-name="椭圆形" class="cls-15" cx="141.01" cy="82.57" r="11.96"/><path id="路径-9" data-name="路径" class="cls-12" d="M134,84.16h0a2.42,2.42,0,0,1-2.41-2.4,9.77,9.77,0,0,1,2.6-6.5,8.6,8.6,0,0,1,6.25-2.35,2.43,2.43,0,0,1,0,4.85c-2.2,0-3,1-3.37,1.73a5.63,5.63,0,0,0-.6,2.27A2.43,2.43,0,0,1,134,84.16Z"/><polygon id="矩形-5" data-name="矩形" class="cls-16" points="151 97.89 155.25 93.35 164.57 102.09 160.32 106.63 151 97.89"/><polygon id="矩形-6" data-name="矩形" class="cls-17" points="149.62 94.13 151.41 92.22 154.87 95.46 153.08 97.37 149.62 94.13"/></svg>