<svg id="图层_1" data-name="图层 1" xmlns="http://www.w3.org/2000/svg" xmlns:xlink="http://www.w3.org/1999/xlink" viewBox="0 0 240 150"><defs><style>.cls-1{fill:url(#未命名的渐变);}.cls-2{fill:url(#未命名的渐变_2);}.cls-3{fill:url(#未命名的渐变_3);}.cls-4{fill:url(#未命名的渐变_4);}.cls-5{fill:url(#未命名的渐变_5);}.cls-6{fill:url(#未命名的渐变_6);}.cls-7{opacity:0.55;}.cls-8{fill:url(#未命名的渐变_61);}.cls-9{fill:url(#未命名的渐变_59);}.cls-10{fill:url(#未命名的渐变_58);}.cls-11{fill:url(#未命名的渐变_60);}.cls-12{fill:url(#未命名的渐变_59-2);}.cls-13{fill:url(#未命名的渐变_58-2);}.cls-14,.cls-15,.cls-16{opacity:0.8;}.cls-14{fill:url(#未命名的渐变_22);}.cls-15{fill:url(#未命名的渐变_22-2);}.cls-16{fill:url(#未命名的渐变_22-3);}</style><linearGradient id="未命名的渐变" x1="1538.57" y1="1162.78" x2="1539.21" y2="1161.2" gradientTransform="matrix(63.93, 0, 0, -65.41, -98337.16, 76069.2)" gradientUnits="userSpaceOnUse"><stop offset="0" stop-color="#d2d2d2"/><stop offset="1" stop-color="#d2d2d2" stop-opacity="0"/></linearGradient><linearGradient id="未命名的渐变_2" x1="1536.16" y1="1162.79" x2="1535.8" y2="1161.87" gradientTransform="matrix(59.26, 0, 0, -64.97, -90819.86, 75603.41)" xlink:href="#未命名的渐变"/><linearGradient id="未命名的渐变_3" x1="1559.69" y1="1164.92" x2="1559.69" y2="1163.14" gradientTransform="matrix(370.52, 0, 0, -51.85, -577775.72, 60440.36)" xlink:href="#未命名的渐变"/><linearGradient id="未命名的渐变_4" x1="1517.76" y1="1163.36" x2="1517.43" y2="1162.24" gradientTransform="matrix(35.77, 0, 0, -55.85, -54112.05, 65024.33)" xlink:href="#未命名的渐变"/><linearGradient id="未命名的渐变_5" x1="1515.74" y1="1171.19" x2="1515.74" y2="1169.36" gradientTransform="matrix(32.84, 0, 0, -22.82, -49705.03, 26721.24)" xlink:href="#未命名的渐变"/><linearGradient id="未命名的渐变_6" x1="1524.25" y1="1168.07" x2="1524.25" y2="1166.58" gradientTransform="matrix(40.65, 0, 0, -28.39, -61854.64, 33159.73)" xlink:href="#未命名的渐变"/><linearGradient id="未命名的渐变_61" x1="1472.05" y1="1160.41" x2="1472.07" y2="1159.77" gradientTransform="matrix(17.93, 0, 0, -93.03, -26254.6, 108002.03)" gradientUnits="userSpaceOnUse"><stop offset="0" stop-color="#eee"/><stop offset="1" stop-color="#d0d0d0"/></linearGradient><linearGradient id="未命名的渐变_59" x1="1471.7" y1="1160.35" x2="1471.73" y2="1159.81" gradientTransform="matrix(17.93, 0, 0, -93.03, -26236.67, 108002.03)" gradientUnits="userSpaceOnUse"><stop offset="0" stop-color="#f1f1f1"/><stop offset="1" stop-color="#dfdfdf"/></linearGradient><linearGradient id="未命名的渐变_58" x1="1517.92" y1="1172.7" x2="1518.04" y2="1172.52" gradientTransform="matrix(35.86, 0, 0, -20.94, -54288.86, 24606.38)" gradientUnits="userSpaceOnUse"><stop offset="0" stop-color="#eee"/><stop offset="1" stop-color="#d3d3d3"/></linearGradient><linearGradient id="未命名的渐变_60" x1="1472.81" y1="1161.12" x2="1472.85" y2="1160.47" gradientTransform="matrix(17.93, 0, 0, -79.02, -26294.6, 91805.77)" gradientUnits="userSpaceOnUse"><stop offset="0" stop-color="#efefef"/><stop offset="1" stop-color="#d0d0d0"/></linearGradient><linearGradient id="未命名的渐变_59-2" x1="1472.47" y1="1161.04" x2="1472.5" y2="1160.54" gradientTransform="matrix(17.93, 0, 0, -79.02, -26276.67, 91805.77)" xlink:href="#未命名的渐变_59"/><linearGradient id="未命名的渐变_58-2" x1="1518.2" y1="1173" x2="1518.51" y2="1172.86" gradientTransform="matrix(35.86, 0, 0, -20.83, -54328.86, 24496.16)" xlink:href="#未命名的渐变_58"/><linearGradient id="未命名的渐变_22" x1="1473.91" y1="1163.59" x2="1473.99" y2="1162.94" gradientTransform="matrix(18, 0, 0, -52, -26445.04, 60583.22)" gradientUnits="userSpaceOnUse"><stop offset="0" stop-color="#fd9351"/><stop offset="1" stop-color="#fd763e"/></linearGradient><linearGradient id="未命名的渐变_22-2" x1="1473.57" y1="1163.47" x2="1473.65" y2="1163.03" gradientTransform="matrix(18, 0, 0, -52, -26427.04, 60583.22)" xlink:href="#未命名的渐变_22"/><linearGradient id="未命名的渐变_22-3" x1="1518.87" y1="1173.36" x2="1518.98" y2="1173.16" gradientTransform="matrix(36, 0, 0, -21, -54589.67, 24714.93)" xlink:href="#未命名的渐变_22"/></defs><g id="编组-2"><path id="路径" class="cls-1" d="M48.83,116.62c-4.38-2-9.13-7.29-7.78-12.3a1.63,1.63,0,0,1,1.76.69s7.6,11.87,5.47.95c-1-5.13-2.74-10.1-2.87-15.4C45.18,80.93,54,78.25,56.57,88.9c.33,1.41,1.62,12.85,4.54,11.54a2.1,2.1,0,0,0,.88-.89c1.48-2.43,1.92-6,4.64-6.83,2.39-.75,4.74,1.32,6,3.46,2.61,4.34,6.09,15.15.76,18.81s-18.78,4.24-24.53,1.68Z"/><path id="路径-2" data-name="路径" class="cls-2" d="M171.91,120.3c-1.93-4.41-1.88-11.53,2.5-14.35a1.63,1.63,0,0,1,.82,1.72s-2.33,13.9,3.42,4.37c2.73-4.49,4.78-9.32,8.2-13.35,6.28-7.34,14.65-3.35,9.4,6.25-.69,1.27-7.43,10.62-4.38,11.62a2.14,2.14,0,0,0,1.25-.08c2.73-.81,5.46-3.16,8-2,2.26,1,2.62,4.15,2.14,6.6-1,5-5.81,10.53-12.22,9.67s-16.64-4.67-19.16-10.43Z"/><path id="路径-3" data-name="路径" class="cls-3" d="M222.54,129.48c-25.76-17.68-62.18-28.7-102.54-28.7s-76.78,11-102.54,28.7Z"/><path id="形状结合" class="cls-4" d="M183.14,77.48c-1.63,2-2.68,5-1.7,7.55.67,1.79,2.71,1.8,2.57,4.29a8.07,8.07,0,0,1-1.25,3.48,26.34,26.34,0,0,1-4.21,5.53,4.86,4.86,0,0,1,1.83,4.5,8.09,8.09,0,0,1-2.31,4.49,3.24,3.24,0,0,1-1.36,1,3.47,3.47,0,0,1-1.57,0A27.45,27.45,0,0,1,167.8,106c-1.44-.69-2.92-1.64-3.41-3.14-.57-1.72.33-2.27,1.31-2.81l.25-.14a3.36,3.36,0,0,0,1.3-1.08c.72-1.18.74-2.75,1-4.06.37-1.93-.18-5.46,2.24-6.22.94-.29,2-.22,2.89-.52,2-.65,2.88-2.57,3.69-4.5l.15-.35a11.63,11.63,0,0,1,1.68-3C179.91,78.9,182.46,78.31,183.14,77.48ZM177.23,89s-7.36,8.58-7.12,16.52h2.38S173.35,95.9,177.23,89Z"/><path id="路径-4" data-name="路径" class="cls-5" d="M75.1,31.32h0a5.39,5.39,0,0,0-10.49-1.83,4.49,4.49,0,1,0,.14,9h9.9a3.59,3.59,0,0,0,.45-7.15Z"/><path id="路径-5" data-name="路径" class="cls-6" d="M116,25.89v0A6.73,6.73,0,0,0,103,23.61a5.62,5.62,0,0,0,.18,11.24h12.3a4.48,4.48,0,0,0,.56-8.93Z"/></g><g id="Group" class="cls-7"><polygon id="Path" class="cls-8" points="144.41 56.13 132.67 49.27 132.67 103.39 144.41 110.21 144.41 56.13"/><polygon id="Path-2" data-name="Path" class="cls-9" points="144.41 56.13 156.16 49.27 156.16 103.39 144.41 110.21 144.41 56.13"/><polygon id="Path-3" data-name="Path" class="cls-10" points="156.16 49.27 144.41 42.42 132.67 49.27 144.41 56.13 156.16 49.27"/></g><g id="Group-2" data-name="Group" class="cls-7"><polygon id="Path-4" data-name="Path" class="cls-11" points="118.22 65.56 106.47 58.73 106.47 103.71 118.22 110.49 118.22 65.56"/><polygon id="Path-5" data-name="Path" class="cls-12" points="118.22 65.56 129.96 58.73 129.96 103.71 118.22 110.49 118.22 65.56"/><polygon id="Path-6" data-name="Path" class="cls-13" points="129.96 58.73 118.22 51.91 106.47 58.73 118.22 65.56 129.96 58.73"/></g><polygon id="Path-7" data-name="Path" class="cls-14" points="92.02 83.3 80.23 76.47 80.23 103.71 92.02 110.53 92.02 83.3"/><polygon id="Path-8" data-name="Path" class="cls-15" points="92.02 83.3 103.81 76.47 103.81 103.71 92.02 110.53 92.02 83.3"/><polygon id="Path-9" data-name="Path" class="cls-16" points="103.81 76.8 92.02 69.92 80.23 76.8 92.02 83.68 103.81 76.8"/></svg>