<svg id="图层_1" data-name="图层 1" xmlns="http://www.w3.org/2000/svg" xmlns:xlink="http://www.w3.org/1999/xlink" viewBox="0 0 240 150"><defs><style>.cls-1{fill:url(#未命名的渐变);}.cls-2{fill:url(#未命名的渐变_2);}.cls-3{fill:url(#未命名的渐变_3);}.cls-4{fill:url(#未命名的渐变_4);}.cls-5{fill:url(#未命名的渐变_5);}.cls-6{fill:url(#未命名的渐变_6);}.cls-7{opacity:0.55;}.cls-8{fill:url(#未命名的渐变_25);}.cls-9{fill:#fff;}.cls-10{opacity:0.8;fill:url(#未命名的渐变_22);}</style><linearGradient id="未命名的渐变" x1="2062.31" y1="1162.78" x2="2062.95" y2="1161.2" gradientTransform="matrix(63.93, 0, 0, -65.41, -131819.77, 76069.2)" gradientUnits="userSpaceOnUse"><stop offset="0" stop-color="#d2d2d2"/><stop offset="1" stop-color="#d2d2d2" stop-opacity="0"/></linearGradient><linearGradient id="未命名的渐变_2" x1="2059.24" y1="1162.79" x2="2058.89" y2="1161.87" gradientTransform="matrix(59.26, 0, 0, -64.97, -121816.66, 75603.41)" xlink:href="#未命名的渐变"/><linearGradient id="未命名的渐变_3" x1="2090.32" y1="1164.92" x2="2090.32" y2="1163.14" gradientTransform="matrix(370.52, 0, 0, -51.85, -774383.84, 60440.36)" xlink:href="#未命名的渐变"/><linearGradient id="未命名的渐变_4" x1="2034.96" y1="1163.36" x2="2034.62" y2="1162.24" gradientTransform="matrix(35.77, 0, 0, -55.85, -72613.77, 65024.33)" xlink:href="#未命名的渐变"/><linearGradient id="未命名的渐变_5" x1="2031.6" y1="1171.19" x2="2031.6" y2="1169.36" gradientTransform="matrix(32.84, 0, 0, -22.82, -66645.05, 26721.24)" xlink:href="#未命名的渐变"/><linearGradient id="未命名的渐变_6" x1="2043.22" y1="1168.07" x2="2043.22" y2="1166.58" gradientTransform="matrix(40.65, 0, 0, -28.39, -82951.98, 33159.73)" xlink:href="#未命名的渐变"/><linearGradient id="未命名的渐变_25" x1="36.29" y1="77.19" x2="266.75" y2="83.18" gradientUnits="userSpaceOnUse"><stop offset="0" stop-color="#fff"/><stop offset="0.67" stop-color="#c5c5c5"/></linearGradient><linearGradient id="未命名的渐变_22" x1="137.87" y1="98.49" x2="161.72" y2="98.49" gradientUnits="userSpaceOnUse"><stop offset="0" stop-color="#fd9351"/><stop offset="1" stop-color="#fd763e"/></linearGradient></defs><g id="编组-2"><path id="路径" class="cls-1" d="M48.83,116.62c-4.38-2-9.13-7.29-7.78-12.3a1.63,1.63,0,0,1,1.76.69s7.6,11.87,5.47.95c-1-5.13-2.74-10.1-2.87-15.4C45.18,80.93,54,78.25,56.57,88.9c.33,1.41,1.62,12.85,4.54,11.54a2.1,2.1,0,0,0,.88-.89c1.48-2.43,1.92-6,4.64-6.83,2.39-.75,4.74,1.32,6,3.46,2.61,4.34,6.09,15.15.76,18.81s-18.78,4.24-24.53,1.68Z"/><path id="路径-2" data-name="路径" class="cls-2" d="M171.91,120.3c-1.93-4.41-1.88-11.53,2.5-14.35a1.63,1.63,0,0,1,.82,1.72s-2.33,13.9,3.42,4.37c2.73-4.49,4.78-9.32,8.2-13.35,6.28-7.34,14.65-3.35,9.4,6.25-.69,1.27-7.43,10.62-4.38,11.62a2.14,2.14,0,0,0,1.25-.08c2.73-.81,5.46-3.16,8-2,2.26,1,2.62,4.15,2.14,6.6-1,5-5.81,10.53-12.22,9.67s-16.64-4.67-19.16-10.43Z"/><path id="路径-3" data-name="路径" class="cls-3" d="M222.54,129.48c-25.76-17.68-62.18-28.7-102.54-28.7s-76.78,11-102.54,28.7Z"/><path id="形状结合" class="cls-4" d="M183.14,77.48c-1.63,2-2.68,5-1.7,7.55.67,1.79,2.71,1.8,2.57,4.29a8.07,8.07,0,0,1-1.25,3.48,26.34,26.34,0,0,1-4.21,5.53,4.86,4.86,0,0,1,1.83,4.5,8.09,8.09,0,0,1-2.31,4.49,3.24,3.24,0,0,1-1.36,1,3.47,3.47,0,0,1-1.57,0A27.45,27.45,0,0,1,167.8,106c-1.44-.69-2.92-1.64-3.41-3.14-.57-1.72.33-2.27,1.31-2.81l.25-.14a3.36,3.36,0,0,0,1.3-1.08c.72-1.18.74-2.75,1-4.06.37-1.93-.18-5.46,2.24-6.22.94-.29,2-.22,2.89-.52,2-.65,2.88-2.57,3.69-4.5l.15-.35a11.63,11.63,0,0,1,1.68-3C179.91,78.9,182.46,78.31,183.14,77.48ZM177.23,89s-7.36,8.58-7.12,16.52h2.38S173.35,95.9,177.23,89Z"/><path id="路径-4" data-name="路径" class="cls-5" d="M75.1,31.32h0a5.39,5.39,0,0,0-10.49-1.83,4.49,4.49,0,1,0,.14,9h9.9a3.59,3.59,0,0,0,.45-7.15Z"/><path id="路径-5" data-name="路径" class="cls-6" d="M116,25.89v0A6.73,6.73,0,0,0,103,23.61a5.62,5.62,0,0,0,.18,11.24h12.3a4.48,4.48,0,0,0,.56-8.93Z"/></g><g id="编组" class="cls-7"><path id="路径-6" data-name="路径" class="cls-8" d="M100.67,107.06a35.88,35.88,0,0,1-8.47-.93C84,103.59,78.12,96.64,78.12,89.39A20.13,20.13,0,0,1,96,68.92a20.66,20.66,0,0,1,40.93,0,20.13,20.13,0,0,1,17.84,20.47c0,7.52-6.32,14.79-15,17a21.66,21.66,0,0,1-5.5.64h-11a1.72,1.72,0,0,1-1.72-1.72v-12a1.73,1.73,0,0,1,1.72-1.72h6.38c1.8,0,2.3-1.14,1.23-2.54l-13.26-17a2.37,2.37,0,0,0-3.93,0L100.24,89.22c-1.07,1.39-.57,2.54,1.22,2.54h6.72a1.71,1.71,0,0,1,1.72,1.72v12a1.65,1.65,0,0,1-1.72,1.63Z"/><path id="路径-7" data-name="路径" class="cls-9" d="M121.52,105.34v-12a1.73,1.73,0,0,1,1.72-1.72h6.38c1.8,0,2.3-1.14,1.23-2.54l-13.26-17a2.37,2.37,0,0,0-3.93,0L100.24,89.22c-1.07,1.39-.57,2.54,1.22,2.54h6.72a1.71,1.71,0,0,1,1.72,1.72v12a1.65,1.65,0,0,1-1.72,1.63h15.06A1.72,1.72,0,0,1,121.52,105.34Z"/></g><path id="形状" class="cls-10" d="M161.72,88.79v2.43c0,2.14-5.34,3.88-11.93,3.88s-11.92-1.74-11.92-3.88V88.79c0-2.15,5.34-3.89,11.92-3.89S161.72,86.64,161.72,88.79Zm0,5.38v5.48c0,2.14-5.34,3.89-11.93,3.89s-11.92-1.75-11.92-3.89V94.17c2.56,1.76,7.25,2.59,11.92,2.59S159.15,95.94,161.72,94.17Zm0,8.54v5.47c0,2.15-5.34,3.89-11.93,3.89s-11.92-1.74-11.92-3.89v-5.47c2.56,1.76,7.25,2.58,11.92,2.58S159.15,104.47,161.72,102.71Z"/></svg>