<svg id="图层_1" data-name="图层 1" xmlns="http://www.w3.org/2000/svg" xmlns:xlink="http://www.w3.org/1999/xlink" viewBox="0 0 240 150"><defs><style>.cls-1{fill:#fff;fill-rule:evenodd;}.cls-2{fill:url(#未命名的渐变);}.cls-3{fill:url(#未命名的渐变_2);}.cls-4{fill:url(#未命名的渐变_3);}.cls-5{fill:url(#未命名的渐变_4);}.cls-6{fill:url(#未命名的渐变_5);}.cls-7{fill:url(#未命名的渐变_6);}.cls-8{opacity:0.65;}.cls-9{fill:url(#未命名的渐变_17);}.cls-10{fill:url(#未命名的渐变_17-3);}.cls-11{fill:url(#未命名的渐变_17-4);}.cls-12{fill:url(#未命名的渐变_17-5);}.cls-13{fill:url(#未命名的渐变_17-6);}.cls-14{fill:url(#未命名的渐变_17-7);}.cls-15{fill:url(#未命名的渐变_17-8);}.cls-16{fill:url(#未命名的渐变_17-9);}.cls-17{fill:url(#未命名的渐变_17-10);}.cls-18{fill:url(#未命名的渐变_29);}.cls-19{fill:url(#未命名的渐变_29-3);}.cls-20{fill:url(#未命名的渐变_29-4);}.cls-21{fill:url(#未命名的渐变_29-5);}.cls-22{fill:url(#未命名的渐变_29-6);}.cls-23{fill:url(#未命名的渐变_29-7);}.cls-24{fill:url(#未命名的渐变_29-8);}.cls-25{fill:url(#未命名的渐变_29-9);}.cls-26{fill:url(#未命名的渐变_29-10);}.cls-27{fill:url(#未命名的渐变_29-11);}.cls-28{fill:url(#未命名的渐变_29-12);}.cls-29{fill:url(#未命名的渐变_36);}.cls-30{fill:url(#未命名的渐变_39);}.cls-31,.cls-32{opacity:0.8;}.cls-31{fill:url(#未命名的渐变_22);}.cls-33{fill:url(#未命名的渐变_22-2);}.cls-34{mask:url(#mask);}.cls-35{fill:url(#未命名的渐变_38);}</style><linearGradient id="未命名的渐变" x1="2323.55" y1="966.97" x2="2324.19" y2="965.39" gradientTransform="matrix(63.93, 0, 0, -65.41, -148519.23, 63261.07)" gradientUnits="userSpaceOnUse"><stop offset="0" stop-color="#d2d2d2"/><stop offset="1" stop-color="#d2d2d2" stop-opacity="0"/></linearGradient><linearGradient id="未命名的渐变_2" x1="2320.15" y1="966.96" x2="2319.8" y2="966.04" gradientTransform="matrix(59.26, 0, 0, -64.97, -137276.31, 62879.19)" xlink:href="#未命名的渐变"/><linearGradient id="未命名的渐变_3" x1="2354.98" y1="968.33" x2="2354.98" y2="966.56" gradientTransform="matrix(370.52, 0, 0, -51.85, -872442.13, 50246.62)" xlink:href="#未命名的渐变"/><linearGradient id="未命名的渐变_4" x1="2292.94" y1="967.04" x2="2292.6" y2="965.92" gradientTransform="matrix(35.77, 0, 0, -55.85, -81841.5, 54058.84)" xlink:href="#未命名的渐变"/><linearGradient id="未命名的渐变_5" x1="2288.92" y1="969.89" x2="2288.92" y2="968.06" gradientTransform="matrix(32.84, 0, 0, -22.82, -75093.88, 22127.33)" xlink:href="#未命名的渐变"/><linearGradient id="未命名的渐变_6" x1="2302.09" y1="968.42" x2="2302.09" y2="966.93" gradientTransform="matrix(40.65, 0, 0, -28.39, -93474.27, 27490.23)" xlink:href="#未命名的渐变"/><linearGradient id="未命名的渐变_17" x1="2244.72" y1="979.2" x2="2245.22" y2="979.2" gradientTransform="matrix(21, 0, 0, -12, -47023.48, 11857.1)" gradientUnits="userSpaceOnUse"><stop offset="0" stop-color="#eee"/><stop offset="0.03" stop-color="#ddd"/><stop offset="1" stop-color="#d8d8d8"/></linearGradient><linearGradient id="未命名的渐变_17-3" x1="2253.98" y1="976.81" x2="2254.48" y2="976.81" gradientTransform="matrix(23, 0, 0, -11, -51706.53, 10809.25)" xlink:href="#未命名的渐变_17"/><linearGradient id="未命名的渐变_17-4" x1="2215.37" y1="980.18" x2="2215.87" y2="980.18" gradientTransform="matrix(16.9, 0, 0, -8.75, -37310.82, 8639.34)" xlink:href="#未命名的渐变_17"/><linearGradient id="未命名的渐变_17-5" x1="2226.7" y1="979.49" x2="2227.2" y2="979.49" gradientTransform="matrix(18.33, 0, 0, -9.14, -40682.97, 9018.21)" xlink:href="#未命名的渐变_17"/><linearGradient id="未命名的渐变_17-6" x1="2228.3" y1="979.88" x2="2228.8" y2="979.88" gradientTransform="matrix(18.56, 0, 0, -8.95, -41220.52, 8829.68)" xlink:href="#未命名的渐变_17"/><linearGradient id="未命名的渐变_17-7" x1="2225.39" y1="979.69" x2="2225.89" y2="979.69" gradientTransform="matrix(18.17, 0, 0, -9.07, -40300.73, 8945.83)" xlink:href="#未命名的渐变_17"/><linearGradient id="未命名的渐变_17-8" x1="2211.1" y1="980.74" x2="2211.6" y2="980.74" gradientTransform="matrix(16.45, 0, 0, -8.53, -36224.3, 8431.32)" xlink:href="#未命名的渐变_17"/><linearGradient id="未命名的渐变_17-9" x1="2319.15" y1="965.82" x2="2319.66" y2="965.82" gradientTransform="matrix(58, 0, 0, -65, -134409.37, 62854.9)" xlink:href="#未命名的渐变_17"/><linearGradient id="未命名的渐变_17-10" x1="2264.41" y1="975.24" x2="2264.91" y2="975.24" gradientTransform="matrix(25, 0, 0, -16, -56521.58, 15710.48)" xlink:href="#未命名的渐变_17"/><linearGradient id="未命名的渐变_29" x1="2271.75" y1="967.99" x2="2272.25" y2="967.99" gradientTransform="matrix(27, 0, 0, -39, -61253.62, 37848.92)" gradientUnits="userSpaceOnUse"><stop offset="0" stop-color="#eee"/><stop offset="1" stop-color="#d8d8d8"/></linearGradient><linearGradient id="未命名的渐变_29-3" x1="2320.52" y1="969.2" x2="2321.03" y2="969.2" gradientTransform="matrix(60, 0, 0, -22, -139128.42, 21367.55)" xlink:href="#未命名的渐变_29"/><linearGradient id="未命名的渐变_29-4" x1="2319.55" y1="964.89" x2="2320.05" y2="964.89" gradientTransform="matrix(58, 0, 0, -97, -134455.37, 93660.95)" xlink:href="#未命名的渐变_29"/><linearGradient id="未命名的渐变_29-5" x1="2238.52" y1="967.51" x2="2239.02" y2="967.51" gradientTransform="matrix(19.64, 0, 0, -39.45, -43874.82, 38252.93)" xlink:href="#未命名的渐变_29"/><linearGradient id="未命名的渐变_29-6" x1="2289.73" y1="966.34" x2="2290.23" y2="966.34" gradientTransform="matrix(33.77, 0, 0, -48.99, -77233.32, 47398.95)" xlink:href="#未命名的渐变_29"/><linearGradient id="未命名的渐变_29-7" x1="2220.87" y1="976.47" x2="2221.37" y2="976.47" gradientTransform="matrix(17.23, 0, 0, -10.37, -38187.51, 10174.02)" xlink:href="#未命名的渐变_29"/><linearGradient id="未命名的渐变_29-8" x1="2290.86" y1="969.05" x2="2291.36" y2="969.05" gradientTransform="matrix(34.44, 0, 0, -23.17, -78797.75, 22498.45)" xlink:href="#未命名的渐变_29"/><linearGradient id="未命名的渐变_29-9" x1="2216.01" y1="977.5" x2="2216.51" y2="977.5" gradientTransform="matrix(16.72, 0, 0, -9.07, -36962.48, 8908.98)" xlink:href="#未命名的渐变_29"/><linearGradient id="未命名的渐变_29-10" x1="2223.72" y1="977.54" x2="2224.22" y2="977.54" gradientTransform="matrix(17.67, 0, 0, -9.03, -39185.28, 8873.29)" xlink:href="#未命名的渐变_29"/><linearGradient id="未命名的渐变_29-11" x1="2214.14" y1="977.83" x2="2214.64" y2="977.83" gradientTransform="matrix(16.52, 0, 0, -8.85, -36478.03, 8702.25)" xlink:href="#未命名的渐变_29"/><linearGradient id="未命名的渐变_29-12" x1="2211.04" y1="978.09" x2="2211.54" y2="978.09" gradientTransform="matrix(16.18, 0, 0, -8.7, -35673.93, 8550.2)" xlink:href="#未命名的渐变_29"/><linearGradient id="未命名的渐变_36" x1="2341.4" y1="964.52" x2="2341.9" y2="964.52" gradientTransform="matrix(123, 0, 0, -138, -287905.9, 133181.59)" gradientUnits="userSpaceOnUse"><stop offset="0" stop-color="#efefef"/><stop offset="1" stop-color="#fdfdfd"/></linearGradient><linearGradient id="未命名的渐变_39" x1="128.11" y1="108.65" x2="155.12" y2="108.65" gradientUnits="userSpaceOnUse"><stop offset="0" stop-color="#fd9351"/><stop offset="1" stop-color="#fd763e" stop-opacity="0.6"/></linearGradient><linearGradient id="未命名的渐变_22" x1="128.86" y1="108.4" x2="154.37" y2="108.4" gradientUnits="userSpaceOnUse"><stop offset="0" stop-color="#fd9351"/><stop offset="1" stop-color="#fd763e"/></linearGradient><linearGradient id="未命名的渐变_22-2" x1="2294.47" y1="966.8" x2="2294.62" y2="966.92" gradientTransform="matrix(36.84, 0, 0, -50.71, -84398.13, 49129.38)" xlink:href="#未命名的渐变_22"/><mask id="mask" x="131.09" y="81.44" width="19.75" height="32.69" maskUnits="userSpaceOnUse"><g id="mask-31"><path id="path-30" class="cls-1" d="M139.85,85.8l-7.59,21.33a1.62,1.62,0,0,0,1.13,2.12,36.53,36.53,0,0,0,16,0,1.6,1.6,0,0,0,1.14-2.13l-7.74-21.3a1.53,1.53,0,0,0-2.9,0"/></g></mask><linearGradient id="未命名的渐变_38" x1="2299.03" y1="966.15" x2="2298.89" y2="965.98" gradientTransform="matrix(39.48, 0, 0, -65.37, -90634.02, 63248.6)" xlink:href="#未命名的渐变_22"/></defs><g id="编组-2"><path id="路径" class="cls-2" d="M50,116c-4.38-2-9.13-7.3-7.78-12.3a1.63,1.63,0,0,1,1.76.68s7.6,11.87,5.47,1c-1-5.13-2.74-10.09-2.87-15.39-.23-9.64,8.61-12.31,11.16-1.66.33,1.4,1.62,12.85,4.54,11.54a2.1,2.1,0,0,0,.88-.89c1.48-2.43,1.92-6,4.64-6.83,2.39-.75,4.74,1.32,6,3.45,2.61,4.35,6.09,15.15.76,18.82s-18.78,4.24-24.53,1.68Z"/><path id="路径-2" data-name="路径" class="cls-3" d="M173.11,119.71c-1.93-4.41-1.88-11.54,2.49-14.35a1.6,1.6,0,0,1,.83,1.71s-2.33,13.91,3.42,4.38c2.73-4.49,4.78-9.33,8.2-13.35,6.28-7.34,14.65-3.36,9.39,6.25-.68,1.27-7.42,10.61-4.37,11.61a2.1,2.1,0,0,0,1.24-.07c2.74-.81,5.47-3.16,8.05-2,2.27,1,2.63,4.15,2.15,6.6-1,5-5.81,10.52-12.22,9.66s-16.64-4.66-19.16-10.42Z"/><path id="路径-3" data-name="路径" class="cls-4" d="M223.74,128.89c-25.77-17.68-62.18-28.7-102.54-28.7s-76.78,11-102.55,28.7Z"/><path id="形状结合" class="cls-5" d="M184.34,76.88c-1.64,2.05-2.68,5-1.7,7.55.67,1.79,2.71,1.81,2.57,4.29A8.06,8.06,0,0,1,184,92.21a26.34,26.34,0,0,1-4.21,5.53,4.86,4.86,0,0,1,1.83,4.49,8.05,8.05,0,0,1-2.31,4.49,3.18,3.18,0,0,1-1.36,1,3.47,3.47,0,0,1-1.57,0,27,27,0,0,1-7.34-2.35c-1.45-.69-2.92-1.63-3.41-3.13-.57-1.73.33-2.28,1.31-2.82l.25-.14a3.25,3.25,0,0,0,1.3-1.07c.72-1.18.74-2.75,1-4.06.37-1.94-.18-5.46,2.24-6.22.94-.3,2-.23,2.89-.53,2-.65,2.88-2.56,3.69-4.49l.15-.36a11.57,11.57,0,0,1,1.68-3C181.11,78.3,183.65,77.72,184.34,76.88Zm-5.91,11.47s-7.36,8.59-7.12,16.52h2.38S174.55,95.3,178.43,88.35Z"/><path id="路径-4" data-name="路径" class="cls-6" d="M76.3,30.72h0a5.39,5.39,0,0,0-10.49-1.83,4.5,4.5,0,1,0,.14,9h9.9a3.6,3.6,0,0,0,.45-7.16Z"/><path id="路径-5" data-name="路径" class="cls-7" d="M117.22,25.3v0A6.73,6.73,0,0,0,104.15,23a5.62,5.62,0,0,0,.18,11.24h12.3a4.48,4.48,0,0,0,.56-8.93Z"/></g><g id="编组" class="cls-8"><path id="路径-6" data-name="路径" class="cls-9" d="M126.11,109.65l-8-4.28a2.19,2.19,0,0,1-.5-.36,9.46,9.46,0,0,0-2-1.36l8,4.26a9.62,9.62,0,0,1,2,1.38,2.47,2.47,0,0,0,.49.36Z"/><path id="路径-7" data-name="路径" class="cls-9" d="M126.11,109.65l-8-4.28a2.19,2.19,0,0,1-.5-.36,9.46,9.46,0,0,0-2-1.36l8,4.26a9.62,9.62,0,0,1,2,1.38,2.47,2.47,0,0,0,.49.36"/><path id="路径-8" data-name="路径" class="cls-10" d="M143,65.91l-7.89-4.27.43.21c.88.42,1.93.48,2.84.84a2.92,2.92,0,0,1,.36.17l7.88,4.28-.36-.17c-.91-.37-2-.42-2.84-.84Z"/><g id="路径-9" data-name="路径"><path class="cls-11" d="M143.32,65.64l-8.1-4.2.36.18,8.1,4.2-.36-.18"/><path class="cls-12" d="M143.69,65.82l-8.1-4.2.08,0a5.75,5.75,0,0,0,1,.33l8.1,4.21a5.75,5.75,0,0,1-1-.33l-.08,0"/><path class="cls-13" d="M144.74,66.19,136.65,62c.38.1.79.18,1.18.27l8.1,4.21-1.19-.27"/><path class="cls-14" d="M145.93,66.46l-8.1-4.23a7.16,7.16,0,0,1,.75.23l.24.1,8.1,4.2-.24-.1c-.25-.09-.5-.16-.75-.23"/><polyline class="cls-15" points="146.92 66.78 138.82 62.58 138.95 62.64 147.04 66.85 146.92 66.78"/></g><path id="路径-10" data-name="路径" class="cls-16" d="M129.11,83.42c.15-.33.29-.67.42-1l0-.1v0c.05-.13.09-.26.13-.39s.08-.22.12-.33.08-.27.12-.4l.1-.34.1-.41c0-.11.06-.22.08-.33s.06-.28.09-.42l.07-.34.07-.43.05-.34a3.59,3.59,0,0,1,0-.46c0-.15,0-.21,0-.31l0-.5V76.2A12.39,12.39,0,0,0,124.36,65l-8-4.34a12.38,12.38,0,0,1,6.25,11.21v1.06l0,.51,0,.31a2.52,2.52,0,0,1-.06.47c0,.15,0,.22,0,.32l-.07.44-.06.34-.09.42-.08.34-.11.4-.1.34c0,.13-.07.26-.11.39s-.08.23-.12.34l-.13.38-.06.16c-.13.34-.27.68-.42,1,0,0,0,.07,0,.11-.16.34-.33.67-.5,1l-.11.2c-.16.28-.31.56-.48.82v0c-.16.26-.33.51-.5.76l-.15.21-.41.57-.13.17c-.18.23-.37.45-.57.67l-.12.13c-.16.18-.32.35-.49.52l-.19.19-.49.46-.15.14a7.15,7.15,0,0,1-.7.56l-.17.13c-.2.15-.39.3-.6.44l-.18.13a8.82,8.82,0,0,1-.93.56L114,87c-.32.18-.65.34-1,.5l-.16.08-.7.29-.22.09a8.87,8.87,0,0,1-.87.29l-.12,0-.78.2-.24,0c-.31.07-.61.13-.92.17s-.77.09-1.13.11h-1.53a6,6,0,0,1-.74-.08l-.36,0c-.31-.05-.62-.11-.93-.19h-.11c-.35-.09-.68-.2-1-.32l-.3-.11c-.23-.09-.46-.18-.69-.29s-.39-.18-.56-.28l8,4.33c.13.08.27.15.41.22l.17.07.68.3.29.11c.34.12.67.22,1,.31h.1c.31.08.62.14.93.19l.36,0c.24,0,.49.06.74.07h1.53A8.33,8.33,0,0,0,117,93l.92-.17.24-.05.79-.21.12,0,.86-.29.22-.09c.23-.09.47-.19.7-.3l.13-.05h0c.33-.15.65-.32,1-.5l.17-.11c.32-.18.62-.37.92-.56l.07,0,.12-.08a6.84,6.84,0,0,0,.56-.44L124,90c.24-.19.48-.38.7-.57l0,0,.12-.11.49-.46.19-.19.48-.52.1-.09v0c.19-.21.38-.44.57-.67l.13-.17c.14-.18.28-.37.41-.57l.08-.11.07-.1c.17-.25.34-.5.5-.75v0c.16-.27.32-.56.48-.82l.05-.1.05-.1c.18-.33.35-.66.5-1A.22.22,0,0,0,129.11,83.42Z"/><path id="路径-11" data-name="路径" class="cls-17" d="M101.11,110.65l-8-4.43a23.45,23.45,0,0,1-3.67-2.49,4.91,4.91,0,0,1-.79-1.08l8.05,4.42a4.87,4.87,0,0,0,.78,1.08A24.08,24.08,0,0,0,101.11,110.65Z"/><path id="路径-12" data-name="路径" class="cls-17" d="M101.11,110.65l-8-4.43a23.45,23.45,0,0,1-3.67-2.49,4.91,4.91,0,0,1-.79-1.08l8.05,4.42a4.87,4.87,0,0,0,.78,1.08,24.08,24.08,0,0,0,3.68,2.5"/><path id="路径-13" data-name="路径" class="cls-18" d="M83.6,87.64l8,4.33a10.32,10.32,0,0,1,4.28,4.77c1.49,3.08,1.6,6.45.66,10.41l-8-4.33c.93-3.94.82-7.32-.66-10.41A10.3,10.3,0,0,0,83.6,87.64Z"/><path id="路径-14" data-name="路径" class="cls-18" d="M96.5,107.15l-8-4.33c.93-3.94.82-7.32-.66-10.41a10.3,10.3,0,0,0-4.29-4.77l8,4.33a10.32,10.32,0,0,1,4.28,4.77c1.49,3.08,1.6,6.45.66,10.41"/><path id="路径-15" data-name="路径" class="cls-19" d="M128.09,44c.4.12.79.25,1.18.39l.36.14a8.75,8.75,0,0,1,.82.32l.4.16.8.36.34.16,1.12.55-8-4.3c-.33-.17-.65-.34-1-.49l-.13-.06-.33-.16c-.27-.12-.53-.25-.81-.36l-.39-.17-.81-.31-.36-.13c-.4-.14-.79-.28-1.19-.4l-.16,0-.18,0h-.48a1.68,1.68,0,0,0-.32.09h0l-.2.11,0,0-.06,0-.09.07-.12.13-.06.06h0a4,4,0,0,0-.26.32c-.16.22-.32.43-.49.63s-.11.13-.17.2l-.34.41-.15.15c-.14.16-.29.32-.44.47l-.21.21L116,43l-.2.18c-.21.18-.41.35-.63.52h0c-.22.17-.45.34-.68.49l-.17.12c-.25.17-.51.33-.78.49l-.06,0c-.27.16-.56.3-.84.44l-.19.09-.62.27-.11,0c-.24.1-.48.18-.72.26l-.21,0-.56.15-.22.05-.73.13-.9.08h-1.22a4.07,4.07,0,0,1-.61-.07l-.29,0c-.28-.05-.56-.1-.84-.17h0c-.29-.08-.57-.17-.86-.27l-.25-.1-.6-.25-.5-.25,8,4.3.36.19.15.06.56.24.26.11a8.52,8.52,0,0,0,.86.26h0c.28.07.57.12.84.17l.28,0c.21,0,.41,0,.62.06h1.22a5.47,5.47,0,0,0,.9-.08c.24,0,.49-.08.74-.14l.21,0,.56-.15.2-.06.73-.24.11-.05.62-.26.1,0,.09,0c.29-.13.57-.28.85-.44l0,0c.27-.16.53-.32.79-.5l.1-.06.07-.05c.22-.15.45-.32.67-.49h0c.21-.16.41-.33.62-.52l.08-.06.12-.12.42-.39.2-.2.45-.47a.63.63,0,0,1,.11-.12l0,0,.35-.41.16-.19c.17-.21.33-.42.49-.64s.18-.23.28-.34l.07-.06a1.89,1.89,0,0,1,.2-.2l.06,0A1.28,1.28,0,0,1,127,44a1.17,1.17,0,0,1,.32-.09,1.09,1.09,0,0,1,.36,0h.13a2,2,0,0,1,.32.11Z"/><path id="路径-16" data-name="路径" class="cls-20" d="M87.34,90.64,79.4,86.27a1.47,1.47,0,0,1-.73-1.41c0-4.16-.11-8.31,0-12.48,0-.43.83-1.18,1.37-1.43A15.23,15.23,0,0,0,89,59a20.21,20.21,0,0,0-.38-6.8,2.34,2.34,0,0,1,.76-2.66l8.75-7a1.83,1.83,0,0,1,.87-.43,1.11,1.11,0,0,1,.67.13l8,4.37a1,1,0,0,0-.67-.13,1.85,1.85,0,0,0-.87.44q-4.39,3.48-8.76,7c-.92.74-1,1.48-.77,2.66a19.64,19.64,0,0,1,.39,6.8C96,69,93,73.06,88,75.33c-.56.25-1.38,1-1.38,1.44-.08,4.16,0,8.32,0,12.47a1.46,1.46,0,0,0,.72,1.4Z"/><g id="路径-17" data-name="路径"><path class="cls-21" d="M80.39,70.76l-.36.16h0a2.71,2.71,0,0,0-.37.21c-.13.09-.26.2-.39.31l-.27.27a1.56,1.56,0,0,0-.16.2l-.09.14a.61.61,0,0,0,0,.12.41.41,0,0,0,0,.16c-.08,4.15,0,8.28,0,12.41a1.44,1.44,0,0,0,.73,1.4l8,4.35a1.44,1.44,0,0,1-.73-1.4c-.06-4.14-.12-8.27,0-12.41a.78.78,0,0,1,0-.16l.06-.12.09-.14a1.56,1.56,0,0,1,.16-.2,3.57,3.57,0,0,1,.27-.28l.39-.3a2.71,2.71,0,0,1,.37-.21h0l.35-.16Z"/><path class="cls-22" d="M96.76,56.67a3.23,3.23,0,0,1,0-1.69l-8-4.33a3,3,0,0,0,0,1.69,19.46,19.46,0,0,1,.38,6.77,18.74,18.74,0,0,1-.85,3.21,17.37,17.37,0,0,1-.94,2.06,14.78,14.78,0,0,1-1.91,2.74,15.47,15.47,0,0,1-1.13,1.16,16.65,16.65,0,0,1-1.49,1.17,18.54,18.54,0,0,1-2.37,1.35l8,4.35a18,18,0,0,0,2.38-1.35,15.21,15.21,0,0,0,1.48-1.17,15.74,15.74,0,0,0,1.14-1.17,15.09,15.09,0,0,0,1-1.25,14.06,14.06,0,0,0,.92-1.48,16,16,0,0,0,.93-2.07,18.67,18.67,0,0,0,.86-3.2A20.07,20.07,0,0,0,96.76,56.67Z"/><path class="cls-23" d="M89.33,49.81a2.39,2.39,0,0,0-.22.23,1.39,1.39,0,0,0-.15.19.76.76,0,0,0-.12.19.94.94,0,0,0-.1.23l8,4.35a1.6,1.6,0,0,1,.1-.23l.12-.19.15-.2a2.39,2.39,0,0,1,.23-.22Z"/><path class="cls-24" d="M97.37,54.16l-8-4.35.16-.13,8.86-7,.16-.12,8,4.34-.16.13q-4.44,3.47-8.86,7l-.16.14"/><path class="cls-25" d="M106.55,46.93l-8-4.35.33-.19,8,4.35a2.17,2.17,0,0,0-.33.19"/><path class="cls-26" d="M106.88,46.74l-8-4.35a1.27,1.27,0,0,1,.39-.12.94.94,0,0,1,.41,0l8,4.37a1.34,1.34,0,0,0-.4,0,1.63,1.63,0,0,0-.39.13"/><path class="cls-27" d="M107.67,46.64l-8-4.34.22.08,8,4.35-.23-.09"/><polyline class="cls-28" points="107.9 46.72 99.86 42.37 99.91 42.37 107.95 46.72 107.9 46.72"/></g><path id="形状" class="cls-29" d="M147.67,67.89a36.32,36.32,0,0,1-.24,12.76,3,3,0,0,1-1.31,1.69,15.79,15.79,0,0,0-8.47,17.28,2.42,2.42,0,0,1-.73,2.56,38.62,38.62,0,0,1-9.24,7.24,2.72,2.72,0,0,1-1,.38,1.56,1.56,0,0,1-1.33-.52,9.73,9.73,0,0,0-8.11-2.46,13,13,0,0,0-8.09,4.73,2.55,2.55,0,0,1-1.58,1.08,2.25,2.25,0,0,1-1-.1,25.11,25.11,0,0,1-9.22-4.65,4.8,4.8,0,0,1-.77-1.06c.94-3.94.83-7.33-.67-10.43a9.59,9.59,0,0,0-7.63-5.84c-1-.13-1.6-.56-1.61-1.66-.05-4.13-.12-8.27,0-12.4,0-.44.84-1.19,1.39-1.43a15.14,15.14,0,0,0,9-11.84,19.47,19.47,0,0,0-.39-6.76c-.2-1.18-.15-1.92.78-2.65q4.38-3.5,8.81-7a1.9,1.9,0,0,1,.87-.44,1.44,1.44,0,0,1,1.25.6,10,10,0,0,0,9,3.38,13.71,13.71,0,0,0,9-5.84,1.54,1.54,0,0,1,2-.8,27.23,27.23,0,0,1,9.35,5c.8.66.48,1.4.25,2.22-1.69,6.15.71,12.56,5.68,14.95.89.42,2,.47,2.88.85C146.94,67,147.6,67.43,147.67,67.89Zm-30.47,25c7.58-1.08,13.54-8.54,13.54-16.88,0-8-6.08-13.53-13.62-12.49l-.36,0c-7.41,1-13.35,8.83-13.28,16.52.07,8.18,6.1,13.86,13.7,12.8"/></g><g id="编组备份-2"><path id="Fill-1" class="cls-30" d="M155.12,108.38c0-2.06-6.05-3.73-13.5-3.73s-13.51,1.67-13.51,3.73v.53c0,2.06,6,3.74,13.51,3.74s13.5-1.68,13.5-3.74Z"/><path id="Fill-1-2" data-name="Fill-1" class="cls-31" d="M154.37,108.4c0,2.07-5.71,3.75-12.75,3.75s-12.76-1.68-12.76-3.75,5.71-3.75,12.76-3.75,12.75,1.67,12.75,3.75"/><g id="形状结合-2" data-name="形状结合"><g id="蒙版" class="cls-32"><path id="path-12" class="cls-33" d="M139.85,85.8l-7.59,21.33a1.62,1.62,0,0,0,1.13,2.12,36.53,36.53,0,0,0,16,0,1.6,1.6,0,0,0,1.14-2.13l-7.74-21.3a1.53,1.53,0,0,0-2.9,0"/></g><g id="Clipped" class="cls-32"><g class="cls-34"><path id="形状-2" data-name="形状" class="cls-35" d="M148.3,99l2.54,1.83c-3.12,4.64-9.12,8.95-18,13l-.5.23-1.24-2.93c8.53-3.86,14.21-7.86,17-11.93Zm0-9.6,2.54,1.83c-3.12,4.64-9.12,9-18,13l-.5.23-1.24-2.93c8.53-3.86,14.21-7.86,17-11.93Zm0-8,2.54,1.83c-3.12,4.64-9.12,9-18,13l-.5.23-1.24-2.93c8.53-3.86,14.21-7.86,17-11.93Z"/></g></g></g></g></svg>