<?xml version="1.0" encoding="UTF-8"?>
<svg width="36px" height="36px" viewBox="0 0 36 36" version="1.1" xmlns="http://www.w3.org/2000/svg" xmlns:xlink="http://www.w3.org/1999/xlink">
    <title>hongqi</title>
    <defs>
        <polygon id="path-1" points="0.00152372797 0.368335841 4.84393121 0.368335841 4.84393121 7.11073052 0.00152372797 7.11073052"></polygon>
        <path d="M0.727326151,3.29734733 C0.273763125,3.59295055 0,4.09730451 0,4.63924376 L0,4.63924376 L0,17.2105074 C0,17.2850656 0.0985344087,17.313613 0.136627608,17.2496164 L0.136627608,17.2496164 C0.222972193,17.1053702 0.347409977,16.9225228 0.496735318,16.7671026 L0.496735318,16.7671026 C1.32665915,15.9067042 11.8266686,8.96866283 14.3596124,7.29916488 L14.3596124,7.29916488 C14.5475388,7.14933163 14.6724845,6.98934019 14.7552737,6.83747531 L14.7552737,6.83747531 L10.0799684,3.74075216 L5.74953354,6.7064347 C5.48694442,6.88674251 5.13039207,6.69830815 5.13039207,6.38035692 L5.13039207,6.38035692 L5.13039207,0.430199197 L0.727326151,3.29734733 Z" id="path-3"></path>
        <linearGradient x1="49.3869259%" y1="7.3096653%" x2="50.3129657%" y2="100.044364%" id="linearGradient-5">
            <stop stop-color="#1FC8FF" offset="0%"></stop>
            <stop stop-color="#0046FF" offset="100%"></stop>
        </linearGradient>
        <polygon id="path-6" points="0.158162963 0.355717645 15.0529086 0.355717645 15.0529086 20.8241807 0.158162963 20.8241807"></polygon>
    </defs>
    <g id="页面-1" stroke="none" stroke-width="1" fill="none" fill-rule="evenodd">
        <g id="hongqi">
            <rect id="矩形_101" fill="#F2F2F2" fill-rule="nonzero" x="0" y="0" width="36" height="36" rx="8"></rect>
            <g id="编组" transform="translate(7.000000, 7.786000)">
                <polygon id="Fill-1" fill="#285CA9" points="10.0798668 3.89307417 5.13029049 0.582521203 5.13029049 7.28286099"></polygon>
                <polygon id="Fill-3" fill="#001CB4" points="5.1302397 7.28301337 10.0798161 3.89322654 5.1302397 0.582673575"></polygon>
                <g transform="translate(0.507909, 13.865721)">
                    <g transform="translate(10.158186, 0.000000)">
                        <mask id="mask-2" fill="white">
                            <use xlink:href="#path-1"></use>
                        </mask>
                        <g id="Clip-5"></g>
                        <polygon id="Fill-4" fill="#0059FF" mask="url(#mask-2)" points="0.00152372797 3.71190291 4.84393121 7.1108321 4.84393121 0.368335841"></polygon>
                    </g>
                    <path d="M10.1597102,3.70941416 L5.23705303,0.254107034 L0.597809273,3.43158776 C0.363663075,3.5915792 0.368234259,3.93797335 0.605427913,4.09237779 L4.95821081,6.92651181 C5.12683671,7.03672813 5.34523772,7.03368068 5.51081616,6.91940108 L10.1597102,3.70941416 Z" id="Fill-6" fill="#00B8FF"></path>
                </g>
                <g transform="translate(0.000000, 0.152170)">
                    <mask id="mask-4" fill="white">
                        <use xlink:href="#path-3"></use>
                    </mask>
                    <g id="Clip-9"></g>
                    <path d="M0.727326151,3.29734733 C0.273763125,3.59295055 0,4.09730451 0,4.63924376 L0,4.63924376 L0,17.2105074 C0,17.2850656 0.0985344087,17.313613 0.136627608,17.2496164 L0.136627608,17.2496164 C0.222972193,17.1053702 0.347409977,16.9225228 0.496735318,16.7671026 L0.496735318,16.7671026 C1.32665915,15.9067042 11.8266686,8.96866283 14.3596124,7.29916488 L14.3596124,7.29916488 C14.5475388,7.14933163 14.6724845,6.98934019 14.7552737,6.83747531 L14.7552737,6.83747531 L10.0799684,3.74075216 L5.74953354,6.7064347 C5.48694442,6.88674251 5.13039207,6.69830815 5.13039207,6.38035692 L5.13039207,6.38035692 L5.13039207,0.430199197 L0.727326151,3.29734733 Z" id="Fill-8" fill="url(#linearGradient-5)" mask="url(#mask-4)"></path>
                </g>
                <g transform="translate(5.587003, 0.152170)">
                    <g>
                        <mask id="mask-7" fill="white">
                            <use xlink:href="#path-6"></use>
                        </mask>
                        <g id="Clip-11"></g>
                        <path d="M10.0669659,1.41239425 L10.0410626,6.60271962 C10.0410626,7.02783972 9.88564232,7.3696627 9.53366116,7.60787217 L0.158162963,13.9699443 L5.08082012,17.4252515 L9.30256242,14.5103599 C9.56464363,14.3290362 9.9227197,14.5169627 9.9227197,14.8359297 L9.9227197,20.8241807 L14.3146116,17.9641433 C14.7752854,17.6644768 15.0531118,17.1519963 15.0531118,16.6024384 L15.0531118,4.52537049 C15.0531118,3.98393915 14.7793486,3.47958519 14.3257856,3.18398196 L10.005001,0.368640587 C9.93998862,0.326484113 9.85821521,0.395051871 9.89122932,0.465143358 C9.98570045,0.66627545 10.0761083,0.975084318 10.0669659,1.41239425" id="Fill-10" fill="#001CB4" mask="url(#mask-7)"></path>
                    </g>
                    <path d="M9.32099952,6.35709467 L9.32099952,1.18810149 C9.32099952,0.868118615 8.96292345,0.679684256 8.69931851,0.859992066 L4.4928135,3.74085375 L9.16862673,6.83757689 C9.26817695,6.65523744 9.30728597,6.48508782 9.32099952,6.35709467" id="Fill-12" fill="#00B8FF"></path>
                </g>
            </g>
        </g>
    </g>
</svg>