<?xml version="1.0" standalone="no"?>
<!DOCTYPE svg PUBLIC "-//W3C//DTD SVG 1.1//EN" "http://www.w3.org/Graphics/SVG/1.1/DTD/svg11.dtd" >
<!--
2013-9-30: Created.
-->
<svg>
<metadata>
Created by iconfont
</metadata>
<defs>

<font id="iconfont" horiz-adv-x="1024" >
  <font-face
    font-family="iconfont"
    font-weight="500"
    font-stretch="normal"
    units-per-em="1024"
    ascent="896"
    descent="-128"
  />
    <missing-glyph />
    
    <glyph glyph-name="zu1495" unicode="&#58965;" d="M980.053333 284.71466699999996a66.645333 66.645333 0 0 1-33.408 57.386666l-173.354666 99.157334a66.602667 66.602667 0 0 1-66.389334-0.298667l-172.501333-100.522667a66.517333 66.517333 0 0 1-32.981333-57.642666l0.768-199.637334a66.56 66.56 0 0 1 33.408-57.386666l173.354666-99.157334a66.602667 66.602667 0 0 1 66.346667 0.298667l172.544 100.48a66.517333 66.517333 0 0 1 32.981333 57.6z m-63.402666-203.776l-172.373334-100.48a4.266667 4.266667 0 0 0-4.266666 0l-173.312 99.157333a4.266667 4.266667 0 0 0-2.218667 3.84l-0.768 199.637333a4.48 4.48 0 0 0 2.176 3.84l172.501333 100.522667a4.266667 4.266667 0 0 0 2.218667 0.597333 4.565333 4.565333 0 0 0 2.176-0.554666l173.269333-99.157334a4.266667 4.266667 0 0 0 2.261334-3.84l0.768-199.68a4.266667 4.266667 0 0 0-2.176-3.84M802.261333 290.81600000000003a123.093333 123.093333 0 1 1 57.685334-74.538667 123.306667 123.306667 0 0 1-57.685334 74.538667m-8.064-137.258667a61.184 61.184 0 1 0 5.930667 46.464 61.269333 61.269333 0 0 0-5.930667-46.464M461.226667 65.10933299999999H155.477333a30.976 30.976 0 0 1 0-61.994666h305.749334a30.976 30.976 0 0 1 0 61.994666M463.616 141.14133300000003a31.104 31.104 0 0 1 9.045333 21.930667v182.698667l268.544 156.672 159.402667-93.056a30.976 30.976 0 0 1 46.592 26.794666V779.946667A50.688 50.688 0 0 1 896.469333 830.592H119.808A50.645333 50.645333 0 0 1 69.205333 779.946667v-597.333334a50.645333 50.645333 0 0 1 50.602667-50.645333H441.685333a31.061333 31.061333 0 0 1 21.930667 9.045333M410.538667 363.56266700000003v-169.514667H131.2V768.597333h753.92V490.112l-128.384 74.965333a30.976 30.976 0 0 1-31.232 0l-299.562667-174.933333a31.018667 31.018667 0 0 1-15.36-26.794667"  horiz-adv-x="1024" />

    
    <glyph glyph-name="zu1493" unicode="&#58966;" d="M981.333333 497.706667a30.165333 30.165333 0 0 1-23.253333 10.922666H882.346667V620.202667a53.504 53.504 0 0 1-52.309334 54.485333h-290.133333L467.370667 790.698667a30.165333 30.165333 0 0 1-25.6 14.208H142.378667A53.504 53.504 0 0 1 90.026667 750.421333v-758.4a31.445333 31.445333 0 0 1 0.554666-5.290666l-4.693333-24.746667a30.165333 30.165333 0 0 1 29.653333-35.84h743.253334a30.165333 30.165333 0 0 1 29.653333 24.533333L987.733333 472.618667A30.208 30.208 0 0 1 981.333333 497.706667M150.4 744.533333h274.645333l72.533334-116.010666a30.165333 30.165333 0 0 1 25.6-14.208h298.922666v-105.856H214.784a30.165333 30.165333 0 0 1-29.610667-24.533334l-34.773333-182.698666z m386.389333-522.026666a67.626667 67.626667 0 1 0 67.626667 67.626666 67.712 67.712 0 0 0-67.626667-67.626666m162.944-229.546667H373.717333a165.845333 165.845333 0 0 0 326.144 0m133.930667-6.4h-72.106667a226.602667 226.602667 0 0 1-160.768 193.024 128 128 0 1 1-128.256 0 226.645333 226.645333 0 0 1-160.768-193.066667H151.978667L239.786667 448.085333H921.6z"  horiz-adv-x="1024" />

    
    <glyph glyph-name="zu1530" unicode="&#58967;" d="M979.961173 503.765333a30.122667 30.122667 0 0 1-23.210666 10.922667H881.102507V626.2613329999999a53.418667 53.418667 0 0 1-52.224 54.4h-289.749334L466.766507 796.501333A30.122667 30.122667 0 0 1 441.25184 810.666667H142.286507A53.418667 53.418667 0 0 1 90.062507 756.266667v-757.162667a32.256 32.256 0 0 1 0.512-5.205333l-4.693334-24.789334a30.122667 30.122667 0 0 1 29.610667-35.754666H857.63584a30.122667 30.122667 0 0 1 29.610667 24.490666l99.072 521.088a30.165333 30.165333 0 0 1-6.4 24.874667M150.350507 750.421333h274.176l72.533333-115.84a30.122667 30.122667 0 0 1 25.6-14.208h298.453333v-105.685333H214.649173a30.122667 30.122667 0 0 1-29.610666-24.490667l-34.688-182.314666zM832.67584-6.399999999999977H151.886507l87.68 460.8H920.35584zM315.29984 249.25866699999995h452.266667a30.122667 30.122667 0 0 1 0 60.245333h-452.266667a30.122667 30.122667 0 0 1 0-60.245333M279.33184 89.25866699999995h196.906667a30.122667 30.122667 0 0 1 0 60.245333H279.33184a30.122667 30.122667 0 0 1 0-60.245333"  horiz-adv-x="1024" />

    
    <glyph glyph-name="zu1822" unicode="&#58968;" d="M851.328 222.976a163.541333 163.541333 0 1 1-163.541333-163.541333 163.754667 163.754667 0 0 1 163.541333 163.541333m-163.541333-108.373333a108.416 108.416 0 1 0 108.416 108.416 108.544 108.544 0 0 0-108.416-108.416M220.458667 471.381333h503.466666a27.562667 27.562667 0 0 1 0 55.125334h-503.466666a27.562667 27.562667 0 0 1 0-55.125334M220.458667 330.282667H444.16a27.562667 27.562667 0 1 1 0 55.125333H220.458667a27.562667 27.562667 0 1 1 0-55.125333M421.76 244.266667H220.458667a27.562667 27.562667 0 0 1 0-55.125334h201.301333a27.562667 27.562667 0 0 1 0 55.125334M510.762667 224.896a178.261333 178.261333 0 0 0 325.504 100.693333 27.562667 27.562667 0 0 1 50.261333 15.786667l-2.304 329.984a46.634667 46.634667 0 0 1-46.592 46.592h-156.586667V776.746667a27.562667 27.562667 0 0 1-55.125333 0v-58.752H343.637333V776.746667a27.562667 27.562667 0 0 1-55.125333 0v-58.752h-156.586667A46.634667 46.634667 0 0 1 85.333333 671.36v-563.968a46.634667 46.634667 0 0 1 46.592-46.592h403.114667a27.562667 27.562667 0 0 1 20.608 45.866667 177.834667 177.834667 0 0 0-44.885333 118.229333m-370.304-109.013333V662.869333h148.053333v-58.752a27.562667 27.562667 0 0 1 55.125333 0V662.869333h282.154667v-58.752a27.562667 27.562667 0 0 1 55.125333 0V662.869333h148.096l1.749334-252.629333a233.386667 233.386667 0 0 1-348.117334-294.4zM925.397333 16.682667l-88.789333 85.333333a27.605333 27.605333 0 0 1-38.4-39.722667l88.746667-85.333333a27.605333 27.605333 0 1 1 38.4 39.722667"  horiz-adv-x="1024" />

    
    <glyph glyph-name="zu1494" unicode="&#58969;" d="M920.490667 627.456L543.146667 845.312a65.28 65.28 0 0 1-65.28 0L100.565333 627.456A30.464 30.464 0 0 1 85.333333 601.088v-455.765333a30.421333 30.421333 0 0 1 15.232-26.368l394.752-227.925334a30.506667 30.506667 0 0 1 30.464 0l394.752 227.925334a30.421333 30.421333 0 0 1 15.232 26.368V601.088a30.464 30.464 0 0 1-15.232 26.368M874.666667 162.90133300000002l-364.16-210.346666-364.288 210.346666V583.552l362.112 209.066667a4.266667 4.266667 0 0 0 4.266666 0l362.112-209.066667zM373.674667 491.264a135.338667 135.338667 0 0 1 60.501333-112.554667H354.944a54.528 54.528 0 0 1-52.693333-40.618666l-37.418667-143.146667a54.570667 54.570667 0 0 1-1.706667-13.653333 54.442667 54.442667 0 0 1 54.144-54.101334h386.005334a54.314667 54.314667 0 0 1 52.821333 67.882667l-37.333333 143.061333a54.485333 54.485333 0 0 1-52.778667 40.576h-79.104a136.064 136.064 0 1 1-213.333333 112.554667m226.133333-173.44h61.184l33.834667-129.706667h-369.066667l34.133333 129.706667h61.184l42.666667-70.570667a54.698667 54.698667 0 0 1 93.312 0zM464.298667 363.434667a142.037333 142.037333 0 0 1 91.861333 0l-45.610667-75.605334z m121.898666 128a75.989333 75.989333 0 1 0-75.989333 74.752 75.477333 75.477333 0 0 0 76.288-74.922667"  horiz-adv-x="1024" />

    
    <glyph glyph-name="jiceng" unicode="&#58964;" d="M512 464.2H271.4c-16.6 0-30 13.5-30 30 0 16.6 13.5 30 30 30H512c16.6 0 30-13.5 30-30 0-16.6-13.4-30-30-30z m180.4 120.3h-421c-16.6 0-30 13.5-30 30s13.5 30 30 30h421c16.6 0 30-13.5 30-30s-13.3-30-30-30zM832.8 3H191.2c-38.7 0-70.2 31.4-70.2 70.2v80.2c0 38.7 31.4 70.2 70.2 70.2h79.5l57.8 69.4c11.4 13.8 34.8 13.8 46.2 0l57.8-69.4h400.3c38.7 0 70.2-31.4 70.2-70.2v-80.2c0-38.6-31.4-70.2-70.2-70.2zM191.2 163.4c-5.5 0-10-4.5-10-10v-80.2c0-5.5 4.5-10 10-10h641.6c5.5 0 10 4.5 10 10v80.2c0 5.5-4.5 10-10 10H418.4c-9 0-17.4 3.9-23.2 10.8l-43.7 52.5-43.7-52.5c-5.8-6.9-14.2-10.8-23.2-10.8h-93.4zM672.5 263.7c-9 0-17.4 3.9-23.2 10.8l-57.8 69.4H471.8c-16.6 0-30 13.5-30 30 0 16.6 13.5 30 30 30h133.7c9 0 17.4-3.9 23.2-10.8l43.7-52.5 43.7 52.5c5.8 6.9 14.2 10.8 23.2 10.8h93.6c5.5 0 10 4.5 10 10V694.8c0 5.5-4.5 10-10 10H191.2c-5.5 0-10-4.5-10-10v-280.6c0-5.5 4.5-10 10-10h100.5c16.6 0 30-13.5 30-30s-13.5-30-30-30H191.2c-38.7 0-70.2 31.4-70.2 70.2V694.8c0 38.7 31.4 70.2 70.2 70.2h641.6c38.7 0 70.2-31.4 70.2-70.2v-280.6c0-38.7-31.4-70.2-70.2-70.2h-79.5l-57.8-69.5c-5.8-6.9-14.2-10.8-23-10.8z"  horiz-adv-x="1024" />

    
    <glyph glyph-name="mian-renwutezhengku" unicode="&#58958;" d="M882.56 653.909333l-317.44 183.210667a119.936 119.936 0 0 1-120.533333 0L127.146667 653.909333A83.669333 83.669333 0 0 1 85.333333 581.418667v-387.712a83.669333 83.669333 0 0 1 41.813334-72.533334l335.914666-193.706666a83.413333 83.413333 0 0 1 83.541334 0l335.914666 193.962666a83.584 83.584 0 0 1 41.813334 72.533334V581.418667a83.584 83.584 0 0 1-41.813334 72.533333m-377.685333-29.013333a111.872 111.872 0 1 0-113.109333-111.914667 112.512 112.512 0 0 0 113.152 111.829333M731.904 170.666667a25.301333 25.301333 0 0 0-15.744-11.434667 24.704 24.704 0 0 0-6.442667-0.938667h-409.6a25.6 25.6 0 0 0-25.6 25.344 38.826667 38.826667 0 0 0 0.768 6.485334l39.722667 151.808a25.6 25.6 0 0 0 24.789333 19.029333h88.149334l54.912-90.410667a26.154667 26.154667 0 0 1 22.016-12.202666 25.6 25.6 0 0 1 21.973333 12.202666l54.912 90.410667h88.362667a25.6 25.6 0 0 0 24.789333-19.029333l39.722667-151.978667a25.898667 25.898667 0 0 0-2.773334-19.242667"  horiz-adv-x="1024" />

    
    <glyph glyph-name="mian-xitongguanli" unicode="&#58960;" d="M948.096 287.018667a35.754667 35.754667 0 0 1-18.176 31.104l-176.170667 100.906666a35.797333 35.797333 0 0 1-36.010666 0l-175.274667-102.144a35.541333 35.541333 0 0 1-17.792-31.317333l0.725333-202.837333a35.84 35.84 0 0 1 18.176-31.146667l176.170667-100.778667a35.84 35.84 0 0 1 36.010667 0l175.274666 102.058667a35.626667 35.626667 0 0 1 17.834667 31.317333z m-130.090667-148.693334a93.568 93.568 0 1 0-34.730666 128 93.866667 93.866667 0 0 0 34.730666-128M452.309333 59.605333H141.568a27.008 27.008 0 1 1 0-53.973333h310.741333a27.008 27.008 0 1 1 0 53.973333M432.426667 163.669333v203.776l304.469333 177.621334 177.834667-103.808v311.466666a58.026667 58.026667 0 0 1-58.154667 57.898667H143.36A58.026667 58.026667 0 0 1 85.333333 752.64v-530.816a57.984 57.984 0 0 1 58.026667-57.984z"  horiz-adv-x="1024" />

    
    <glyph glyph-name="mian-sucaiku" unicode="&#58961;" d="M204.8 509.482667h661.333333V629.845333a24.106667 24.106667 0 0 1-22.912 25.258667H543.146667a33.450667 33.450667 0 0 0-28.373334 15.616l-63.914666 102.4a35.84 35.84 0 0 1-30.378667 17.066667H129.578667a24.106667 24.106667 0 0 1-22.912-25.216v-579.029334a7.082667 7.082667 0 0 1 14.08-1.322666l57.642666 302.933333a26.794667 26.794667 0 0 0 26.410667 21.930667M244.138667 455.808a20.608 20.608 0 0 1-20.266667-16.768L138.24-10.837333a17.749333 17.749333 0 0 1 17.408-21.077334h678.016a20.650667 20.650667 0 0 1 20.266667 16.768l85.333333 449.877334a17.706667 17.706667 0 0 1-17.408 21.077333z m232.533333-379.477333h-204.8a27.093333 27.093333 0 0 0-26.837333 26.837333 26.794667 26.794667 0 0 0 26.837333 26.837333h204.8a26.837333 26.837333 0 0 0 0-53.674666m302.72 166.4H309.376a26.837333 26.837333 0 1 0 0 53.674666h470.016a26.837333 26.837333 0 1 0 0-53.674666"  horiz-adv-x="1024" />

    
    <glyph glyph-name="mian-renwuchaxun" unicode="&#58962;" d="M887.637333 671.573333a20.48 20.48 0 0 1-20.565333 20.394667h-173.098667v-93.098667a25.6 25.6 0 0 0-25.6-25.6 25.6 25.6 0 0 0-25.6 25.6V691.968H329.813333v-93.098667a25.6 25.6 0 0 0-25.6-25.6 25.6 25.6 0 0 0-25.6 25.6V691.968H105.514667a20.48 20.48 0 0 1-20.565334-20.394667v-608.384a20.522667 20.522667 0 0 1 20.565334-20.565333h396.8a19.072 19.072 0 0 1 16.128 29.226667 221.866667 221.866667 0 0 0-32.938667 138.453333 223.146667 223.146667 0 0 0 207.445333 201.130667 221.866667 221.866667 0 0 0 157.141334-52.138667 23.509333 23.509333 0 0 1 39.253333 17.493333zM418.56 155.605333H201.429333a25.6 25.6 0 0 0-25.6 25.6 25.6 25.6 0 0 0 25.6 25.6H418.56a25.6 25.6 0 0 0 25.6-25.6 25.6 25.6 0 0 0-25.856-25.6z m24.277333 152.234667H201.429333a25.6 25.6 0 0 0-25.6 25.6 25.6 25.6 0 0 0 25.6 25.6h241.408a25.6 25.6 0 0 0 25.6-25.6 25.6 25.6 0 0 0-25.642666-25.6z m301.909334 152.234667H201.429333a25.6 25.6 0 0 0-25.6 25.6 25.6 25.6 0 0 0 25.6 25.6h543.317334a25.6 25.6 0 0 0 25.6-25.6 25.6 25.6 0 0 0-25.685334-25.6zM705.450667 360.021333a172.501333 172.501333 0 0 1-172.245334-172.288 172.458667 172.458667 0 0 1 172.245334-172.117333 172.416 172.416 0 0 1 172.074666 172.117333 172.458667 172.458667 0 0 1-172.074666 172.288z m-97.536-147.968a111.488 111.488 0 0 1-4.266667-30.933333 17.066667 17.066667 0 0 0-17.066667-17.066667 17.066667 17.066667 0 0 0-17.066666 17.066667 146.688 146.688 0 0 0 5.589333 40.277333 17.066667 17.066667 0 0 0 21.077333 11.733334 17.066667 17.066667 0 0 0 11.904-21.077334z m103.936 80.341334a76.16 76.16 0 0 1-80.682667-37.376 17.066667 17.066667 0 0 0-14.933333-8.832 18.005333 18.005333 0 0 0-8.149334 2.048 17.066667 17.066667 0 0 0-6.656 23.125333 110.165333 110.165333 0 0 0 116.224 54.698667 17.066667 17.066667 0 0 0 13.781334-19.712 17.066667 17.066667 0 0 0-19.413334-13.738667zM330.026667 785.194667a25.6 25.6 0 0 1-25.6 25.6 25.6 25.6 0 0 1-25.6-25.6v-93.269334H329.813333zM693.930667 785.194667a25.6 25.6 0 0 1-25.6 25.6 25.6 25.6 0 0 1-25.6-25.6v-93.269334h50.986666zM959.061333-37.802667l-95.744 92.202667a25.6 25.6 0 0 1-36.010666-0.682667 25.6 25.6 0 0 1 0.682666-36.010666l95.744-92.202667a25.344 25.344 0 0 1 17.664-7.125333 25.344 25.344 0 0 1 18.346667 7.808 25.6 25.6 0 0 1-0.682667 36.010666z"  horiz-adv-x="1024" />

    
    <glyph glyph-name="mian-wodesucai" unicode="&#58963;" d="M187.733333 500.394667h689.664V625.962667a25.130667 25.130667 0 0 1-24.064 26.453333h-312.661333a34.858667 34.858667 0 0 0-29.610667 16.426667l-66.688 106.794666a37.376 37.376 0 0 1-31.701333 17.578667H109.226667a25.130667 25.130667 0 0 1-23.893334-26.325333v-604.032a7.381333 7.381333 0 0 1 14.677334-1.365334l60.16 315.989334a27.989333 27.989333 0 0 0 27.562666 22.912M935.808 444.416H228.650667a21.333333 21.333333 0 0 1-21.077334-17.536l-89.6-469.333333a18.517333 18.517333 0 0 1 18.133334-22.016h182.314666a212.224 212.224 0 0 0 413.184 0h112a21.333333 21.333333 0 0 1 21.077334 17.536l89.216 469.333333a18.517333 18.517333 0 0 1-18.090667 22.058667m-410.794667-308.693334a105.813333 105.813333 0 1 0 105.813334 105.813334 105.856 105.856 0 0 0-105.813334-105.813334"  horiz-adv-x="1024" />

    
    <glyph glyph-name="shezhifengmian" unicode="&#58950;" d="M963.171267 824.657327h-115.931844v38.773192a32.569481 32.569481 0 0 1-32.569481 32.569481h-264.433169a32.569481 32.569481 0 0 1-32.569482-32.569481v-38.773192H87.207314A58.780159 58.780159 0 0 1 28.194516 766.2649v-835.794927a58.780159 58.780159 0 0 1 59.012798-58.392427h849.44309a58.780159 58.780159 0 0 1 59.012798 58.392427V792.087846a32.569481 32.569481 0 0 1-32.491935 32.569481z m-379.977281 6.048618h199.294207v-364.080273l-77.546384 84.525559a32.569481 32.569481 0 0 1-24.039379 10.623854 32.569481 32.569481 0 0 1-24.116926-10.856494l-73.746611-82.741991z m347.795532-893.489436H93.488571v821.99167h424.41136V382.410299a32.491935 32.491935 0 0 1 20.937523-30.398182 31.716471 31.716471 0 0 1 11.554411-2.171299 32.569481 32.569481 0 0 1 24.349565 10.856494l106.626278 119.576524 109.495494-119.809164a32.724574 32.724574 0 0 1 35.826429-8.375009 32.569481 32.569481 0 0 1 20.782431 30.398183V759.285725h83.362363z"  horiz-adv-x="1024" />

    
    <glyph glyph-name="lujingbeifen6-copy" unicode="&#60430;" d="M1109.73202168 652.3895349100001H438.65751317C423.28836993 652.3895349100001 408.38902579 647.557315 396.44270514 638.89958809c-28.85908955-21.0738472-33.35573865-59.39603357-10.06712424-85.43632847l335.57081134-374.16145432a64.56382427 64.56382427 0 0 1 9.93289591-8.99329771c28.85908955-21.14096137 71.14101175-17.04699721 94.63096865 8.99329771l335.36946885 374.16145432A57.04703803 57.04703803 0 0 1 1176.84618396 591.71833236c0.06711417 33.55708114-30.06714492 60.67120256-67.11416228 60.67120255z"  horiz-adv-x="1536" />

    
    <glyph glyph-name="jiantouarrow486" unicode="&#59050;" d="M171.15136 554.99776l684.02176 0-342.016-341.99552L171.15136 554.99776z"  horiz-adv-x="1024" />

    
    <glyph glyph-name="jiantouarrow492" unicode="&#59056;" d="M855.16288 213.00224 171.14112 213.00224l342.016 341.99552L855.16288 213.00224z"  horiz-adv-x="1024" />

    
    <glyph glyph-name="tongbu_huaban1fuben102" unicode="&#58957;" d="M286.24 424.16A28 28 0 1 1 247.52 464l-40.48-38.72a309.28 309.28 0 0 0 588.16 105.76 28 28 0 1 1 50.72 23.84 365.28 365.28 0 0 1-695.84-142.88l-50.56 61.28a28 28 0 1 1-43.2-35.68l88.48-107.2a28.32 28.32 0 0 1 20-10.4h1.6a28.16 28.16 0 0 1 19.36 7.68zM967.68 346.4L880 453.76a28.32 28.32 0 0 1-20.8 10.24 28.96 28.96 0 0 1-20.96-7.68l-100.48-96A28 28 0 0 1 776.48 320l40.48 38.72a309.28 309.28 0 0 0-588.16-105.6 28 28 0 0 1-50.72-23.84 365.28 365.28 0 0 1 695.84 142.72l50.56-61.28a28.48 28.48 0 0 1 21.6-10.08 27.84 27.84 0 0 1 21.6 45.76zM667.52 479.04H370.56a28 28 0 0 1 0-56h296.96a28 28 0 0 1 0 56zM667.52 319.04H370.56a28 28 0 1 1 0-56h296.96a28 28 0 0 1 0 56z"  horiz-adv-x="1024" />

    
    <glyph glyph-name="sousuo1" unicode="&#58956;" d="M919.179 16.323999999999955L743.601 190.85699999999997c-0.25 0.249-0.508 0.485-0.765 0.723 54.864 64.213 87.997 147.552 87.997 238.632 0 202.998-164.562 367.56-367.56 367.56S95.713 633.21 95.713 430.212s164.562-367.56 367.56-367.56c91.779 0 175.699 33.641 240.109 89.261 0.242-0.26 0.485-0.52 0.739-0.773l175.578-174.533a27.912 27.912 0 0 1 19.739-8.142c7.194 0 14.387 2.755 19.859 8.26 10.901 10.968 10.849 28.697-0.118 39.599z m-334.65 126.789c-38.375-16.231-79.171-24.461-121.256-24.461-42.085 0-82.881 8.23-121.256 24.461-37.094 15.689-70.419 38.162-99.05 66.793-28.631 28.631-51.104 61.956-66.793 99.05-16.231 38.375-24.461 79.171-24.461 121.256 0 42.085 8.23 82.881 24.461 121.256 15.689 37.094 38.162 70.419 66.793 99.05 28.631 28.631 61.956 51.104 99.05 66.793 38.375 16.231 79.171 24.461 121.256 24.461 42.085 0 82.881-8.23 121.256-24.461 37.094-15.689 70.419-38.162 99.05-66.793 28.631-28.631 51.104-61.956 66.793-99.05 16.231-38.375 24.461-79.171 24.461-121.256 0-42.085-8.23-82.881-24.461-121.256-15.689-37.094-38.162-70.419-66.793-99.05-28.631-28.631-61.956-51.103-99.05-66.793z"  horiz-adv-x="1024" />

    
    <glyph glyph-name="yejianmoshishenyemoshiyueliang" unicode="&#58954;" d="M501.76-41.472c-190.976 0-361.984 121.344-425.472 301.568-3.072 9.216-0.512 19.968 7.168 26.624 7.68 6.656 18.432 7.68 27.136 3.584 57.344-29.184 118.784-44.032 182.272-44.032 221.696 0 402.432 180.736 402.432 402.432 0 44.544-7.68 89.6-23.04 133.12-3.072 9.216-0.512 19.968 7.168 26.624s18.432 7.68 27.136 3.584c152.064-77.312 246.784-231.424 246.784-401.92-0.512-249.344-202.752-451.584-451.584-451.584z m-355.84 263.68c68.608-130.56 205.312-215.04 355.328-215.04 221.696 0 402.432 180.736 402.432 402.432 0 132.096-63.488 252.928-169.472 327.68 6.144-29.184 9.216-58.88 9.216-89.088 0-248.832-202.24-451.072-451.072-451.072-50.176 0.512-99.328 8.704-146.432 25.088z"  horiz-adv-x="1024" />

    
    <glyph glyph-name="taiyang" unicode="&#58955;" d="M270.933 172.8l-89.6-89.6c-8.533-8.533-8.533-21.333 0-29.867 8.534-8.533 21.334-8.533 29.867 0l89.6 89.6c8.533 8.534 8.533 21.334 0 29.867-8.533 8.533-21.333 8.533-29.867 0z m-57.6 211.2c0 12.8-8.533 21.333-21.333 21.333H64c-12.8 0-21.333-8.533-21.333-21.333S51.2 362.667 64 362.667h128c12.8 0 21.333 8.533 21.333 21.333z m539.734 211.2l89.6 89.6c8.533 8.533 8.533 21.333 0 29.867-8.534 8.533-21.334 8.533-29.867 0l-89.6-89.6c-8.533-8.534-8.533-21.334 0-29.867 8.533-8.533 21.333-8.533 29.867 0zM512 682.667c12.8 0 21.333 8.533 21.333 21.333V832c0 12.8-8.533 21.333-21.333 21.333S490.667 844.8 490.667 832v-128c0-12.8 8.533-21.333 21.333-21.333zM270.933 595.2c8.534-8.533 21.334-8.533 29.867 0 8.533 8.533 8.533 21.333 0 29.867L211.2 716.8c-8.533 8.533-21.333 8.533-29.867 0-8.533-8.533-8.533-21.333 0-29.867l89.6-91.733zM960 405.333H832c-12.8 0-21.333-8.533-21.333-21.333S819.2 362.667 832 362.667h128c12.8 0 21.333 8.533 21.333 21.333S972.8 405.333 960 405.333zM753.067 172.8c-8.534 8.533-21.334 8.533-29.867 0-8.533-8.533-8.533-21.333 0-29.867l89.6-89.6c8.533-8.533 21.333-8.533 29.867 0 8.533 8.534 8.533 21.334 0 29.867l-89.6 89.6zM512 640c-140.8 0-256-115.2-256-256s115.2-256 256-256 256 115.2 256 256-115.2 256-256 256z m0-469.333c-117.333 0-213.333 96-213.333 213.333s96 213.333 213.333 213.333 213.333-96 213.333-213.333-96-213.333-213.333-213.333z m0-85.334c-12.8 0-21.333-8.533-21.333-21.333v-128c0-12.8 8.533-21.333 21.333-21.333S533.333-76.8 533.333-64V64c0 12.8-8.533 21.333-21.333 21.333z"  horiz-adv-x="1024" />

    
    <glyph glyph-name="tupian" unicode="&#58949;" d="M918.691833 746.0758510000001H108.740166c-54.370083 0-98.44417-44.254719-98.44417-98.44417V92.18980399999998c0-54.370083 44.254719-98.44417 98.44417-98.44417h809.951667c54.370083 0 98.44417 44.254719 98.44417 98.44417V647.631681c0 54.189451-44.074087 98.44417-98.44417 98.44417zM108.740166 681.409772h809.951667c18.605045 0 33.778091-15.173046 33.778091-33.778091v-444.534133c-68.278709 106.391956-120.842477 174.851297-175.393191 184.244135-20.050097 3.431999-39.016405-1.445052-54.911977-14.089258l-2.890104-2.709472c-35.765038-36.487564-57.982713-71.530076-77.490916-102.418063-23.662727-37.390721-40.642089-64.304816-71.710707-77.310284-0.361263 0-13.1861 0.541895-42.809667 38.835773-23.843359 30.526724-48.951138 72.433233-75.503969 116.687952-30.887987 51.479979-62.859764 104.585641-94.83154 142.87952-35.945669 42.809667-73.155759 45.699771-98.082907 40.642089-73.697654-15.173046-137.641207-125.358264-183.70224-234.459693v352.231434c-0.180632 18.605045 14.992415 33.778091 33.59746 33.778091z m809.951667-623.178691H108.740166c-18.605045 0-33.778091 15.173046-33.778092 33.778092v10.83789C136.015523 305.696243 216.757806 454.717234 271.850415 466.097019c4.696419 0.903158 16.979361 3.431999 35.584406-18.785677 28.720409-34.319986 59.427765-85.25807 89.051332-134.570471 59.789028-99.527959 112.352796-187.31487 172.683718-187.31487 8.489681 0 16.979361 1.806315 25.830305 5.418945 49.854295 20.772623 74.962074 60.330923 101.514906 102.418063 17.521256 27.63662 37.21009 58.885871 67.19492 89.95449 0.722526 0.361263 1.445052 0.361263 2.528841 0.180631 38.835774-6.683366 116.326689-130.054683 162.568354-203.932969 7.767155-12.282942 15.173046-24.204622 22.578938-35.765038-3.61263-14.45052-16.979361-25.469042-32.694302-25.469042zM764.071265 424.913036c61.053449 0 110.546481 49.673664 110.546481 110.546481s-49.673664 110.546481-110.546481 110.546481-110.546481-49.673664-110.546481-110.546481 49.673664-110.546481 110.546481-110.546481z m0 156.426883c25.288411 0 45.880402-20.591992 45.880402-45.880402 0-25.288411-20.591992-45.880402-45.880402-45.880403s-45.880402 20.591992-45.880402 45.880403c0 25.288411 20.591992 45.880402 45.880402 45.880402z"  horiz-adv-x="1024" />

    
    <glyph glyph-name="yewan" unicode="&#58959;" d="M1064.751254 709.675403l-18.362647 11.839076-9.906165 21.74524c-3.624207 6.765186-6.281958 0.241614-6.523572 0l-9.906165-21.74524-18.362647-11.839076c-0.966455-0.724841-4.832276-3.86582 0.241614-7.73164l18.121033-11.839076 9.906165-21.503626s2.899365-6.765186 6.523572 0l9.906165 21.503626 18.121033 11.839076c5.073889 3.86582 1.208069 7.0068 0.241614 7.73164z m-16.671351-5.557116l-8.456482-5.557117-4.832276-10.389393c-1.691296-3.140979-3.140979 0-3.140979 0l-4.590662 10.389393-8.698096 5.557117a1.93291 1.93291 0 0 0 0 3.624206l8.698096 5.557117 4.590662 10.389393c0.241614 0 1.449683 3.140979 3.140979 0l4.832276-10.389393 8.698096-5.557117c0.483228-0.241614 2.174524-1.93291-0.241614-3.624206zM300.526874 731.17903L218.136575 784.817288 173.196413 882.187641c-16.188123 30.443336-28.75204 1.208069-29.235267 0.241614L99.020983 784.817288 16.630685 731.17903c-4.349048-2.899365-21.986854-17.396192 0.966455-34.792384l81.423843-52.913418L143.719532 546.344489s13.047144-31.168177 29.476881 0h0.241614l44.698548 97.128739 81.18223 52.913418c23.194923 17.396192 5.557117 31.893019 1.208069 34.792384zM225.384989 705.809583l-38.658205-25.127833-21.262012-46.148232c-7.731641-14.73844-14.013599 0-14.013599 0l-21.262013 46.148232-38.658204 25.127833c-10.87262 8.214868-2.416138 14.980054-0.483228 16.429737l39.141432 25.61106 21.503627 46.389846c0.241614 0.483228 6.040344 14.255213 13.771985-0.241614l21.262012-46.148232L225.868216 722.23932c2.174524-1.449683 10.631006-8.214868-0.483227-16.429737zM329.762141 323.8182l-35.517225 23.194923-19.329103 42.040797c-7.0068 13.288758-12.563916 0.724841-12.80553 0.241614l-19.329102-42.282411-35.758839-23.194923c-1.93291-1.449683-9.422937-7.490027 0.483227-15.221668l35.275612-22.711695 19.329102-42.040798s5.557117-13.530372 12.80553 0l19.329103 42.040798 35.275611 22.711695c9.906165 7.731641 2.174524 13.771985 0.241614 15.221668z m-32.376246-11.114234l-16.671351-10.87262-9.181324-19.81233c-3.382593-6.523572-6.040344 0-6.040344 0l-9.181324 19.81233-16.912964 10.87262c-4.590662 3.624207-0.966455 6.523572 0 7.248413l16.912964 11.114234 9.181324 20.053944c0 0.241614 2.657752 6.040344 6.040344-0.241614l9.181324-19.81233 16.912964-11.114234c0.966455-0.724841 4.590662-3.624207-0.241613-7.248413zM874.842824 286.851292c-27.060743-107.759745-94.712601-203.922029-192.082953-263.600632-231.707613-141.827288-456.891654 13.288758-456.891655 13.288758C782.304747 177.883478 647.484259 770.320462 647.484259 770.320462c103.893925-48.564369 165.263824-118.149137 200.056208-192.324568l72.484134 29.960109A507.630548 507.630548 0 0 1 621.389971 859.475946C523.053163 879.046662 550.113907 795.689908 550.113907 795.689908h-0.241614a500.865362 500.865362 0 0 0 35.517225-185.317767c0-260.701267-197.156843-475.012688-450.609696-502.798272s-89.155484-26.094288 6.523572-114.041704a502.556658 502.556658 0 0 1 328.353124-121.53173c255.14415 0 466.072978 188.941974 500.865362 434.421573zM847.540467 577.995894s14.73844-26.335902 48.56437-12.80553c0 0 29.235267 12.080689 23.919764 42.765639h-43.49048zM874.842824 286.851292s0 34.792384 39.866274 41.55757c0 0 41.799184 10.147779 55.812782-21.986854l-25.127833-34.067543z"  horiz-adv-x="1067" />

    
    <glyph glyph-name="zu2000" unicode="&#58946;" d="M497.948444 153.486222a26.225778 26.225778 0 0 0-26.225777 26.225778V611.157333a26.225778 26.225778 0 0 0 52.394666 0v-431.445333a26.225778 26.225778 0 0 0-26.225777-26.225778M713.671111 369.265778H282.225778a26.225778 26.225778 0 0 0 0 52.394666h431.445333a26.225778 26.225778 0 0 0 0-52.394666"  horiz-adv-x="1024" />

    
    <glyph glyph-name="zu1999" unicode="&#58947;" d="M699.539224 216.589815H285.667403a21.558194 21.558194 0 1 1 0-43.116388h413.871821a21.558194 21.558194 0 1 1 0 43.116388M493.45654 290.991182a21.558194 21.558194 0 0 1 21.558194-21.558194h184.581372a21.558194 21.558194 0 1 1 0 43.116388H514.957852a21.558194 21.558194 0 0 1-21.558194-21.558194M302.788818 237.977364a40.954881 40.954881 0 0 1 10.124957 1.308281l96.243969 24.459165a21.558194 21.558194 0 0 1 9.954311 5.688178l260.916719 261.997472a51.193601 51.193601 0 0 1-0.511936 72.808677l-51.193601 50.169729a51.193601 51.193601 0 0 1-72.29674-0.511936L294.711605 391.444403a21.728839 21.728839 0 0 1-5.688177-9.499257l-25.198628-92.717299a40.61359 40.61359 0 0 1 38.964018-51.193601M306.599897 282.117624l22.752712 82.933633L586.572012 623.408296a8.190976 8.190976 0 0 0 11.376356 0l51.1936-50.169729a8.134094 8.134094 0 0 0 0-11.376355L392.775792 304.017109z"  horiz-adv-x="1024" />

    
    <glyph glyph-name="zu1998" unicode="&#58948;" d="M643.584 511.544889H350.378667a51.2 51.2 0 0 1-38.115556-17.066667 45.511111 45.511111 0 0 1-11.377778-35.953778l31.914667-275.626666a49.038222 49.038222 0 0 1 49.664-42.268445h229.148444a49.038222 49.038222 0 0 1 49.607112 42.268445l31.914666 275.626666a45.511111 45.511111 0 0 1-11.377778 35.953778 51.2 51.2 0 0 1-38.115555 17.066667m-21.902222-323.754667a9.614222 9.614222 0 0 0-10.012445-6.997333H382.350222a9.614222 9.614222 0 0 0-10.012444 6.997333l-31.914667 275.626667a5.688889 5.688889 0 0 0 1.706667 4.778667 11.036444 11.036444 0 0 0 8.305778 3.413333h293.148444a11.036444 11.036444 0 0 0 8.305778-3.413333 5.688889 5.688889 0 0 0 1.706666-4.778667zM447.772444 419.441778a19.968 19.968 0 0 1-19.968-19.968v-141.312a19.968 19.968 0 0 1 39.822223 0V399.473778a19.968 19.968 0 0 1-19.968 19.968M546.247111 419.441778a19.968 19.968 0 0 1-19.968-19.968v-141.312a19.968 19.968 0 0 1 39.822222 0V399.473778a19.968 19.968 0 0 1-19.968 19.968M703.943111 566.272H290.019556a19.968 19.968 0 0 1 0-39.822222h413.923555a19.968 19.968 0 0 1 0 39.822222M445.610667 571.733333h102.798222a19.968 19.968 0 1 1 0 39.822223H445.610667a19.968 19.968 0 1 1 0-39.822223"  horiz-adv-x="1024" />

    
    <glyph glyph-name="zu1928" unicode="&#58944;" d="M570.52239562 35.43999588999998l-152.44140838-157.4751221a9.32380833 9.32380833 0 0 0-16.07355954 6.5209469v189.67944063a9.32380833 9.32380833 0 0 0 11.44025675 9.15220509l152.44140838-32.20432022a9.38100941 9.38100941 0 0 0 4.80490771-15.6731503M840.74123895 758.57856591L744.92909519 91.38284752000004a9.32380833 9.32380833 0 0 0-11.44025509-7.77937404l-273.76532217 57.8304924a9.32380833 9.32380833 0 0 0-4.63330279 15.78755246l274.85214608 271.24846615a33.2911441 33.2911441 0 1 1-46.73344548 47.36265908l-308.08608912-304.08199992a9.38100941 9.38100941 0 0 0-8.75179582-2.45965496L-2.97762744 258.1245752a9.38100941 9.38100941 0 0 0-2.57405877 17.16038349L826.72692504 768.01677639a9.32380833 9.32380833 0 0 0 14.01431391-9.38100942"  horiz-adv-x="1024" />

    
    <glyph glyph-name="zu1929" unicode="&#58945;" d="M788.35230496 209.98790560999998l39.04965382-239.69979049a43.99594269 43.99594269 0 0 0-64.62717708-45.55793074L558.21967772 36.802690859999984a93.06834227 93.06834227 0 0 1-100.4226925 0l-204.75035221-112.39791903a43.99594269 43.99594269 0 0 0-64.62717709 45.55792886l37.29241942 238.13780626a114.48056784 114.48056784 0 0 1-31.36988922 102.31009303L25.1919029 483.791063a43.99594269 43.99594269 0 0 0 24.53619978 74.12925827L282.78945202 595.86356952a104.13240958 104.13240958 0 0 1 84.6075846 62.93502479L466.84348775 869.9270554A43.99594269 43.99594269 0 0 0 546.37461541 869.60164289L644.64957882 656.39053297a114.74090015 114.74090015 0 0 1 84.60758269-62.86994268l232.3454403-35.99076556a43.99594269 43.99594269 0 0 0 24.7965302-74.19434228L819.72219224 312.23291653a119.88243727 119.88243727 0 0 1-31.50005343-102.24501092"  horiz-adv-x="1024" />

    
    <glyph glyph-name="jinhangzhong" unicode="&#58943;" d="M352.8704 60.928a25.6 25.6 0 0 0-40.1408 31.744C358.4 150.3744 425.6256 179.2 512 179.2c86.3744 0 153.6-28.8256 199.2704-86.528a25.6 25.6 0 0 0-40.1408-31.744C635.8016 105.6256 583.5264 128 512 128s-123.7504-22.3744-159.1296-67.072zM237.4144 574.4128c35.1744-72.3456 86.1696-128.3584 153.2928-168.448a25.6 25.6 0 0 0 0-43.9296c-67.1232-40.0896-118.1184-96.1024-153.2928-168.448C204.8 126.3616 185.6512 44.8 180.2752-51.2H843.776c-5.376 96-24.4736 177.5616-57.1392 244.7872-35.1744 72.3456-86.1696 128.3584-153.2928 168.448a25.6 25.6 0 0 0 0 43.9296c67.1232 40.0896 118.1184 96.1024 153.2928 168.448C819.2 641.6384 838.3488 723.2 843.7248 819.2H180.224C185.6512 723.2 204.8 641.6384 237.4144 574.4128z m-46.08-22.4256C152.3712 632.32 131.3792 729.7024 128 844.0832A25.6 25.6 0 0 0 153.6 870.4h716.8a25.6 25.6 0 0 0 25.6-26.3168c-3.328-114.3808-24.32-211.7632-63.3856-292.096-33.4848-68.8128-80.0768-124.928-139.6736-167.9872 59.5968-43.008 106.1888-99.1744 139.6736-167.9872 39.0656-80.3328 60.0576-177.7152 63.3856-292.096a25.6 25.6 0 0 0-25.6-26.3168H153.6a25.6 25.6 0 0 0-25.6 26.3168c3.328 114.3808 24.32 211.7632 63.3856 292.096 33.4848 68.8128 80.0768 124.928 139.6736 167.9872-59.5968 43.008-106.1888 99.1744-139.6736 167.9872zM51.2 819.2a25.6 25.6 0 0 0 0 51.2h921.6a25.6 25.6 0 0 0 0-51.2H51.2z m0-921.6a25.6 25.6 0 0 0 0 51.2h921.6a25.6 25.6 0 0 0 0-51.2H51.2z"  horiz-adv-x="1024" />

    
    <glyph glyph-name="ICON_bianji" unicode="&#58951;" d="M898.56 147.36H556c-13.28 0-24 10.72-24 24s10.72 24 24 24h342.56c13.28 0 24-10.72 24-24s-10.72-24-24-24zM162.24 88.8c-15.68 0-30.72 6.24-42.08 17.76a58.88 58.88 0 0 0-14.88 57.12l47.04 172c1.12 4 3.2 7.68 6.08 10.56L643.52 833.44c30.4 30.56 80.32 31.04 111.36 0.8l95.36-93.12c15.2-14.88 23.68-34.72 23.84-56s-8-41.28-23.04-56.32L366.88 142.4c-3.04-3.04-6.88-5.28-11.04-6.4l-178.56-45.28c-5.12-1.28-10.08-1.92-15.04-1.92z m34.88 228.16L151.68 151.04c-1.44-5.44 1.12-9.12 2.88-10.88 1.76-1.76 5.44-4.32 10.72-3.04l172.16 43.68 479.52 481.6c5.92 5.92 9.12 13.76 9.12 22.24 0 8.32-3.36 16.16-9.44 22.08l-95.36 93.12c-12.16 11.84-31.84 11.68-43.68-0.32L197.12 316.96z m-68.64-159.52z"  horiz-adv-x="1024" />

    
    <glyph glyph-name="zu1909" unicode="&#58938;" d="M870.4 728.64h-148.352a32.896 32.896 0 1 1 0-65.792h138.816v-683.648H99.136V662.848h137.28a32.896 32.896 0 1 1 0 65.792H89.6a56.896 56.896 0 0 1-57.6-55.68v-704a56.832 56.832 0 0 1 57.6-55.68h780.8a56.832 56.832 0 0 1 57.6 55.68v704a56.832 56.832 0 0 1-57.6 55.68M457.344 344.576a32.704 32.704 0 0 1 46.208 0l102.4 102.4a32.704 32.704 0 1 1-46.208 46.208l-47.104-47.104V776.768a32.704 32.704 0 0 1-65.408 0v-329.664l-47.104 47.104A32.704 32.704 0 0 1 353.92 448z"  horiz-adv-x="1024" />

    
    <glyph glyph-name="zu1135" unicode="&#58939;" d="M596.672 536.064a37.76 37.76 0 0 1 27.136 11.456l197.632 202.88a37.952 37.952 0 1 1-54.528 52.864l-197.632-202.88a37.888 37.888 0 0 1 27.136-64M771.776 434.816a211.2 211.2 0 0 1-124.736-40.768L249.6 803.2a37.888 37.888 0 0 1-54.4-52.544l260.352-268.16-85.952-88.448a212.032 212.032 0 1 1 52.608-54.592l86.144 88.64 86.144-88.64a212.736 212.736 0 1 1 177.344 95.36m-526.976-349.76a137.088 137.088 0 1 0 137.088 136.896 137.28 137.28 0 0 0-137.088-136.896m526.912 0a136.896 136.896 0 0 0-100.544 229.76 137.024 137.024 0 1 0 100.544-229.76"  horiz-adv-x="1024" />

    
    <glyph glyph-name="zu1874" unicode="&#58940;" d="M854.848 792.768a35.52 35.52 0 0 1-37.76 1.024l-800-473.6a35.456 35.456 0 0 1 10.048-64.832l358.4-86.208v-256.512a35.456 35.456 0 0 1 60.928-24.704l209.856 216.704 79.424-16.832a35.456 35.456 0 0 1 42.432 29.632L870.4 758.272a35.392 35.392 0 0 1-15.36 34.496M456.256 0.256v146.752l117.952-24.96zM713.152 165.184L497.92 210.688l218.304 215.36a35.456 35.456 0 0 1-49.792 50.496L420.288 233.664l-291.584 70.4 660.8 390.976z"  horiz-adv-x="1024" />

    
    <glyph glyph-name="zu11361" unicode="&#58941;" d="M264.896-65.30133334000004a76.8 76.8 0 0 0-75.584 88.448l33.664 215.168a67.392 67.392 0 0 1-17.088 59.84L51.904 456.10666666a76.8 76.8 0 0 0 42.56 128.96l210.88 34.048h2.048a56.832 56.832 0 0 1 46.592 35.072l90.24 192A75.776 75.776 0 0 0 513.216 890.28266666h0.384a75.776 75.776 0 0 0 69.184-44.8l88.064-191.36a67.648 67.648 0 0 1 47.68-36.672l211.2-32.704a76.8 76.8 0 0 0 43.072-129.088l-150.272-154.176a71.936 71.936 0 0 1-18.496-60.928l35.008-216.512a76.8 76.8 0 0 0-112.384-79.296l-184.512 100.736-1.728 1.024a47.232 47.232 0 0 1-51.2 0.576l-2.688-1.6-184.768-101.248a76.416 76.416 0 0 0-36.864-9.536m51.2 611.648l-209.856-33.664a2.944 2.944 0 0 1-1.664-4.992l152.768-156.8a138.816 138.816 0 0 0 38.4-123.904l-33.664-215.04a2.56 2.56 0 0 1 1.216-2.88 2.624 2.624 0 0 1 3.136 0l183.744 100.416a121.024 121.024 0 0 0 128 0l183.808-100.864a2.56 2.56 0 0 1 3.136 0 2.56 2.56 0 0 1 1.216 2.944l-35.008 216.512a145.536 145.536 0 0 0 38.912 124.608l150.144 154.304a3.008 3.008 0 0 1-1.664 5.056l-210.176 32.64A138.432 138.432 0 0 0 605.44 620.52266666l-0.96 1.92-88.576 192.576a2.56 2.56 0 0 1-2.688 1.728 2.56 2.56 0 0 1-2.688-1.728L420.544 623.97866666A129.92 129.92 0 0 0 315.904 546.34666666"  horiz-adv-x="1024" />

    
    <glyph glyph-name="zu11351" unicode="&#58942;" d="M309.76-54.976a88.96 88.96 0 0 0-90.176 76.8l-63.04 544a81.984 81.984 0 0 0 20.8 64.768 92.8 92.8 0 0 0 69.376 30.464H825.6a92.8 92.8 0 0 0 69.376-30.464 82.24 82.24 0 0 0 20.864-64.768l-63.04-544a88.96 88.96 0 0 0-90.176-76.8zM224.384 588.672a19.904 19.904 0 0 1-5.312-15.68l63.04-544a26.432 26.432 0 0 1 27.584-20.736h452.736a26.432 26.432 0 0 1 27.584 20.736l63.104 544a19.968 19.968 0 0 1-5.312 15.68 29.696 29.696 0 0 1-22.272 9.408H246.656a29.76 29.76 0 0 1-22.208-9.344z m377.6-420.032v279.04a31.488 31.488 0 0 0 31.488 31.488 31.488 31.488 0 0 0 31.488-31.488v-279.04a31.488 31.488 0 0 0-31.488-31.488 31.488 31.488 0 0 0-31.872 31.552z m-194.432 0v279.04a31.488 31.488 0 0 0 31.488 31.488 31.488 31.488 0 0 0 31.488-31.488v-279.04a31.488 31.488 0 0 0-31.488-31.488 31.488 31.488 0 0 0-31.616 31.552z m-279.936 537.6a31.488 31.488 0 0 0-31.488 31.488 31.488 31.488 0 0 0 31.488 31.488h817.344a31.488 31.488 0 0 0 31.488-31.488 31.488 31.488 0 0 0-31.488-31.488z m307.2 89.6a31.488 31.488 0 0 0-31.488 31.488 31.488 31.488 0 0 0 31.488 31.424h203.008a31.488 31.488 0 0 0 31.488-31.424 31.488 31.488 0 0 0-31.488-31.488z"  horiz-adv-x="1024" />

    
    <glyph glyph-name="zu1536" unicode="&#58936;" d="M697.728-26.325333h-365.653333a85.034667 85.034667 0 0 0-84.48 85.034666v349.525334l-7.68-7.68a51.2 51.2 0 0 0-35.84-14.933334h-0.256a49.578667 49.578667 0 0 0-35.584 14.933334L57.301333 512a51.669333 51.669333 0 0 0 0 71.978667l168.533334 169.088a50.176 50.176 0 0 0 35.84 14.933333h60.586666a29.866667 29.866667 0 0 0 26.88-17.066667 185.173333 185.173333 0 0 1 165.76-103.594666A185.173333 185.173333 0 0 1 680.661333 750.933333a29.866667 29.866667 0 0 0 26.794667 17.066667h60.970667a50.304 50.304 0 0 0 35.541333-14.848l168.746667-169.344a51.754667 51.754667 0 0 0 0-72.021333l-110.933334-111.232a49.92 49.92 0 0 0-35.541333-14.933334h-0.298667a50.176 50.176 0 0 0-35.882666 14.933334l-7.68 7.637333v-349.482667a85.034667 85.034667 0 0 0-84.650667-85.034666zM261.589333 495.445333a31.104 31.104 0 0 0 12.8-2.986666l15.786667-7.594667a30.421333 30.421333 0 0 0 17.493333-27.264v-398.762667a24.405333 24.405333 0 0 1 24.32-24.704h365.653334a24.746667 24.746667 0 0 1 24.362666 24.704V456.533333a29.866667 29.866667 0 0 0 13.610667 25.173334l14.933333 9.813333a29.568 29.568 0 0 0 37.546667-3.84l37.546667-37.632 97.706666 97.792-159.146666 159.786667h-38.954667a244.565333 244.565333 0 0 0-210.346667-120.661334 244.522667 244.522667 0 0 0-210.56 120.576h-38.826666l-159.146667-159.744 97.706667-97.834666 36.266666 36.522666a29.866667 29.866667 0 0 0 21.333334 8.874667z"  horiz-adv-x="1024" />

    
    <glyph glyph-name="zu1679" unicode="&#58937;" d="M966.656 590.165333l-167.509333 167.68a49.92 49.92 0 0 1-35.413334 14.634667h-60.501333a29.866667 29.866667 0 0 1-26.752-16.682667A184.448 184.448 0 0 0 512 653.013333a184.618667 184.618667 0 0 0-164.608 102.912 29.610667 29.610667 0 0 1-26.581333 16.554667H260.266667a49.621333 49.621333 0 0 1-35.456-14.762667L57.386667 590.208a50.474667 50.474667 0 0 1 0-71.210667l110.122666-110.165333a50.261333 50.261333 0 0 1 71.168 0l7.68 7.637333v-415.914666a37.376 37.376 0 0 1 37.376-37.376h456.533334a37.376 37.376 0 0 1 37.376 37.376v415.914666l7.509333-7.637333a50.56 50.56 0 0 1 35.626667-14.762667 50.005333 50.005333 0 0 1 35.712 14.762667l110.037333 110.165333a50.346667 50.346667 0 0 1 0 71.168"  horiz-adv-x="1024" />

    
    <glyph glyph-name="zu1609" unicode="&#58934;" d="M292.750222 819.256889h731.875556v-146.375111H292.750222zM0 819.256889h146.375111v-146.375111H0z m0-365.966222h146.375111v-146.375111H0z m0-365.966223h146.375111v-146.033777H0z m292.750222 0h731.875556v-146.033777H292.750222z m0 365.966223h731.875556v-146.375111H292.750222z"  horiz-adv-x="1024" />

    
    <glyph glyph-name="zu1610" unicode="&#58935;" d="M603.022222-71.111111v364.088889H967.111111V-71.111111zM56.888889-71.111111v364.088889h364.088889V-71.111111z m546.133333 546.133333V839.111111H967.111111v-364.088889zM56.888889 475.022222V839.111111h364.088889v-364.088889z"  horiz-adv-x="1024" />

    
    <glyph glyph-name="zu1492" unicode="&#58929;" d="M912.554667 684.458667a21.333333 21.333333 0 0 1-21.333334 21.034666h-178.389333v-96a26.282667 26.282667 0 0 0-52.565333 0v96H337.621333v-96a26.282667 26.282667 0 0 0-52.565333 0v96H106.666667a21.333333 21.333333 0 0 1-21.333334-21.034666v-627.2a21.333333 21.333333 0 0 1 21.333334-21.333334h409.045333a19.669333 19.669333 0 0 1 16.64 30.122667 228.992 228.992 0 0 0 341.973333 296.405333 24.277333 24.277333 0 0 1 40.448 18.048zM428.885333 152.448H204.8a26.282667 26.282667 0 1 0 0 52.565333h224.085333a26.282667 26.282667 0 1 0 0-52.565333m25.045334 156.928H204.8a26.282667 26.282667 0 1 0 0 52.565333h249.130667a26.282667 26.282667 0 1 0 0-52.565333m311.466666 156.970667H204.8a26.282667 26.282667 0 1 0 0 52.565333h560.213333a26.282667 26.282667 0 1 0 0-52.565333M724.821333 8.149333a177.536 177.536 0 1 0 177.536 177.536 177.706667 177.706667 0 0 0-177.536-177.536m0 302.506667a124.970667 124.970667 0 1 1 124.970667-124.970667 125.098667 125.098667 0 0 1-124.970667 124.970667M337.621333 801.664v-96.170667H285.056V801.664a26.282667 26.282667 0 0 0 52.565333 0M712.874667 801.664v-96.170667h-52.565334V801.664a26.282667 26.282667 0 0 0 52.565334 0M967.850667-92.117333a26.24 26.24 0 0 0-18.218667 7.338666l-98.730667 95.104a26.282667 26.282667 0 1 0 36.48 37.845334l98.773334-95.104a26.282667 26.282667 0 0 0-18.218667-45.184"  horiz-adv-x="1024" />

    
    <glyph glyph-name="zu1530-hover" unicode="&#58930;" d="M204.8 509.482667h661.333333V629.845333a24.106667 24.106667 0 0 1-22.912 25.258667H543.146667a33.450667 33.450667 0 0 0-28.373334 15.616l-63.914666 102.4a35.84 35.84 0 0 1-30.378667 17.066667H129.578667a24.106667 24.106667 0 0 1-22.912-25.216v-579.029334a7.082667 7.082667 0 0 1 14.08-1.322666l57.642666 302.933333a26.794667 26.794667 0 0 0 26.410667 21.930667M244.138667 455.808a20.608 20.608 0 0 1-20.266667-16.768L138.24-10.837332999999944a17.749333 17.749333 0 0 1 17.408-21.077334h678.016a20.650667 20.650667 0 0 1 20.266667 16.768l85.333333 449.877334a17.706667 17.706667 0 0 1-17.408 21.077333z m232.533333-379.477333h-204.8a27.093333 27.093333 0 0 0-26.837333 26.837333 26.794667 26.794667 0 0 0 26.837333 26.837333h204.8a26.837333 26.837333 0 0 0 0-53.674666m302.72 166.4H309.376a26.837333 26.837333 0 1 0 0 53.674666h470.016a26.837333 26.837333 0 1 0 0-53.674666"  horiz-adv-x="1024" />

    
    <glyph glyph-name="zu1494-hover" unicode="&#58931;" d="M882.56 653.9093330000001l-317.44 183.210667a119.936 119.936 0 0 1-120.533333 0L127.146667 653.9093330000001A83.669333 83.669333 0 0 1 85.333333 581.418667v-387.712a83.669333 83.669333 0 0 1 41.813334-72.533334l335.914666-193.706666a83.413333 83.413333 0 0 1 83.541334 0l335.914666 193.962666a83.584 83.584 0 0 1 41.813334 72.533334V581.418667a83.584 83.584 0 0 1-41.813334 72.533333m-377.685333-29.013333a111.872 111.872 0 1 0-113.109333-111.914667 112.512 112.512 0 0 0 113.152 111.829333M731.904 170.66666699999996a25.301333 25.301333 0 0 0-15.744-11.434667 24.704 24.704 0 0 0-6.442667-0.938667h-409.6a25.6 25.6 0 0 0-25.6 25.344 38.826667 38.826667 0 0 0 0.768 6.485334l39.722667 151.808a25.6 25.6 0 0 0 24.789333 19.029333h88.149334l54.912-90.410667a26.154667 26.154667 0 0 1 22.016-12.202666 25.6 25.6 0 0 1 21.973333 12.202666l54.912 90.410667h88.362667a25.6 25.6 0 0 0 24.789333-19.029333l39.722667-151.978667a25.898667 25.898667 0 0 0-2.773334-19.242667"  horiz-adv-x="1024" />

    
    <glyph glyph-name="zu1493-hover" unicode="&#58932;" d="M187.733333 500.394667h689.664V625.962667a25.130667 25.130667 0 0 1-24.064 26.453333h-312.661333a34.858667 34.858667 0 0 0-29.610667 16.426667l-66.688 106.794666a37.376 37.376 0 0 1-31.701333 17.578667H109.226667a25.130667 25.130667 0 0 1-23.893334-26.325333v-604.032a7.381333 7.381333 0 0 1 14.677334-1.365334l60.16 315.989334a27.989333 27.989333 0 0 0 27.562666 22.912M935.808 444.416H228.650667a21.333333 21.333333 0 0 1-21.077334-17.536l-89.6-469.333333a18.517333 18.517333 0 0 1 18.133334-22.016h182.314666a212.224 212.224 0 0 0 413.184 0h112a21.333333 21.333333 0 0 1 21.077334 17.536l89.216 469.333333a18.517333 18.517333 0 0 1-18.090667 22.058667m-410.794667-308.693334a105.813333 105.813333 0 1 0 105.813334 105.813334 105.856 105.856 0 0 0-105.813334-105.813334"  horiz-adv-x="1024" />

    
    <glyph glyph-name="zu1495-hover" unicode="&#58933;" d="M948.096 287.01866700000005a35.754667 35.754667 0 0 1-18.176 31.104l-176.170667 100.906666a35.797333 35.797333 0 0 1-36.010666 0l-175.274667-102.144a35.541333 35.541333 0 0 1-17.792-31.317333l0.725333-202.837333a35.84 35.84 0 0 1 18.176-31.146667l176.170667-100.778667a35.84 35.84 0 0 1 36.010667 0l175.274666 102.058667a35.626667 35.626667 0 0 1 17.834667 31.317333z m-130.090667-148.693334a93.568 93.568 0 1 0-34.730666 128 93.866667 93.866667 0 0 0 34.730666-128M452.309333 59.60533299999997H141.568a27.008 27.008 0 1 1 0-53.973333h310.741333a27.008 27.008 0 1 1 0 53.973333M432.426667 163.66933300000005v203.776l304.469333 177.621334 177.834667-103.808v311.466666a58.026667 58.026667 0 0 1-58.154667 57.898667H143.36A58.026667 58.026667 0 0 1 85.333333 752.64v-530.816a57.984 57.984 0 0 1 58.026667-57.984z"  horiz-adv-x="1024" />

    
    <glyph glyph-name="jiangxu" unicode="&#59144;" d="M377.857 791C403.894 791 425 769.894 425 743.857v-767.895l-0.01-0.793c-0.629-26.01-32.172-38.946-50.876-20.499L78.959 245.783l-0.554 0.56c-17.982 18.611-5.29 49.999 20.829 50.625l231.48 6.372V743.857c0 26.037 21.107 47.143 47.143 47.143zM698 105.9c16.513 0 29.9-13.387 29.9-29.9 0-16.348-13.12-29.632-29.406-29.896l-0.494-0.004H548c-16.513 0-29.9 13.387-29.9 29.9 0 16.348 13.12 29.632 29.406 29.896l0.494 0.004h150z m87 195c16.513 0 29.9-13.387 29.9-29.9 0-16.348-13.12-29.632-29.406-29.896l-0.494-0.004H548c-16.513 0-29.9 13.387-29.9 29.9 0 16.348 13.12 29.632 29.406 29.896l0.494 0.004h237z m83 196c16.513 0 29.9-13.387 29.9-29.9 0-16.348-13.12-29.632-29.406-29.896l-0.494-0.004H548c-16.513 0-29.9 13.387-29.9 29.9 0 16.348 13.12 29.632 29.406 29.896l0.494 0.004h320z m83 195c16.513 0 29.9-13.387 29.9-29.9 0-16.348-13.12-29.632-29.406-29.896l-0.494-0.004H548c-16.513 0-29.9 13.387-29.9 29.9 0 16.348 13.12 29.632 29.406 29.896l0.494 0.004h403z"  horiz-adv-x="1024" />

    
    <glyph glyph-name="shengxu" unicode="&#59145;" d="M454.99 743.83l0.01-0.792v-767.895C455-50.894 433.894-72 407.857-72c-26.036 0-47.142 21.106-47.142 47.143l-0.001 440.517-231.48 6.372c-26.119 0.626-38.81 32.014-20.829 50.625l0.554 0.56L404.114 764.33c18.704 18.447 50.247 5.512 50.876-20.5z m495.72-638.78l0.494-0.004c16.285-0.264 29.405-13.548 29.405-29.896 0-16.513-13.387-29.9-29.9-29.9H548l-0.494 0.004c-16.286 0.264-29.406 13.548-29.406 29.896 0 16.513 13.387 29.9 29.9 29.9h402.71z m-82.8 195.4l0.494-0.003c16.285-0.264 29.405-13.548 29.405-29.896 0-16.514-13.387-29.9-29.9-29.9H548l-0.494 0.004c-16.286 0.264-29.406 13.548-29.406 29.896 0 16.513 13.387 29.9 29.9 29.9h319.91z m-82.8 195.5l0.494-0.003c16.285-0.264 29.405-13.548 29.405-29.896 0-16.513-13.387-29.9-29.9-29.9H548l-0.494 0.004c-16.286 0.264-29.406 13.548-29.406 29.896 0 16.513 13.387 29.9 29.9 29.9h237.11z m-87.4 195.5l0.494-0.003c16.285-0.264 29.405-13.548 29.405-29.896 0-16.513-13.387-29.9-29.9-29.9H548l-0.494 0.004c-16.286 0.264-29.406 13.548-29.406 29.896 0 16.513 13.387 29.9 29.9 29.9h149.71z"  horiz-adv-x="1024" />

    
    <glyph glyph-name="jiqiren" unicode="&#58925;" d="M501.504 819.2C538.3936 819.2 568.32 791.0912 568.32 756.4288c0-22.3488-12.4416-41.984-31.2064-53.0944v-84.992h320.9216c19.712 0 35.6608-15.0016 35.6608-33.4848v-602.5728c0-18.5088-15.9744-33.4848-35.6608-33.4848H144.9216c-19.712 0-35.6608 14.976-35.6608 33.4848V584.8576c0 18.4832 15.9744 33.4848 35.6608 33.4848h320.9216v84.992c-18.4576 10.9312-30.8224 30.1312-31.2064 52.0448v1.0496c0 34.6624 29.952 62.7712 66.8416 62.7712z m311.9872-274.944H189.4912v-512h624v512zM635.2128 204.8c2.3552 0 4.608-0.9472 6.2976-2.6624a9.216 9.216 0 0 0 2.6112-6.4512v-54.6304a9.216 9.216 0 0 0-2.6112-6.4512 8.832 8.832 0 0 0-6.2976-2.6624H367.7696a8.832 8.832 0 0 0-6.2976 2.6624 9.216 9.216 0 0 0-2.6112 6.4512v54.6304c0 5.0432 3.9936 9.1136 8.9088 9.1136h267.4432zM64.6912 436.6848c4.9152 0 8.9088-4.096 8.9088-9.1136v-346.112a9.0112 9.0112 0 0 0-8.9088-9.088H11.1872a9.0112 9.0112 0 0 0-8.9088 9.1136V427.5712c0 5.0176 3.9936 9.1136 8.9344 9.1136h53.4784z m927.0784 0c2.3808 0 4.6336-0.9728 6.3232-2.688a9.216 9.216 0 0 0 2.5856-6.4256v-346.112a9.0112 9.0112 0 0 0-8.9088-9.088h-53.4784a9.0112 9.0112 0 0 0-8.9088 9.1136V427.5712c0 5.0176 3.9936 9.1136 8.9088 9.1136h53.504zM314.2912 435.2c34.4576 0 62.3872-28.544 62.3872-63.744 0-35.2256-27.904-63.744-62.3872-63.744-34.4576 0-62.4128 28.5184-62.4128 63.744 0 35.2 27.9552 63.744 62.4128 63.744z m374.4 0c34.4576 0 62.3872-28.544 62.3872-63.744 0-35.2256-27.904-63.744-62.3872-63.744-34.4576 0-62.4128 28.5184-62.4128 63.744 0 35.2 27.9552 63.744 62.4128 63.744z"  horiz-adv-x="1024" />

    
    <glyph glyph-name="xingzhuang2" unicode="&#58926;" d="M819.633231 440.438154H336.108308c-22.291692 0-40.369231-18.353231-40.369231-40.96 0-22.685538 18.116923-40.999385 40.369231-40.999385h483.76123c22.291692 1.496615 39.187692 21.031385 37.730462 43.677539a40.763077 40.763077 0 0 1-37.888 38.281846h-0.078769z m0-221.932308H336.108308c-22.291692 0-40.369231-18.353231-40.369231-40.96 0-22.646154 18.116923-40.999385 40.369231-40.999384h483.76123c22.291692 1.496615 39.187692 21.031385 37.730462 43.677538a40.763077 40.763077 0 0 1-37.888 38.281846h-0.078769z m243.554461 606.129231h-148.755692v32.295385a40.566154 40.566154 0 0 1-42.102154 38.990769 40.566154 40.566154 0 0 1-38.4-38.990769v-32.295385H321.851077v32.295385a40.566154 40.566154 0 0 1-42.102154 38.990769 40.566154 40.566154 0 0 1-38.4-38.990769v-32.295385H92.632615C41.432615 824.595692 0 782.414769 0 730.269538V-13.390769c0-52.145231 41.432615-94.286769 92.632615-94.286769h970.673231c51.2 0 92.632615 42.141538 92.632616 94.286769V730.308923c-0.039385 51.987692-41.511385 94.129231-92.711385 94.286769zM92.632615 730.269538h148.873847v-21.188923a40.566154 40.566154 0 0 1 42.062769-38.990769 40.566154 40.566154 0 0 1 38.439384 38.990769v21.188923h512.07877v-21.188923a40.566154 40.566154 0 0 1 42.062769-38.990769 40.566154 40.566154 0 0 1 38.439384 38.990769v21.188923h148.873847v-128.393846H92.632615v128.393846zM1063.187692-13.390769H92.632615V520.270769h970.673231v-533.661538h-0.078769z"  horiz-adv-x="1181" />

    
    <glyph glyph-name="xiangqing1" unicode="&#58927;" d="M805.7344-51.2h-81.408a28.9792 28.9792 0 0 0-29.0048 28.9792c0 16.0768 12.928 29.0816 29.0816 29.0816h81.408a72.8576 72.8576 0 0 1 72.96 72.6016V688.4608c0 40.192-32.512 72.8576-72.2688 72.8576H196.5312a72.4224 72.4224 0 0 1-72.2432-72.2688v-609.92c0-39.808 32.64-72.2688 72.8576-72.2688h270.7968a28.9792 28.9792 0 1 0 0-57.984H197.0432c-72.064 0-130.8928 58.496-130.8928 130.2528V688.9728A130.4064 130.4064 0 0 0 196.3776 819.2h609.9456c71.8336 0 130.2272-58.6496 130.2272-130.9184v-608.9984c0.0768-71.8336-58.624-130.4832-130.816-130.4832z m-75.8272 634.6752h-456.96a28.9792 28.9792 0 1 0 0 57.984h456.96a28.9792 28.9792 0 1 0 0-57.984z m0-203.0848h-456.96a28.9792 28.9792 0 1 0 0 57.984h456.96a28.9792 28.9792 0 1 0 0-57.984z m-253.8752-203.0848h-203.0848a28.9792 28.9792 0 1 0 0 57.984h203.0848a28.9792 28.9792 0 1 0 0-57.984z"  horiz-adv-x="1024" />

    
    <glyph glyph-name="bianzu5" unicode="&#58928;" d="M783.629474 32.525474c0-33.495579-26.570105-60.658526-59.338106-60.658527h-426.846315c-32.714105 0.080842-59.230316 27.189895-59.311158 60.631579V675.678316h545.468631v-643.125895z m-427.034948 751.831579a12.395789 12.395789 0 0 0 3.503158 8.865684 11.856842 11.856842 0 0 0 8.650105 3.584h284.887579a11.856842 11.856842 0 0 0 8.650106-3.584 12.395789 12.395789 0 0 0 3.503158-8.838737v-35.813053H356.594526V784.384zM961.401263 748.597895h-224.956631V784.384C736.471579 831.137684 699.365053 869.052632 653.635368 869.052632H368.747789c-45.648842-0.188632-82.620632-37.995789-82.809263-84.668632v-35.813053H60.362105C41.552842 747.277474 26.947368 731.351579 26.947368 712.030316c0-19.267368 14.605474-35.247158 33.414737-36.540632h106.442106v-642.96421c0-35.435789 13.770105-69.416421 38.265263-94.450527A129.158737 129.158737 0 0 1 297.445053-101.052632h426.846315a129.158737 129.158737 0 0 1 92.375579 39.127579 135.114105 135.114105 0 0 1 38.265264 94.450527V675.651368h106.442105c19.698526 0 35.678316 16.330105 35.678316 36.45979 0.161684 9.728-3.530105 19.132632-10.24 25.977263a34.600421 34.600421 0 0 1-25.411369 10.509474zM510.868211 81.408c9.485474 0 18.593684 3.853474 25.276631 10.725053s10.428632 16.168421 10.374737 25.869473V506.341053c0 20.129684-15.952842 36.432842-35.651368 36.432842-19.671579 0-35.651368-16.303158-35.651369-36.45979V118.029474c-0.053895-9.701053 3.691789-19.024842 10.374737-25.869474 6.709895-6.898526 15.791158-10.778947 25.276632-10.778947m-166.426948 0c19.779368 0 35.813053 16.437895 35.813053 36.648421V506.287158a36.864 36.864 0 0 1-17.138527 33.765053 35.139368 35.139368 0 0 1-37.187368 0c-11.425684-7.087158-18.054737-20.102737-17.138526-33.765053V118.029474c0.512-19.941053 16.168421-36.028632 35.651368-36.648421m332.853895 0c19.725474 0.107789 35.651368 16.491789 35.651368 36.648421V506.287158a36.864 36.864 0 0 1-17.138526 33.765053 35.139368 35.139368 0 0 1-37.187368 0c-11.425684-7.087158-18.054737-20.102737-17.138527-33.765053V118.029474c0-20.210526 16.033684-36.648421 35.84-36.648421"  horiz-adv-x="1024" />

    
    <glyph glyph-name="guanbi" unicode="&#58924;" d="M512 849.994C254.91 849.994 46.506 641.59 46.506 384.5c0-257.09 208.404-465.495 465.494-465.495S977.494 127.40999999999997 977.494 384.5C977.494 641.59 769.09 849.994 512 849.994z m0-861.164c-218.519 0-395.67 177.151-395.67 395.67 0 218.518 177.151 395.67 395.67 395.67S907.67 603.019 907.67 384.5 730.519-11.169999999999959 512-11.169999999999959zM693.038 565.538c-13.66 13.638-35.753 13.638-49.391 0L512 433.886 380.353 565.538c-13.66 13.638-35.754 13.638-49.392 0-13.637-13.637-13.637-35.73 0-49.379L462.615 384.5 330.961 252.84199999999998c-13.637-13.638-13.637-35.731 0-49.38 13.66-13.637 35.754-13.637 49.392 0L512 335.11400000000003l131.647-131.652c13.66-13.637 35.754-13.637 49.391 0 13.637 13.638 13.637 35.73 0 49.38L561.384 384.5l131.654 131.659c13.637 13.638 13.637 35.731 0 49.379z"  horiz-adv-x="1024" />

    
    <glyph glyph-name="bianzu8beifen" unicode="&#58923;" d="M179.617293 893.021164a10.239749 10.239749 0 0 0 2.978836-7.260913v-111.93907a513.057952 513.057952 0 0 0 637.191633 16.988674 509.846395 509.846395 0 0 0 160.065889-615.362351C883.041482-41.867889 648.783959-163.813986 414.712613-118.666004 180.687812-73.518021 8.846212 126.71561 0.235514 364.277779L0.002793 372.562666a10.007027 10.007027 0 0 0 9.541584 10.239749H82.386225a10.239749 10.239749 0 0 0 10.239749-9.774306v-0.558531a418.572999 418.572999 0 0 1 332.978009-398.977844 419.690062 419.690062 0 0 1 465.815475 231.511409 417.549024 417.549024 0 0 1-118.781085 505.37814 420.248594 420.248594 0 0 1-520.458497 0.884342h105.376322a10.239749 10.239749 0 0 0 10.239749-10.239748v-71.910963a10.239749 10.239749 0 0 0-10.239749-10.239748H100.259241a10.239749 10.239749 0 0 0-10.239749 10.239748V885.760251a10.239749 10.239749 0 0 0 10.239749 10.239749h72.050595c2.792659 0 5.39914-1.070519 7.307457-2.978836zM544.19889 616.641039c2.606481 0 5.119874-1.117063 6.935102-3.165013 1.861772-2.04795 2.885747-4.794064 2.885748-7.633268v-216.896494h180.871196c2.606481 0 5.119874-1.163608 6.981647-3.258102 1.861772-2.001405 2.839203-4.794064 2.839203-7.679811v-76.193039a11.449901 11.449901 0 0 0-2.839203-7.679812 9.355407 9.355407 0 0 0-6.981647-3.211557h-259.624172a9.355407 9.355407 0 0 0-6.981647 3.165013 11.449901 11.449901 0 0 0-2.839203 7.679811V605.889303c0 6.004216 4.375165 10.844825 9.774305 10.844824h68.978671v-0.093088z"  horiz-adv-x="1024" />

    
    <glyph glyph-name="bofang" unicode="&#58922;" d="M500.864-56.64c-239.648 0-434.656 194.976-434.656 434.624 0 239.68 195.008 434.624 434.656 434.624 239.68 0 434.656-194.944 434.656-434.624 0-239.68-195.008-434.624-434.656-434.624m0 933.28C225.92 876.64 2.24 652.896 2.24 377.984 2.24 103.04 225.92-120.64 500.864-120.64s498.656 223.68 498.656 498.624c0 274.912-223.68 498.624-498.656 498.624M404.864 569.984a32 32 0 0 1-32-32v-320a32 32 0 0 1 64 0v320a32 32 0 0 1-32 32M596.864 569.984a32 32 0 0 1-32-32v-320a32 32 0 0 1 64 0v320a32 32 0 0 1-32 32"  horiz-adv-x="1024" />

    
    <glyph glyph-name="jianji1" unicode="&#58920;" d="M230.9712757-108.38942627999995c-75.85418921 0-137.56856839 61.71437919-137.56856841 137.56856839s61.71437919 137.56856839 137.56856841 137.5685684c75.85418921 0 137.56856839-61.71437919 137.5685684-137.5685684s-61.71437919-137.56856839-137.5685684-137.56856839z m0 231.09752013c-51.55139072 0-93.38166206-41.97756103-93.38166207-93.38166206s41.97756103-93.38166206 93.38166207-93.38166205c51.55139072 0 93.38166206 41.97756103 93.38166205 93.38166205s-41.97756103 93.38166206-93.38166205 93.38166206zM799.06760151-108.38942627999995c-75.85418921 0-137.56856839 61.71437919-137.5685684 137.56856839s61.71437919 137.56856839 137.5685684 137.5685684 137.56856839-61.71437919 137.56856839-137.5685684-61.71437919-137.56856839-137.56856839-137.56856839z m0 231.09752013c-51.55139072 0-93.38166206-41.97756103-93.38166206-93.38166206s41.97756103-93.38166206 93.38166206-93.38166205 93.38166206 41.97756103 93.38166205 93.38166205-41.97756103 93.38166206-93.38166205 93.38166206zM346.44639092 7.232978630000048c-3.82953187 0-7.65906378 1.03102783-11.19401626 3.09308345-10.45756784 6.1861669-13.99252034 19.73681815-7.65906378 30.34167568L650.45230653 584.3139754c6.1861669 10.45756784 19.73681815 13.99252034 30.34167567 7.65906376 10.45756784-6.1861669 13.99252034-19.73681815 7.65906377-30.34167569L365.44676064 17.985125830000015c-4.12411126-6.92261532-11.48859565-10.75214722-19.00036972-10.7521472zM679.17379565 7.232978630000048c-7.51177407 0-14.87625845 3.82953187-19.00036972 10.7521472L337.1671406 561.63136347c-6.1861669 10.45756784-2.79850407 24.00821911 7.65906375 30.34167569 10.45756784 6.1861669 24.00821911 2.79850407 30.34167569-7.65906376l322.85899564-543.64623764c6.1861669-10.45756784 2.79850407-24.00821911-7.65906377-30.34167568-3.5349525-2.20934532-7.36448439-3.09308345-11.19401626-3.09308345zM876.10010823 208.57798183c-12.22504409 0-22.09345317 9.86840908-22.09345318 22.09345317s9.86840908 22.09345317 22.09345318 22.09345318c25.03924691 0 45.36522383 20.32597692 45.36522382 45.36522383V748.68926698c0 25.03924691-20.32597692 45.36522383-45.36522382 45.36522384H147.89989177c-25.03924691 0-45.36522383-20.32597692-45.36522382-45.36522384v-450.41186527c0-25.03924691 20.32597692-45.36522383 45.36522382-45.36522384 12.22504409 0 22.09345317-9.86840908 22.09345318-22.09345318s-9.86840908-22.09345317-22.09345318-22.09345315c-49.34204541 0-89.55213018 40.21008477-89.55213016 89.55213017V748.68926698c0 49.34204541 40.21008477 89.55213018 89.55213016 89.55213017h728.05292676c49.34204541 0 89.55213018-40.21008477 89.55213018-89.55213017v-450.41186527c0.1472897-49.48933509-40.06279507-89.69941987-89.40484048-89.69941988z"  horiz-adv-x="1024" />

    
    <glyph glyph-name="jianji" unicode="&#58918;" d="M575.944152 304.789855m-356.810398 0a356.810398 356.810398 0 1 1 713.620797 0 356.810398 356.810398 0 1 1-713.620797 0ZM511.827279 368.906728m-356.810398 0a356.810398 356.810398 0 1 1 713.620797 0 356.810398 356.810398 0 1 1-713.620797 0ZM296.394586-127.999038a160.292183 160.292183 0 0 0-128.233746 252.941064 160.292183 160.292183 0 0 0 286.602422-68.28447 160.292183 160.292183 0 0 0-132.080758-182.733088 172.794973 172.794973 0 0 0-26.287918-1.923506z m0 294.937616a166.383286 166.383286 0 0 1-21.799737-1.602922 137.530693 137.530693 0 1 1 21.799737 1.602922zM415.331385-68.370346A13.143959 13.143959 0 0 0 409.881451-66.126256a12.182206 12.182206 0 0 0-2.885259 16.990972l256.467492 356.169229a11.541037 11.541037 0 0 0 16.670387 2.564675 11.861622 11.861622 0 0 0 2.885259-16.670387l-256.467492-356.169229a12.182206 12.182206 0 0 0-11.220453-5.12935zM804.20022-127.999038a176.000816 176.000816 0 0 0-25.646749 1.923506 160.292183 160.292183 0 1 0 25.646749-1.923506z m0 294.937616a133.68368 133.68368 0 1 1 21.799737-1.602922 166.383286 166.383286 0 0 1-22.440905 1.602922zM685.263421-68.370346a12.182206 12.182206 0 0 0-9.617531 5.12935L245.101088 532.404754A155.483417 155.483417 0 0 0 281.647705 749.760954a11.541037 11.541037 0 0 0 16.670387-2.564675l352.642802-486.967651a11.861622 11.861622 0 0 0-2.564675-16.670387 12.50279 12.50279 0 0 0-16.990971 2.564675L284.532964 722.831867a132.080758 132.080758 0 0 1-20.196815-176.321401L695.201536-49.135284a12.182206 12.182206 0 0 0-2.885259-16.990972 13.143959 13.143959 0 0 0-7.052856-2.24409zM177.457786 257.022784a11.861622 11.861622 0 0 0-11.541037 9.296947L57.23865 738.861085a11.861622 11.861622 0 0 0 8.976362 14.426297 12.182206 12.182206 0 0 0 14.426296-8.976363l108.6781-472.541354a12.182206 12.182206 0 0 0-8.976362-14.426296zM243.81875 272.09025a11.861622 11.861622 0 0 0-11.541037 9.296946L123.920198 753.92855a11.861622 11.861622 0 1 0 23.402658 5.449935L255.680372 286.516546a12.182206 12.182206 0 0 0-8.976363-14.426296zM69.100271 729.564139a11.861622 11.861622 0 0 0-11.861621 9.617531 11.541037 11.541037 0 0 0 8.976362 14.105712l314.813846 71.490313a11.861622 11.861622 0 0 0 14.426297-8.976362 11.861622 11.861622 0 0 0-8.976362-14.426297L71.98553 729.884723zM91.220592 633.068245a11.861622 11.861622 0 0 0-11.861621 9.617531 11.541037 11.541037 0 0 0 9.938115 14.105712L153.413959 671.217784a11.861622 11.861622 0 0 0 14.426297-8.976362 12.182206 12.182206 0 0 0-8.976363-14.426296L92.50293 632.74766zM117.829095 515.413783a12.182206 12.182206 0 0 0-11.861622 9.296946 11.861622 11.861622 0 0 0 9.296947 14.426297l66.040379 15.067465a11.861622 11.861622 0 0 0 14.426296-8.976362 12.182206 12.182206 0 0 0-8.976362-14.426297L121.355523 515.734367zM144.437597 397.759321a11.861622 11.861622 0 0 0-2.564675 23.723243l66.360964 15.067465a11.541037 11.541037 0 0 0 14.105712-8.976362 11.861622 11.861622 0 0 0-8.976363-14.426297l-66.360963-15.067465zM177.457786 257.022784a11.861622 11.861622 0 0 0-11.541037 9.617531 11.541037 11.541037 0 0 0 8.976363 14.105712l222.485549 50.65233a11.861622 11.861622 0 0 0 14.426296-9.296947 11.541037 11.541037 0 0 0-8.976362-14.105712l-222.485549-50.652329zM954.874872 402.568086a12.182206 12.182206 0 0 0-11.541037 8.976362L819.267686 880.559375A12.182206 12.182206 0 0 0 826.641126 895.62684a12.182206 12.182206 0 0 0 14.746881-8.655778l124.707318-469.014926a12.182206 12.182206 0 0 0-8.655778-14.746881zM888.834493 385.577115a12.182206 12.182206 0 0 0-11.861622 8.976362L753.547891 863.568403A12.182206 12.182206 0 0 0 762.524253 878.315284a11.861622 11.861622 0 0 0 14.426296-8.655778l123.424981-469.014926a11.861622 11.861622 0 0 0-8.655778-14.426296zM488.745205 782.781143a12.50279 12.50279 0 0 0-11.861621 9.296947 11.861622 11.861622 0 0 0 8.655777 14.426296L826.641126 895.62684a12.182206 12.182206 0 0 0 14.746881-8.655778 12.182206 12.182206 0 0 0-8.655778-14.746881L491.630464 783.422312zM790.094508 758.737316a12.182206 12.182206 0 0 0-11.861621 8.655778 12.182206 12.182206 0 0 0 8.655778 14.746881L852.929044 799.45153a11.861622 11.861622 0 0 0 14.426296-8.655778 11.861622 11.861622 0 0 0-8.655777-14.426296l-64.116874-17.311556zM820.229439 642.044607a11.541037 11.541037 0 0 0-11.541037 8.976362 11.861622 11.861622 0 0 0 8.655777 14.426297l65.719795 17.311555a12.182206 12.182206 0 0 0 14.746881-8.655778 12.182206 12.182206 0 0 0-8.655778-14.74688l-66.040379-16.990972zM850.364369 525.031314a11.861622 11.861622 0 0 0-11.541037 8.976362 12.182206 12.182206 0 0 0 8.655778 14.746881l65.719795 16.990971a11.861622 11.861622 0 1 0 6.091103-23.082074l-65.719795-17.311556zM602.23207 311.201542a11.541037 11.541037 0 0 0-11.541037 8.976362 12.182206 12.182206 0 0 0 8.655778 14.746881l352.642802 91.366544a11.861622 11.861622 0 1 0 5.770518-23.082074l-352.642801-91.687129z"  horiz-adv-x="1024" />

    
    <glyph glyph-name="Shapecopy" unicode="&#58917;" d="M512 384a204.8 204.8 0 0 0-204.8 204.8V691.2a204.8 204.8 0 0 0 204.8 204.8 204.8 204.8 0 0 0 204.8-204.8v-102.4a204.8 204.8 0 0 0-204.8-204.8z m409.6-512H102.4a51.2 51.2 0 0 0-51.2 51.2v51.2a307.5328 307.5328 0 0 0 307.2 307.2h307.2a307.5328 307.5328 0 0 0 307.2-307.2v-51.2a51.2 51.2 0 0 0-51.2-51.2zM153.6-25.6h716.8a205.0304 205.0304 0 0 1-204.8 204.8H358.4a205.0304 205.0304 0 0 1-204.8-204.8z"  horiz-adv-x="1024" />

    
    <glyph glyph-name="yonghu1" unicode="&#58983;" d="M509.452736 330.507463c-154.364179 0-280.199005 125.834826-280.199005 280.199005S355.088557 890.905473 509.452736 890.905473s280.199005-125.834826 280.199005-280.199005-125.834826-280.199005-280.199005-280.199005z m0 509.452736c-126.344279 0-229.253731-102.909453-229.253731-229.253731s102.909453-229.253731 229.253731-229.253732 229.253731 102.909453 229.253732 229.253732-102.909453 229.253731-229.253732 229.253731zM1018.905473-128h-50.945274c0 227.21592-231.291542 458.507463-458.507463 458.507463s-458.507463-231.291542-458.507462-458.507463H0c0 121.249751 58.077612 248.612935 158.439801 349.99403C259.820896 323.375124 387.693532 381.452736 509.452736 381.452736c121.759204 0 249.631841-58.077612 351.012936-159.458706 100.362189-101.381095 158.439801-228.744279 158.439801-349.99403z"  horiz-adv-x="1024" />

    
    <glyph glyph-name="danxuan" unicode="&#59037;" d="M512 853.333333c259.2 0 469.333333-210.133333 469.333333-469.333333s-210.133333-469.333333-469.333333-469.333333S42.666667 124.8 42.666667 384 252.8 853.333333 512 853.333333z m0-55.466666c-230.9248 0-418.133333-186.2528-418.133333-416S281.0752-34.133333 512-34.133333s418.133333 186.2528 418.133333 416S742.9248 797.866667 512 797.866667z m0-106.666667c169.659733 0 307.2-137.540267 307.2-307.2s-137.540267-307.2-307.2-307.2-307.2 137.540267-307.2 307.2 137.540267 307.2 307.2 307.2z"  horiz-adv-x="1024" />

    
    <glyph glyph-name="sousuo" unicode="&#58921;" d="M663.81913 153.778087c-157.606957-116.535652-378.390261-91.803826-506.301217 56.676174-127.910957 148.48-119.652174 370.509913 18.921739 509.106087 138.596174 138.573913 360.626087 146.832696 509.106087 18.921739 148.48-127.910957 173.189565-348.694261 56.676174-506.278957l198.745044-198.67826a55.496348 55.496348 0 1 0-78.491827-78.491827l-198.67826 198.745044z m-12.421565 99.59513c110.413913 115.222261 107.497739 297.850435-6.544695 409.510957-114.042435 111.638261-296.69287 110.636522-409.555479-2.181565-112.840348-112.862609-113.819826-295.513043-2.181565-409.555479 111.638261-114.042435 294.288696-116.958609 409.510957-6.544695a56.097391 56.097391 0 0 0 8.770782 8.770782z"  horiz-adv-x="1024" />

    
    <glyph glyph-name="xiajiantou" unicode="&#60269;" d="M562.30859375 100.91276043000005l254.44335938 333.38671875A63.28125 63.28125 0 0 1 766.390625 535.9713541799999H257.58300781a63.28125 63.28125 0 0 1-50.30859375-101.671875l254.44335938-333.38671875a63.28125 63.28125 0 0 1 100.59082031 0z"  horiz-adv-x="1024" />

    
    <glyph glyph-name="shangjiantou" unicode="&#58888;" d="M565.6625 509.60416668l271.40625-355.6125A67.5 67.5 0 0 0 783.35 45.54166668000005H240.621875a67.5 67.5 0 0 0-53.6625 108.45L458.365625 509.60416668a67.5 67.5 0 0 0 107.296875 0z"  horiz-adv-x="1024" />

    
    <glyph glyph-name="xiangshangjiantou" unicode="&#58916;" d="M511.061628 680.349475c-4.399193 0-8.80248-1.281179-12.612249-3.843538L73.975828 391.266497c-10.361999-6.965645-13.118785-21.014616-6.15314-31.380708 6.960529-10.366092 21.014616-13.123902 31.380708-6.158257l411.859255 276.764418 411.857209-276.764418c10.361999-6.965645 24.408923-4.213975 31.380708 6.158257 6.965645 10.365068 4.208858 24.414039-6.15621 31.380708L523.672854 676.505937C519.858992 679.069319 515.460822 680.349475 511.061628 680.349475L511.061628 680.349475zM511.061628 426.719964c-4.399193 0-8.80248-1.282203-12.612249-3.843538L73.975828 137.63494c-10.361999-6.965645-13.118785-21.013593-6.15314-31.380708 6.960529-10.365068 21.014616-13.122879 31.380708-6.15621l411.859255 276.763394 411.857209-276.763394c10.361999-6.970762 24.408923-4.208858 31.380708 6.15621 6.965645 10.366092 4.208858 24.414039-6.15621 31.380708L523.672854 422.876426C519.858992 425.437761 515.460822 426.719964 511.061628 426.719964L511.061628 426.719964zM511.061628 426.719964"  horiz-adv-x="1024" />

    
    <glyph glyph-name="characterBank" unicode="&#58914;" d="M232.56177813 353.0524448l-55.2504896-208.896c-6.09848853-23.62026667 1.0467552-48.69688853 18.65955627-65.536a68.26666667 68.26666667 0 0 1 48.83342187-20.0248896H814.64888853a68.26666667 68.26666667 0 0 1 60.30222294 33.67822293 68.26666667 68.26666667 0 0 1 7.6003552 52.33777707l-55.1139552 208.4408896a70.2236448 70.2236448 0 0 1-67.85706667 51.4275552h-114.0508448a206.6204448 206.6204448 0 0 1 96.98417813 174.3075552 212.5824 212.5824 0 0 1-425.02826666 0 206.52942187 206.52942187 0 0 1 96.98417706-174.3075552H300.28231147a69.8140448 69.8140448 0 0 1-67.72053334-51.4275552z m153.96408854 225.7351104a143.49653333 143.49653333 0 1 0 143.45102186-139.7191104 141.85813333 141.85813333 0 0 0-143.45102186 139.7191104z m218.45333333-194.33244373l-73.9100448-120.14933334a1.13777813 1.13777813 0 0 0-2.0935104 0l-74.00106667 120.14933334c48.37831147-18.2044448 101.67182187-18.2044448 150.05013334 0h-0.04551147zM300.37333333 336.21333332999995h103.35573334l66.26417813-107.40622186a70.81528853 70.81528853 0 0 1 120.0128 0l66.1731552 107.40622186h103.35573333c0.4096 0 0.77368853-0.1820448 1.0467552-0.45511146l55.11395627-208.44088854 33.4051552 8.64711147-34.49742187-9.10222293H245.25937813l-0.95573333 0.45511146 55.1139552 208.44088854c0 0.45511147 0.4096 0.45511147 1.0012448 0.45511146H300.37333333zM45.8752 585.6142218699999a34.13333333 34.13333333 0 0 1 34.54293333 34.13333333V770.8444448h149.13991147a34.13333333 34.13333333 0 1 1 0 68.26666667H45.92071147a34.45191147 34.45191147 0 0 1-34.49742294-34.13333334v-185.23022293a34.13333333 34.13333333 0 0 1 34.49742294-34.13333333h-0.04551147zM978.1248 839.11111147h-183.6828448a34.13333333 34.13333333 0 0 1 0-68.26666667h149.41297813v-151.0968896a34.54293333 34.54293333 0 0 1 69.08586667 0V804.97777813a34.45191147 34.45191147 0 0 1-34.77048853 34.13333334h-0.04551147zM229.5580448-17.408000000000015H80.41813333v151.552a34.54293333 34.54293333 0 0 1-69.0403552 0v-185.68533333a34.04231147 34.04231147 0 0 1 34.49742187-33.67822187h183.6828448a33.90577813 33.90577813 0 0 1 0.0455104 67.8115552h-0.0455104z m748.5667552 185.23022187a34.08782187 34.08782187 0 0 1-34.54293333-33.67822187v-151.552h-149.13991147a33.90577813 33.90577813 0 0 1 0-67.8115552h183.6828448a34.08782187 34.08782187 0 0 1 34.54293333 33.67822187v185.68533333a34.08782187 34.08782187 0 0 1-34.49742186 33.67822187h-0.04551147z"  horiz-adv-x="1024" />

    
    <glyph glyph-name="paixu3" unicode="&#58953;" d="M378.87187025 779.5078125v-555.51877822h277.72527848V779.5078125zM162.81783913 337.64423337000005l349.15204589-349.15204587 349.15204588 349.15204587z"  horiz-adv-x="1024" />

    
    <glyph glyph-name="paixu2" unicode="&#58906;" d="M341.65687747 156.87583558999995c14.19526009 0 23.65876785-18.92701395 23.6587663-42.58578023s-9.4635062-42.58578025-23.6587663-42.5857818H109.8009592c-14.19526009 0-23.65876785 18.92701395-23.65876785 42.5857818s9.4635062 42.58578025 23.65876785 42.58578023h231.85591827z m52.04928644 307.56397256c9.4635062 0 23.65876785-4.73175388 28.39052175-14.19526008 9.4635062-9.4635062 14.19526009-18.92701395 14.19526008-28.39052014 0-23.65876785-18.92701395-42.58578025-42.58578183-42.58578181H128.72797317c-23.65876785 0-42.58578025 18.92701395-42.58578182 42.58578181 0 9.4635062 4.73175388 23.65876785 14.19526166 28.39052014 9.4635062 9.4635062 18.92701395 14.19526009 28.39052016 14.19526008h264.97819074z m141.95260394 298.10046482c9.4635062 0 23.65876785-4.73175388 28.39052015-14.19526011 9.4635062-9.4635062 14.19526009-18.92701395 14.19526007-28.39052015 0-9.4635062-4.73175388-23.65876785-14.19526007-28.39052014-9.4635062-9.4635062-18.92701395-14.19526009-28.39052015-14.19526009H128.72797317c-9.4635062 0-23.65876785 4.73175388-28.39052016 14.19526009-9.4635062 4.73175388-14.19526009 18.92701395-14.19526166 28.39052014 0 9.4635062 4.73175388 23.65876785 14.19526166 28.39052015 4.73175388 9.4635062 14.19526009 14.19526009 28.39052016 14.19526011h406.93079468z m449.5165749-416.3943009c14.19526009-18.92701395 14.19526009-42.58578025 0-61.51279418l-208.19715043-212.92890433c-9.4635062-9.4635062-18.92701395-14.19526009-28.39052173-14.19526008-9.4635062 0-23.65876785 4.73175388-28.39052015 14.19526008L507.26824612 289.36493175c-14.19526009 18.92701395-14.19526009 42.58578025 0 61.51279421 9.4635062 9.4635062 18.92701395 14.19526009 28.39052173 14.19526009 9.4635062 0 23.65876785-4.73175388 28.39052015-14.19526009l137.22084847-141.95260235V719.9544927100001c4.73175388 23.65876785 23.65876785 42.58578025 47.31753412 42.58578026s42.58578025-18.92701395 42.5857818-42.58578026v-511.0293691l137.22084848 137.22084846c9.4635062 9.4635062 18.92701395 14.19526009 28.39052016 14.19526008 9.4635062 0 18.92701395-4.73175388 28.39052172-14.19526008z m0 0"  horiz-adv-x="1024" />

    
    <glyph glyph-name="paixu1" unicode="&#58885;" d="M273.558 14.421l224.769 299.607h-146.532v438.030h-156.454v-438.032h-146.535l224.753-299.606zM574.747 751.639h400.076v-89.906h-400.076v89.906zM574.747 499.909h319.162v89.905h-319.162v-89.905zM574.747 338.080h238.246v89.906h-238.246v-89.906zM574.747 176.25h157.334v89.905h-157.334v-89.905zM574.747 14.421h76.418v89.905h-76.418v-89.905z"  horiz-adv-x="1024" />

    
    <glyph glyph-name="zhedie" unicode="&#58899;" d="M514.248686-128C231.454916-128 2.240494 101.21442200000001 2.240494 384.004096 2.240494 666.775338 231.454916 896 514.248686 896c282.769194 0 511.983616-229.22466201 511.983616-511.995904C1026.23230199 101.21442200000001 797.01788-128 514.248686-128L514.248686-128zM514.248686 832.01075199C266.827689 832.010752 66.24203 631.416901 66.24203 384.00409599c0-247.42509301 200.585659-448.000512 448.006656-448.00051199 247.42918901 0 448.006656 200.575419 448.00665599 448.000512C962.255342 631.416901 761.677875 832.010752 514.248686 832.01075199L514.248686 832.01075199zM542.383885 238.873737c-7.68198701-7.684035-18.214766-10.080175-28.135199-8.312765-9.945008-1.76741-20.467548 0.628731-28.127007 8.312765l-245.002328 245.02076c-12.50294 12.511132-12.50294 32.73497 0 45.246102 12.47222 12.494748 32.75954601 12.494748 45.262486 0L514.24868599 301.26146200000005l227.85251301 227.881185c12.517276 12.494748 32.782074 12.494748 45.315733 0 12.4415-12.511132 12.4415-32.73497 0-45.246102L542.383885 238.873737 542.383885 238.873737z"  horiz-adv-x="1027" />

    
    <glyph glyph-name="hengxian-" unicode="&#58884;" d="M64 413.8h896.2v-60H64z"  horiz-adv-x="1024" />

    
    <glyph glyph-name="zhedie1" unicode="&#58883;" d="M509.354667 531.370667a35.925333 35.925333 0 0 1-27.264-13.824l-196.992-252.16a36.010667 36.010667 0 0 1 56.746666-44.288l169.984 217.6 169.856-217.429334a36.010667 36.010667 0 0 1 56.746667 44.288l-196.992 252.16a35.968 35.968 0 0 1-32.085333 13.653334zM512 868.010667C244.693333 868.010667 27.989333 651.306667 27.989333 384S244.693333-100.010667 512-100.010667 996.010667 116.693333 996.010667 384 779.306667 868.010667 512 868.010667z m0-72.021334a411.989333 411.989333 0 1 0 0-823.978666 411.989333 411.989333 0 0 0 0 823.978666z"  horiz-adv-x="1024" />

    
    <glyph glyph-name="duigou" unicode="&#59067;" d="M374.55 189.89l536.406 536.73c12.493 12.501 32.754 12.507 45.255 0.014 12.5-12.493 12.507-32.754 0.014-45.255L408.957 133.78c-1.795-1.796-0.14-0.123-3.105-3.09-12.738-12.745-51.326-13.085-63.715 0-3.335 4.32-2.584 3.076-4.569 5.172L73.763 414.497c-12.15 12.834-11.597 33.087 1.236 45.238 12.834 12.15 33.088 11.597 45.238-1.237L374.55 189.89z"  horiz-adv-x="1024" />

    
    <glyph glyph-name="cha" unicode="&#58952;" d="M-15.520085 290.289879l8.456666-3.811416L-15.520085 290.289879zM867.933533 89.18283 573.109224 384.002143l294.824309 294.824309c7.637822 7.64022 11.459231 17.650033 11.459231 27.664643 0 10.01421-3.821409 20.024423-11.459231 27.664244-15.28064 15.278641-40.053644 15.278641-55.328287 0L517.779937 439.334028 222.961024 734.155339c-15.28064 15.278641-40.048247 15.278641-55.334283 0-15.275044-15.277642-15.275044-40.050246 0-55.328887L462.456447 384.002143 167.626741 89.18283c-15.275044-15.285636-15.275044-40.052644 0-55.334283 15.281039-15.275643 40.048847-15.275643 55.328887 0l294.824309 294.825308 294.825308-294.825308c7.641819-7.636822 17.65483-11.458231 27.667242-11.458231 10.011212 0 20.023424 3.821409 27.661046 11.458231C883.214173 49.12399 883.214173 73.897194 867.933533 89.18283z"  horiz-adv-x="1031" />

    
    <glyph glyph-name="duigouzhengquexuanzekuangxuanduoxuan-4" unicode="&#58913;" d="M874.667 810.667a64 64 0 0 0 64-64v-725.334a64 64 0 0 0-64-64H149.333a64 64 0 0 0-64 64V746.667a64 64 0 0 0 64 64h725.334z m0-64H149.333v-725.334h725.334V746.667z m-426.539-484.31l253.013 291.926a32 32 0 0 0 50.39-39.318l-2.006-2.581-278.336-321.11-2.346-2.24a34.19 34.19 0 0 0-3.072-2.325l-2.752-1.642-2.347-1.131-2.944-1.088-2.219-0.64-2.197-0.427-2.347-0.32-2.944-0.128-3.029 0.15-3.84 0.597-3.072 0.832-1.408 0.49-2.944 1.28-2.71 1.515-2.709 1.899-2.346 2.027-2.262 2.389-128 149.333a32 32 0 0 0 46.336 44.032l2.262-2.389 103.829-121.13 253.013 291.925-253.013-291.926z"  horiz-adv-x="1024" />

    
    <glyph glyph-name="fork" unicode="&#58881;" d="M523.458186-49.60188500000004H202.025913c-85.031802 0-127.849234 43.420495-127.849235 128.452297V701.210836c0 77.191991 45.229682 122.421673 123.024735 122.421673h658.54417c74.176678 0 121.215548-45.229682 121.81861-119.406361 0.603062-212.881037 0.603062-425.159011 0-638.040047 0-69.955241-47.038869-115.787986-119.40636-116.391048-112.169611 0.603062-223.73616 0.603062-334.699647 0.603062z m1.206125 54.275619h334.699647c41.611307 0 63.321555 21.107185 63.321554 63.321555V703.6230860000001c0 45.229682-21.107185 66.336867-66.336867 66.336867H195.392226c-45.832744 0-65.733804-20.504122-65.733804-66.336867v-632.612485c0-45.832744 20.504122-65.733804 65.733804-65.733805 109.757362-0.603062 219.514723-0.603062 329.272085-0.603062zM489.083628 373.14487599999995C423.349823 440.084806 363.646643 500.994111 303.943463 561.903416c10.252061 10.252061 22.916372 22.916372 33.168433 33.771496C398.624264 534.765607 459.533569 473.856302 520.442874 413.550059c65.130742 65.733804 125.436985 126.040047 187.552415 188.155477 15.679623-15.076561 28.946996-27.740872 39.80212-37.389871L568.084806 380.984688l185.140165-185.140165c-16.282686-16.885748-28.343934-30.153121-41.611308-44.023557-62.11543 61.512367-122.421673 121.81861-183.93404 182.727915C465.564193 271.22732599999995 405.257951 210.31802100000004 343.745583 148.20259099999998c-16.885748 15.679623-29.550059 27.740872-42.817432 39.80212 62.11543 60.909305 123.627797 121.215548 188.155477 185.140165z"  horiz-adv-x="1024" />

    
    <glyph glyph-name="zanwushuju" unicode="&#59158;" d="M700.3515 262.245552l5.42431 5.424309a5.265847 5.265847 0 0 0 7.453855 0l82.169147-82.163053a5.253657 5.253657 0 0 0 1.097052-1.602914h287.39089a18.3878 18.3878 0 0 1 18.39999 18.375611v423.096145a18.3878 18.3878 0 0 1-18.39999 18.381705H357.553421a18.3878 18.3878 0 0 1-18.393895-18.381705v-423.096145a18.3878 18.3878 0 0 1 18.393895-18.375611h394.853167l-61.47754 61.471445a5.265847 5.265847 0 0 0 0 7.44776l3.851869 3.851869-45.015674 45.015675a108.120507 108.120507 0 0 0-70.302709-25.811181c-59.77711 0-108.242402 48.233692-108.242402 107.730445 0 59.502847 48.465292 107.730445 108.242402 107.730444 59.77711 0 108.242402-48.227597 108.242402-107.730444h55.449852v-5.253657h-55.577841a107.15754 107.15754 0 0 0-31.997332-71.338813l44.771885-44.771885z m93.011673-86.216049l-12.817217-12.823311a5.265847 5.265847 0 0 0-7.44776 0l-12.817217 12.823311H357.553421a26.268286 26.268286 0 0 0-26.280475 26.250002V488.719618H85.752849v10.501219h245.520097v126.160908a26.268286 26.268286 0 0 0 26.280475 26.250001h29.169377V680.551239a26.268286 26.268286 0 0 0 26.280475 26.256096h726.333334a26.268286 26.268286 0 0 0 26.280475-26.256096v-423.096145a26.268286 26.268286 0 0 0-26.280475-26.256096h-29.169377v-28.925588c0-5.911888-1.950314-11.360576-5.247563-15.748782h120.163694v-10.501219h-431.720188z m-110.911894 207.586499c0 56.589567-46.106631 102.476788-102.988745 102.476787-56.876019 0-102.98265-45.887221-102.98265-102.482882 0-56.595661 46.106631-102.476788 102.98265-102.476788 55.108547 0 100.105938 43.071456 102.854661 97.223131h-21.185281c-2.71825-42.541214-38.24443-76.202407-81.66938-76.202407-45.192422 0-81.833938 36.470863-81.833937 81.456064 0 44.991296 36.641516 81.456064 81.833937 81.456064 45.198516 0 81.840032-36.464769 81.840032-81.456064h21.148713z m-26.40237 0c0 42.078015-34.28895 76.196312-76.586375 76.196312S502.882254 425.694016 502.882254 383.616002s34.282855-76.202407 76.58028-76.202408c40.529953 0 73.691378 31.314722 76.403533 70.94875h-85.630954v5.253658h85.813796z m454.118321-144.530424h29.169377a18.3878 18.3878 0 0 1 18.393894 18.375611V680.551239a18.3878 18.3878 0 0 1-18.393894 18.375611H413.003273a18.3878 18.3878 0 0 1-18.39999-18.375611v-28.925588H1083.886754a26.268286 26.268286 0 0 0 26.280476-26.256096v-386.290072zM353.805162 44.645412h26.40237v10.507314H353.799067v26.280475h-10.562167V55.152726h-26.402369v-10.507314h26.402369V18.358842h10.562167V44.645412zM36.964536 307.4075h26.40237v10.513409H36.964536v26.27438H26.40237v-26.280475H0v-10.507314h26.40237v-26.274381h10.562166v26.280475z m290.432161 499.255889h26.408465v10.507314h-26.408465V843.451178h-10.556072V817.170703h-26.408464v-10.507314h26.408464v-26.280475h10.556072V806.663389z m1108.936095-394.146179H1462.735161v10.507315h-26.402369v26.280475h-10.562167V423.024525h-26.40237v-10.507315h26.40237v-26.280475h10.562167V412.51721z m-79.231488-225.986487v-10.50122h-89.726613v10.50122h89.720518z m-31.747448 137.960304a23.69631 23.69631 0 0 0-23.745068 23.647552 23.69631 23.69631 0 0 0 23.745068 23.647552 23.69631 23.69631 0 0 0 23.745067-23.647552 23.69631 23.69631 0 0 0-23.745067-23.647552z m0 7.874391a15.815824 15.815824 0 0 1 15.858487 15.773161 15.815824 15.815824 0 0 1-15.858487 15.767066 15.815824 15.815824 0 0 1-15.858487-15.767066 15.815824 15.815824 0 0 1 15.858487-15.773161z m-132.011848-296.916953a23.69631 23.69631 0 0 0-23.751163 23.647552 23.69631 23.69631 0 0 0 23.745068 23.647551 23.69631 23.69631 0 0 0 23.745067-23.647551 23.69631 23.69631 0 0 0-23.745067-23.647552z m0 7.880485a15.815824 15.815824 0 0 1 15.858487 15.767067 15.815824 15.815824 0 0 1-15.864582 15.767066 15.815824 15.815824 0 0 1-15.858487-15.767066 15.815824 15.815824 0 0 1 15.858487-15.767067zM744.477344 851.337759a22.379848 22.379848 0 0 0-22.428605 22.33109A22.379848 22.379848 0 0 0 744.483439 895.999939c12.384491 0 22.428606-9.995357 22.428606-22.33109a22.379848 22.379848 0 0 0-22.428606-22.33109z m0 5.247562a17.126191 17.126191 0 0 1 17.174949 17.083528 17.126191 17.126191 0 0 1-17.174949 17.083528 17.126191 17.126191 0 0 1-17.174948-17.083528 17.126191 17.126191 0 0 1 17.174948-17.083528zM530.034275 400.815329l-5.826562 1.743093a57.887744 57.887744 0 0 0 28.492862 34.514455l2.83405-5.375552a51.811298 51.811298 0 0 1-25.50035-30.881996z m40.200838 3.821396v5.247562h61.264224v-5.247562H570.235113z m0-52.554856v5.247563h61.264224v-5.247563H570.235113z m-51.500467-407.164521v-10.580451l-16.650802-1.645577v-8.313212h-12.110228v7.313676c-7.149118-0.505863-15.175877-1.011725-24.092467-1.517588l-1.645577 11.342293c11.104598 0.505863 19.685977 0.926399 25.738044 1.261609v7.057697h-21.575344l-2.773102 10.586545c2.437892 2.767007 5.046436 6.509171 7.819539 11.214303h-11.092409v11.592177h16.516718c0.841073 2.011261 1.767472 4.449153 2.779197 7.307581l13.115859-2.145345-2.011261-5.162236h28.505051v-11.592177h-33.807466a104.78669 104.78669 0 0 0-6.55793-11.092408h9.081148v7.185687h12.110228v-7.185687h17.912411v-10.70844h-17.918506v-6.301951c1.523682 0.170652 4.376016 0.420536 8.58138 0.755747l8.075517 0.627757z m19.551893 4.790457c-1.511493-9.995357-4.96111-18.899757-10.342756-26.7132l-9.081148 9.446831c5.210994 7.734212 7.947528 16.845833 8.197412 27.347053v21.173091c16.394823 1.590724 28.846356 4.327258 37.34241 8.191317l8.575285-9.70281c-9.2518-4.034711-20.520955-6.807813-33.807467-8.319306v-9.952694h35.952811v-11.470282H563.518721v-25.451591h-12.737986v25.451591h-12.494196z m24.476435-27.852915v-49.263701h-13.371837v4.406489h-60.051373v-4.406489h-13.371837v49.269796h86.788953z m-73.42321-33.764803h60.051373v6.423845h-60.051373v-6.423845z m0 16.760507h60.051373v6.173961h-60.051373v-6.173961z m108.242402 79.255867h92.335157v-12.847691h-44.150223v-7.313676c-0.255979-7.642791-0.719178-13.987405-1.389598-19.027746h55.504704v-12.725796h-37.720283v-39.067218c0-4.113943 1.889366-6.167867 5.680288-6.167867h13.499827c2.267239 0 3.992048 0.920304 5.168331 2.773102 1.340841 1.676051 2.273334 7.350244 2.773102 17.004296l12.366207-4.156605c-1.097051-13.603437-3.071744-21.672859-5.930172-24.196078-2.608544-2.431797-6.557929-3.650743-11.860344-3.650743h-20.051662c-9.842989 0-14.761436 5.253657-14.761435 15.754877v41.706236h-6.813908c-2.352566-10.921756-5.546204-20.204029-9.58701-27.852915-7.819538-13.853321-20.435629-24.439867-37.848273-31.753543l-7.43557 11.72626c17.235896 7.892675 28.925588 17.808801 35.069075 29.736187 2.437892 5.375552 4.497911 11.427618 6.180057 18.144011h-39.103787v12.725796h41.371026c0.761841 6.052067 1.261609 12.39668 1.517588 19.027746v7.313676h-34.819192v12.847691z m187.071638-48.757839c-1.767472-3.95548-3.742164-7.862201-5.930173-11.72626l-8.197411 10.208672c6.978466 13.859416 11.647029 32.387394 13.999594 55.571747l12.87207-2.26724a300.860244 300.860244 0 0 0-2.401324-15.626887h31.540227v-12.725796h-6.813908c-0.755746-20.246693-4.369921-37.470399-10.848619-51.665025 5.972835-9.660147 13.164616-17.309033 21.575344-22.934468l-7.57575-11.214303c-7.734212 5.625436-14.54812 13.018343-20.435629 22.178722A87.465468 87.465468 0 0 0 780.369208-127.914674l-7.063791 11.336198c9.081147 5.972835 16.443581 13.9935 22.075111 24.074183-4.034711 8.063328-7.606223 17.345601-10.72063 27.852915z m7.697643 23.434236l-1.389598-5.040341c2.687776-12.012713 6.180056-22.812574 10.470746-32.387395 3.614175 10.83643 5.674193 23.312342 6.180056 37.421641h-15.261204z m-44.156317-29.364408c-0.585094-1.846703-1.218946-3.60808-1.889367-5.290226h25.232182v-11.092408c-1.938124-7.136929-5.680288-13.524206-11.232587-19.149641 4.461342-1.932029 9.081147-4.156606 13.8777-6.679824l-7.191781-10.586546a201.443011 201.443011 0 0 1-17.156665 8.947064c-8.069422-5.119573-18.454842-9.3676-31.156259-12.725796l-6.308045 11.336197c8.91659 2.02345 16.650802 4.540574 23.214826 7.56356-5.972835 2.437892-11.232587 4.540574-15.773161 6.301951 3.029081 5.040342 5.680288 9.830799 7.947528 14.365278h-12.360113v11.720165h17.534538c1.846703 5.119573 2.687776 7.392907 2.523218 6.801719l12.737986-1.511493z m11.226492-17.004296h-18.284189c-1.097051-2.102682-2.82186-5.174426-5.180521-9.203042 2.693871-0.841073 6.643256-2.267239 11.860344-4.284596 5.217089 4.113943 9.081147 8.611853 11.604366 13.481543z m-31.784016 74.465409c2.773102-4.534479 5.253657-9.489494 7.43557-14.871141l-10.086778-4.534479a100.258306 100.258306 0 0 1-8.197411 15.876771l10.848619 3.534943z m45.283843-4.40649a84.716745 84.716745 0 0 0-9.58701-15.498898l-9.58701 5.040342c3.534943 5.119573 6.478698 10.287904 8.831263 15.498898l10.342757-5.040342z m-57.144187-16.13275h23.46471v22.812574h12.110228v-22.812574h21.441259v-11.464187h-21.441259v-0.255978c6.557929-2.60245 13.243848-5.625436 20.051661-9.068958l-6.807813-10.336662a207.354899 207.354899 0 0 1-13.243848 9.830799v-13.225564h-12.110228v19.777399c-4.29069-8.56919-10.933945-16.090087-19.929767-22.550501l-6.564024 10.580451c8.325401 4.705131 14.340899 9.788136 18.0404 15.249014h-15.011319v11.464187z m128.294063-92.49362l-2.779197 12.354018c3.705596-0.591189 6.728582-0.883736 9.081147-0.883736 2.693871 0 4.040806 1.596819 4.040806 4.790457v25.451592c-6.643256-2.352566-10.891282-3.821396-12.737985-4.412584l-3.413049 12.981774c5.552299 1.261609 10.933945 2.773102 16.151034 4.534479v25.201708h-13.621721v12.731891h13.621721v22.306711h12.865975v-22.306711h10.726725v-12.731891h-10.726725v-20.033377a237.487243 237.487243 0 0 1 10.220862 5.040342v-12.853785l-10.220862-5.040342v-34.148771c0-8.654516-4.1627-12.981775-12.488101-12.981775h-10.726725z m50.586257 54.316232c-1.517588-20.923208-6.265382-39.487755-14.261667-55.699736l-10.342757 9.203043c8.160843 15.956003 12.323544 36.580568 12.494196 61.867602v41.834226h69.126426v-33.393025h-22.708963v-11.84206h25.482065v-11.97005h-25.475971v-12.098038h19.929767v-43.351814h-12.110228v5.168331h-28.383157v-5.168331h-12.110228v43.351814h19.807872V-71.843159h-21.453449z m21.44126 23.81211h-20.813502v-10.080683l-0.121895-1.767472h20.935397v11.848155z m-7.691549-62.501455h28.383157v14.993036h-28.383157v-14.993036z m30.400512 83.92443h-43.522465v-9.830799h43.516371v9.830799z m44.400107 2.395229h17.03477l-3.15707-64.140937h-10.726724l-3.150976 64.140937z m15.517182-73.593863c1.852798-1.846703 2.779197-4.113943 2.779197-6.801718 0-2.773102-0.926399-5.083005-2.779197-6.929708-2.011261-1.767472-4.369921-2.645113-7.063791-2.645113a9.263989 9.263989 0 0 0-6.813908 2.767008c-1.932029 1.682145-2.901091 3.949385-2.901092 6.807813s0.975157 5.119573 2.901092 6.801718c1.767472 1.767472 4.040806 2.651207 6.813908 2.651208 2.864523 0 5.217089-0.883736 7.069886-2.651208z"  horiz-adv-x="1462" />

    
    <glyph glyph-name="wushuju" unicode="&#58911;" d="M93.772192 489.653833m10.419133 0l333.41224 0q10.419132 0 10.419132-10.419133l0 0q0-10.419132-10.419132-10.419132l-333.41224 0q-10.419132 0-10.419133 10.419132l0 0q0 10.419132 10.419133 10.419133ZM218.801782 234.385086m10.419133 0l333.41224 0q10.419132 0 10.419132-10.419132l0 0q0-10.419132-10.419132-10.419133l-333.41224 0q-10.419132 0-10.419133 10.419133l0 0q0 10.419132 10.419133 10.419132ZM375.08877 671.988651m41.67653 0l604.309685 0q41.67653 0 41.67653-41.67653l0-416.7653q0-41.67653-41.67653-41.67653l-604.309685 0q-41.67653 0-41.67653 41.67653l0 416.7653q0 41.67653 41.67653 41.67653ZM291.73571 630.312121m41.67653 0l604.309685 0q41.67653 0 41.67653-41.67653l0-416.7653q0-41.67653-41.67653-41.67653l-604.309685 0q-41.67653 0-41.67653 41.67653l0 416.7653q0 41.67653 41.67653 41.67653ZM260.478312 599.054724m41.67653 0l604.309685 0q41.67653 0 41.67653-41.67653l0-416.7653q0-41.67653-41.67653-41.67653l-604.309685 0q-41.67653 0-41.67653 41.67653l0 416.7653q0 41.67653 41.67653 41.67653ZM135.448722 708.455615m10.419133 0l0 0q10.419132 0 10.419132-10.419132l0-83.35306q0-10.419132-10.419132-10.419133l0 0q-10.419132 0-10.419133 10.419133l0 83.35306q0 10.419132 10.419133 10.419132ZM93.772192 666.779085m10.419133 0l83.35306 0q10.419132 0 10.419132-10.419132l0 0q0-10.419132-10.419132-10.419133l-83.35306 0q-10.419132 0-10.419133 10.419133l0 0q0 10.419132 10.419133 10.419132ZM716.315359 896a6.772436 6.772436 0 0 0 6.772436-6.772436v-54.179489a6.772436 6.772436 0 1 0-13.544872 0V889.227564a6.772436 6.772436 0 0 0 6.772436 6.772436zM689.225615 868.910256h54.179489a6.772436 6.772436 0 1 0 0-13.544873h-54.179489a6.772436 6.772436 0 0 0 0 13.544873zM1156.523707 849.113904m10.419133 0l0 0q10.419132 0 10.419132-10.419133l0-83.35306q0-10.419132-10.419132-10.419132l0 0q-10.419132 0-10.419133 10.419132l0 83.35306q0 10.419132 10.419133 10.419133ZM1114.847177 807.437374m10.419133 0l83.35306 0q10.419132 0 10.419132-10.419133l0 0q0-10.419132-10.419132-10.419132l-83.35306 0q-10.419132 0-10.419133 10.419132l0 0q0 10.419132 10.419133 10.419133ZM247.454397 41.631135a6.772436 6.772436 0 0 0 6.772436-6.772436v-54.179489a6.772436 6.772436 0 1 0-13.544872 0v54.179489a6.772436 6.772436 0 0 0 6.772436 6.772436zM220.364652 14.541391h54.179489a6.772436 6.772436 0 1 0 0-13.544873H220.364652a6.772436 6.772436 0 0 0 0 13.544873zM20.838265 166.660725m-20.838265 0a20.838265 20.838265 0 1 1 41.67653 0 20.838265 20.838265 0 1 1-41.67653 0ZM750.17754 119.774629m10.419132 0l385.507903 0q10.419132 0 10.419132-10.419133l0 0q0-10.419132-10.419132-10.419132l-385.507903 0q-10.419132 0-10.419132 10.419132l0 0q0 10.419132 10.419132 10.419133ZM1234.667201 119.774629m10.419133 0l62.514795 0q10.419132 0 10.419132-10.419133l0 0q0-10.419132-10.419132-10.419132l-62.514795 0q-10.419132 0-10.419133 10.419132l0 0q0 10.419132 10.419133 10.419133ZM620.417664 243.694581l14.732653 14.732654 73.673686-73.673686-14.732653-14.732654zM683.04186 166.337732l29.470516 29.465307a5.209566 5.209566 0 0 0 7.366327 0l117.876855-117.876856a5.209566 5.209566 0 0 0 0-7.366326l-29.470516-29.470517a5.209566 5.209566 0 0 0-7.366327 0l-117.876855 117.876856a5.209566 5.209566 0 0 0 0 7.371536zM635.567082 442.767736m10.419133 0l62.514795 0q10.419132 0 10.419132-10.419132l0 0q0-10.419132-10.419132-10.419133l-62.514795 0q-10.419132 0-10.419133 10.419133l0 0q0 10.419132 10.419133 10.419132ZM481.332664 393.829071a7.44968 7.44968 0 0 0 10.549372 0l68.583939-68.58394a7.460099 7.460099 0 1 0-10.549371-10.549371L481.332664 383.279699a7.44968 7.44968 0 0 0 0 10.549372z m0-68.58394l68.58394 68.58394a7.460099 7.460099 0 0 0 10.549371-10.549372l-68.583939-68.583939a7.460099 7.460099 0 1 0-10.549372 10.549371zM656.405347 401.091206m10.419133 0l130.239156 0q10.419132 0 10.419133-10.419132l0 0q0-10.419132-10.419133-10.419133l-130.239156 0q-10.419132 0-10.419133 10.419133l0 0q0 10.419132 10.419133 10.419132Z"  horiz-adv-x="1463" />

    
    <glyph glyph-name="fanhui" unicode="&#58978;" d="M648 588.8H217.6l128 128c12.8 12.8 12.8 32 0 44.8-12.8 12.8-32 12.8-44.8 0L118.4 580.8c-6.4-6.4-9.6-14.4-9.6-22.4s3.2-16 9.6-22.4l180.8-180.8c12.8-12.8 32-12.8 44.8 0 12.8 12.8 12.8 32 0 44.8L219.2 524.8H648c120 0 216-96 216-216s-96-216-216-216H320c-17.6 0-32-14.4-32-32s14.4-32 32-32h328c155.2 0 280 124.8 280 280s-124.8 280-280 280z"  horiz-adv-x="1024" />

    
    <glyph glyph-name="tupianjiazaishibai" unicode="&#60429;" d="M539.58027555 403.22261629m-7.52189334 0a7.52189334 7.52189334 0 1 1 15.04378668 0 7.52189334 7.52189334 0 1 1-15.04378668 0ZM562.97169229 425.30689512a3.34306371 3.34306371 0 0 1-2.29334172 1.13998473l-47.65871613 3.3330345a3.2962608 3.2962608 0 0 1-2.84160416-1.2436197l-9.63136652-11.99825563a3.34306371 3.34306371 0 0 1 0.07020433-4.27243542l15.26777193-17.75501132-15.40483753-20.3358565 3.81109261 18.11271914a3.34306371 3.34306371 0 0 1-1.16338618 3.28288856L483.1259588 411.84103452l8.31754248 13.13155422a3.34306371 3.34306371 0 0 1-3.05890328 5.1215736l-25.09303615-1.75176538a3.34306371 3.34306371 0 0 1-3.10236312-3.57039202l5.83030309-83.36932264a3.34974983 3.34974983 0 0 1 3.5837643-3.10236312l18.4403394 1.37734222c1.84202811 0.13706561 3.22271341 1.74173618 3.08230471 3.58042124s-1.731707 3.24277178-3.58376428 3.08564782l-15.09058955-1.12661247-0.67195581 9.66479716 13.09143747 1.31382404a3.34306371 3.34306371 0 0 1 2.99538508 3.66065474 3.35977901 3.35977901 0 0 1-3.66065477 2.99538508l-12.89085364-1.29710872L467.09262526 421.90365627l15.16413699 1.05975119-6.36853639-10.05259255a3.34306371 3.34306371 0 0 1 0.71541566-4.38275652l20.72699494-16.85572721-6.13786494-29.17825999a3.22939954 3.22939954 0 0 1 0.07689046-1.54115235 3.30963308 3.30963308 0 0 1 0.14709481-1.153357l5.38233255-16.14699766a3.33972064 3.33972064 0 0 1 2.86834865-2.27328332l54.64906236-4.96779268a3.34974983 3.34974983 0 0 1 3.64059638 3.09567699L563.78405678 422.87983088a3.34974983 3.34974983 0 0 1-0.8123645 2.42706424z m-10.33340991-65.90515787l-43.10212034 4.14205595a3.29291776 3.29291776 0 0 1-3.64728248-3.00541427 3.34306371 3.34306371 0 0 1 3.00875733-3.6472825l43.27595962-4.15877125-0.65524047-9.35389223-49.07283211 4.46299003-4.1353698 12.40276633 24.53140146 32.38760119a3.33637758 3.33637758 0 0 1-0.13037949 4.198888L507.49689322 414.52217161l6.79979154 8.46798037 42.5806024-2.9753267-4.23900478-60.61308802z"  horiz-adv-x="1024" />

    
    <glyph glyph-name="paixujiantoushang" unicode="&#59212;" d="M830.97423013-15.560014079999974L547.62569324 302.58571156000005c-19.05560336 21.54111683-52.19578311 21.54111683-70.42288199 0L193.85427437-15.560014079999974C165.68512158-46.21468031999996 188.05474291-95.92494996999994 228.65146311-95.92494996999994l566.69707378 0C836.77376158-95.92494996999994 858.31487842-46.21468031999996 830.97423013-15.560014079999974z"  horiz-adv-x="1024" />

    
    <glyph glyph-name="paixujiantouxia" unicode="&#59213;" d="M830.14572563 802.69615745l-283.34853688-318.14572562c-19.05560336-21.54111683-52.19578311-21.54111683-70.42288199 0L193.02576987 802.69615745C165.68512158 833.35082373 187.22623842 882.23258886 228.65146311 882.23258886l566.69707378 0C835.94525709 882.23258886 858.31487842 833.35082373 830.14572563 802.69615745z"  horiz-adv-x="1024" />

    
    <glyph glyph-name="juxingbeifen12" unicode="&#58910;" d="M511.488 844.8A460.8 460.8 0 1 1 972.8 384a461.5168 461.5168 0 0 1-461.312 460.8z m0-855.04a394.24 394.24 0 1 0 0 788.5824 394.24 394.24 0 0 0 0-788.6336V-10.24z m226.304 414.72h-192.512V596.992a33.7408 33.7408 0 0 1-57.344 23.6032 33.3312 33.3312 0 0 1-9.728-23.6032v-192.4608H285.696a33.4848 33.4848 0 1 1 0-66.9696h192.512v-192.4096a33.3312 33.3312 0 0 1 33.28-33.4848 33.792 33.792 0 0 1 33.792 33.4848V337.408h192.512a33.5872 33.5872 0 0 1 0 67.1232V404.48z"  horiz-adv-x="1024" />

    
    <glyph glyph-name="juxingbeifen10" unicode="&#58912;" d="M908.9024 840.192a29.184 29.184 0 0 1-30.2592 0.768L116.5312 402.6368a27.136 27.136 0 0 1-13.824-27.5456c1.536-11.0592 9.8816-20.0704 20.992-22.8352l218.624-55.6032c15.2064-3.84 30.72 4.9664 34.6624 19.6608a27.4944 27.4944 0 0 1-20.2752 33.6896L203.776 388.864l652.8 375.3472-74.9568-507.0848-220.672 45.3632 215.04 206.336a27.0336 27.0336 0 0 1 0.512 38.912 29.4912 29.4912 0 0 1-40.5504 0l-257.5872-247.04a26.624 26.624 0 0 1-8.704-19.6608v-279.1424a27.648 27.648 0 0 1 17.92-25.4976 29.44 29.44 0 0 1 31.3344 6.4512l147.2512 148.5824a27.0336 27.0336 0 0 1-1.3824 38.4512 29.0304 29.0304 0 0 1-39.68-0.3072l-98.5088-99.2768v182.528l272.4864-56.0128a30.8224 30.8224 0 0 1 22.5792 4.352 28.1088 28.1088 0 0 1 11.776 18.6368l87.808 593.152a26.9312 26.9312 0 0 1-12.288 27.1872z"  horiz-adv-x="1024" />

    
    <glyph glyph-name="juxingbeifen11" unicode="&#58919;" d="M928.9728 39.8848H83.968a32.768 32.768 0 1 1 0-65.4848h844.9536a32.768 32.768 0 1 1 0 65.4848z m12.288 135.2704h-353.0752a32.768 32.768 0 0 1 0-65.536h353.0752a32.768 32.768 0 0 1 0 65.536zM110.08 85.76a34.6112 34.6112 0 0 1 8.192 1.024l216.2176 55.296a33.792 33.792 0 0 1 15.36 8.6016l477.5936 482.2528a32.1024 32.1024 0 0 1-0.512 46.5408L668.16 835.4304a32.0512 32.0512 0 0 1-45.6192-0.3584L144.384 352.8704a37.376 37.376 0 0 1-8.192-14.4384l-57.344-211.2a32.7168 32.7168 0 0 1 31.232-41.472z m86.5792 227.072l448.8704 453.12 112.7424-110.2336-448.3584-452.4032-153.7024-39.168 40.448 148.6848z"  horiz-adv-x="1024" />

    
    </font>
</defs>
</svg>
